<?xml version="1.0" encoding="UTF-8"?>
<svg id="Calque_2" data-name="Calque 2" xmlns="http://www.w3.org/2000/svg" xmlns:xlink="http://www.w3.org/1999/xlink" viewBox="0 0 1365.93 504.65">
  <defs>
    <style>
      .cls-1 {
        fill: url(#Dégradé_sans_nom_18-3);
      }

      .cls-2 {
        fill: url(#Dégradé_sans_nom_18-2);
      }

      .cls-3 {
        fill: url(#Dégradé_sans_nom_18);
      }

      .cls-4 {
        fill: #677b1f;
        opacity: .57;
      }

      .cls-5 {
        fill: #d8f765;
        opacity: .68;
      }
    </style>
    <linearGradient id="Dégradé_sans_nom_18" data-name="Dégradé sans nom 18" x1="186.28" y1="563.81" x2="1358.83" y2="-171.53" gradientUnits="userSpaceOnUse">
      <stop offset=".16" stop-color="#b8f000"/>
      <stop offset=".49" stop-color="#ccf639"/>
      <stop offset=".82" stop-color="#d8f765"/>
      <stop offset=".93" stop-color="#c3f224"/>
      <stop offset="1" stop-color="#b8f000"/>
    </linearGradient>
    <linearGradient id="Dégradé_sans_nom_18-2" data-name="Dégradé sans nom 18" x1="149.65" y1="505.4" x2="1322.21" y2="-229.94" xlink:href="#Dégradé_sans_nom_18"/>
    <linearGradient id="Dégradé_sans_nom_18-3" data-name="Dégradé sans nom 18" x1="149.18" y1="504.64" x2="1321.73" y2="-230.7" xlink:href="#Dégradé_sans_nom_18"/>
  </defs>
  <g id="Calque_1-2" data-name="Calque 1">
    <g>
      <path class="cls-3" d="m1048.78,0c-14.2,41.64-28.44,83.27-42.71,124.89-4.82,14.06-13.78,22.79-27.88,25.62-51.64,10.38-103.22,21.12-154.85,31.59-13.92,2.82-25.21-2.16-34.12-14.05-31.84-42.49-63.64-85.02-95.76-127.27-9.7-12.76-12.82-25.71-8.73-40.78H0v504.65h6.89c1.64-28.73,3.26-57.46,4.8-86.2,1.57-29.27,11.9-49.21,34.41-61.98,32.37-18.36,63.83-39.07,95.68-58.78,32.7-20.23,65.57-40.08,98.03-60.85,18.68-11.95,35.85-11.39,53.76,2.27,62.56,47.71,125.46,94.79,188.19,142.18,10.1,7.63,16.39,17.99,18.97,30.33l-8.71,93.04h873.9V0h-317.15Z"/>
      <path class="cls-2" d="m481.77,381.28c-62.73-47.39-125.62-94.46-188.19-142.18-17.92-13.66-35.09-14.22-53.76-2.27-32.46,20.78-65.33,40.62-98.03,60.85-31.85,19.71-63.31,40.42-95.68,58.78-22.52,12.77-32.85,32.71-34.41,61.98-1.54,28.74-3.16,57.47-4.8,86.2h485.15l8.71-93.04c-2.58-12.34-8.88-22.7-18.97-30.33Z"/>
      <path class="cls-5" d="m481.77,381.28c-62.73-47.39-125.62-94.46-188.19-142.18-17.92-13.66-35.09-14.22-53.76-2.27-32.46,20.78-65.33,40.62-98.03,60.85-31.85,19.71-63.31,40.42-95.68,58.78-22.52,12.77-32.85,32.71-34.41,61.98-1.54,28.74-3.16,57.47-4.8,86.2h485.15l8.71-93.04c-2.58-12.34-8.88-22.7-18.97-30.33Z"/>
      <path class="cls-1" d="m693.46,40.78c32.12,42.25,63.92,84.77,95.76,127.27,8.91,11.89,20.2,16.88,34.12,14.05,51.63-10.47,103.21-21.21,154.85-31.59,14.1-2.84,23.06-11.56,27.88-25.62,14.27-41.61,28.51-83.24,42.71-124.89h-364.05c-4.09,15.07-.97,28.02,8.73,40.78Z"/>
      <path class="cls-4" d="m693.46,40.78c32.12,42.25,63.92,84.77,95.76,127.27,8.91,11.89,20.2,16.88,34.12,14.05,51.63-10.47,103.21-21.21,154.85-31.59,14.1-2.84,23.06-11.56,27.88-25.62,14.27-41.61,28.51-83.24,42.71-124.89h-364.05c-4.09,15.07-.97,28.02,8.73,40.78Z"/>
    </g>
  </g>
</svg>