<?xml version="1.0" encoding="UTF-8"?>
<svg id="Calque_2" data-name="Calque 2" xmlns="http://www.w3.org/2000/svg" viewBox="0 0 135.05 100.84">
  <defs>
    <style>
      .cls-1 {
        fill: #5660ff;
      }

      .cls-2 {
        fill: none;
        stroke: #000;
        stroke-miterlimit: 10;
      }

      .cls-3 {
        fill: #fbfbfb;
      }
    </style>
  </defs>
  <g id="Calque_1-2" data-name="Calque 1">
    <g>
      <g id="Calque_2-2" data-name="Calque 2">
        <g id="Calque_1-2" data-name="Calque 1-2">
          <path class="cls-1" d="m63.69,24.78c.69.55.98,1.47.72,2.31-.17.89-.29,1.79-.37,2.7,1-.5,1.75-.86,2.48-1.3.6-.41,1.4-.41,2,0,.74.44,1.54.8,2.5,1.29-.09-.9-.22-1.8-.4-2.69-.25-.84.03-1.76.72-2.31.62-.55,1.15-1.2,1.88-2-1.13-.21-2-.42-2.81-.51-.73-.03-1.37-.5-1.61-1.19-.35-.81-.79-1.58-1.29-2.56-.51,1-1,1.82-1.33,2.66-.23.62-.8,1.04-1.46,1.07-.88.1-1.75.32-2.9.53.75.82,1.27,1.46,1.87,2Z"/>
          <path class="cls-1" d="m41.77,66.48h11c.04-3.5,1.32-6.87,3.6-9.53l-7.82-7.83c-4.36,4.73-6.78,10.93-6.78,17.36Z"/>
          <path class="cls-1" d="m81.02,34.2c-.19.9-.26,1.82-.41,3,1-.49,1.74-.85,2.47-1.28.6-.41,1.4-.41,2,0,.74.44,1.54.8,2.51,1.29-.16-1.05-.25-1.87-.41-2.67-.24-.85.04-1.76.72-2.32.62-.54,1.15-1.2,1.89-2-1.07-.19-1.83-.37-2.6-.44-.88-.03-1.65-.6-1.93-1.44-.3-.77-.72-1.49-1.18-2.41-.4.88-.85,1.73-1.35,2.55-.35.49-.85.87-1.42,1.07-.96.26-1.93.46-2.92.58.8.85,1.4,1.56,2.07,2.2.54.46.76,1.19.56,1.87Z"/>
          <path class="cls-1" d="m46.97,31.99c.82.63,1.16,1.71.84,2.69-.18.74-.23,1.51-.36,2.48,1-.51,1.76-.86,2.5-1.3.6-.41,1.4-.41,2,0,.73.43,1.51.79,2.47,1.29-.15-1.13-.21-2.05-.4-2.94-.19-.67.02-1.39.55-1.84.67-.64,1.27-1.34,2.07-2.2-1.01-.14-2.01-.34-3-.6-.51-.17-.96-.5-1.27-.95-.52-.88-1-1.8-1.43-2.73-.4.91-.85,1.79-1.36,2.64-.36.49-.86.86-1.43,1.07-.95.25-1.92.44-2.89.57.54.64,1.11,1.24,1.71,1.82Z"/>
          <path class="cls-1" d="m86.07,58.67l-15.14,5.39,1.35,3,13.93-8.15-.14-.24Z"/>
          <path class="cls-1" d="m67.42,64.71c-1.51.07-2.68,1.36-2.61,2.87.07,1.51,1.36,2.68,2.87,2.61,1.45-.07,2.59-1.25,2.61-2.7,0-1.54-1.25-2.78-2.79-2.77-.03,0-.05,0-.08,0Z"/>
          <path class="cls-1" d="m78.7,56.93c.29.31.55.64.77,1,.4.77.88.83,1.65.52,1.64-.64,3.31-1.18,5-1.75,1.28-.43,2.22-.13,2.66.83s.1,1.87-1.08,2.58c-1.7,1-3.41,2-5.09,3-.28.17-.48.45-.55.77.04.87.13,1.74.26,2.6h11c0-6.42-2.42-12.61-6.78-17.33l-7.84,7.78Z"/>
          <path class="cls-1" d="m68.49,40.78v11c3.19.25,6.21,1.5,8.64,3.57l7.83-7.8c-4.51-4.15-10.35-6.55-16.47-6.77Z"/>
          <path class="cls-1" d="m57.93,55.38c2.43-2.07,5.45-3.32,8.63-3.58v-11c-6.11.22-11.94,2.61-16.45,6.75l7.82,7.83Z"/>
          <path class="cls-3" d="m63.3,39.24c-13.02,1.77-23.49,13.82-23.4,26.94,0,1.49.67,2.19,2.16,2.2h10c1.91,0,2.42-.48,2.54-2.36.28-7.11,6.27-12.64,13.38-12.36,3.7.15,7.16,1.88,9.49,4.75.26.31.47.66.73,1-3.16,1.18-6.19,2.3-9.22,3.41-.31.07-.63.07-.94,0-2.52-.29-4.81,1.52-5.1,4.04-.21,1.79.64,3.53,2.18,4.46,1.83,1.2,4.26.84,5.67-.83.84-.96,1.86-1.75,3-2.32l6.42-3.58c.08.74.15,1.33.2,1.92-.04.99.74,1.83,1.73,1.86.07,0,.14,0,.21,0h10.79c.99.12,1.88-.59,2-1.57.02-.14.02-.28,0-.43-.05-1.76-.24-3.51-.55-5.24-3.09-14.65-16.38-23.92-31.29-21.89Zm-10.52,27.24h-11c0-6.43,2.42-12.63,6.79-17.36l7.82,7.83c-2.29,2.65-3.56,6.03-3.61,9.53Zm13.78-14.68c-3.18.26-6.2,1.51-8.63,3.58l-7.82-7.83c4.5-4.14,10.34-6.54,16.45-6.77v11.02Zm1,18.39c-1.51,0-2.74-1.22-2.75-2.73,0-1.51,1.22-2.74,2.73-2.75,1.51,0,2.74,1.22,2.75,2.73,0,.01,0,.03,0,.04-.03,1.49-1.24,2.69-2.73,2.71Zm9.57-14.82c-2.43-2.07-5.45-3.32-8.64-3.57v-11c6.12.23,11.97,2.63,16.47,6.79l-7.83,7.78Zm-4.85,11.68l-1.35-3,15.14-5.39.14.24-13.93,8.15Zm10-.61c-.14-.82-.23-1.65-.28-2.48.07-.32.27-.6.55-.77,1.68-1,3.39-2,5.09-3,1.18-.71,1.54-1.59,1.08-2.58s-1.38-1.26-2.66-.83c-1.67.57-3.34,1.11-5,1.75-.77.31-1.25.25-1.65-.52-.22-.36-.48-.69-.77-1l7.8-7.82c4.37,4.7,6.81,10.87,6.84,17.29l-11-.04Z"/>
          <path class="cls-3" d="m45.67,36.4c-.04,2.08,1.54,3.08,3.11,2.08s2.74-1.17,4.18-.06c.7.57,1.69.6,2.42.08.79-.49,1.13-1.46.83-2.34-.62-1.5-.08-3.23,1.27-4.12.06-.05.11-.1.15-.16.64-.56.88-1.45.6-2.26-.23-.83-1-1.4-1.86-1.39-1.63.13-3.09-.97-3.42-2.57,0-.03,0-.07,0-.1-.28-.8-1.03-1.35-1.88-1.38-.92-.07-1.76.53-2,1.42-.36,1.66-1.91,2.79-3.6,2.64h-.11c-1.62.35-2.41,2.16-1.24,3.28,1.52,1.53,2.41,3.05,1.55,4.88Zm2.48-6.8c.57-.21,1.07-.58,1.43-1.07.51-.85.96-1.73,1.36-2.64.43.93.91,1.85,1.43,2.73.31.45.76.78,1.27.95.99.26,1.99.46,3,.6-.8.86-1.4,1.56-2.07,2.2-.53.45-.74,1.17-.55,1.84.19.89.25,1.81.4,2.94-1-.5-1.74-.86-2.47-1.29-.6-.41-1.4-.41-2,0-.74.44-1.52.79-2.5,1.3.13-1,.18-1.74.36-2.48.32-.98-.02-2.06-.84-2.69-.6-.58-1.17-1.19-1.71-1.82.97-.13,1.94-.32,2.89-.57Z"/>
          <path class="cls-3" d="m78.8,36.34c-.13,2.08,1.57,3.14,3.15,2.14,1.24-1.02,3.02-1.02,4.26,0,.68.53,1.64.53,2.32,0,.71-.43,1.03-1.29.8-2.08-.59-1.73,0-3.63,1.47-4.72.83-.68.95-1.9.27-2.73-.35-.43-.88-.69-1.43-.71-1.88-.19-3.15-.89-3.65-2.76v-.1c-.31-.75-1.04-1.25-1.85-1.25-.87-.06-1.66.51-1.88,1.35-.44,1.74-2.03,2.93-3.82,2.87-1.06.09-1.84,1.02-1.75,2.08.04.43.22.84.52,1.15,1.55,1.47,2.53,2.9,1.59,4.76Zm2.51-6.75c.58-.22,1.07-.6,1.42-1.11.51-.85.97-1.74,1.37-2.65.46.92.88,1.64,1.18,2.41.26.85,1.04,1.45,1.93,1.48.77.07,1.53.25,2.6.44-.74.79-1.27,1.45-1.89,2-.68.56-.96,1.47-.71,2.32.16.8.25,1.62.41,2.67-1-.49-1.77-.85-2.51-1.29-.6-.41-1.4-.41-2,0-.73.43-1.51.79-2.47,1.28.15-1.13.22-2.05.41-3,.19-.67-.03-1.38-.56-1.83-.67-.64-1.27-1.35-2.07-2.2.97-.11,1.94-.28,2.89-.52Z"/>
          <path class="cls-3" d="m62.21,29c-.12,2,1.51,3.14,2.95,2.23,1.39-1.05,3.3-1.05,4.69,0,.88.58,2.05.34,2.63-.54.28-.43.38-.96.27-1.46-.59-1.77,0-3.72,1.46-4.87.82-.69.94-1.91.25-2.73-.35-.42-.87-.68-1.42-.7-1.87-.2-3.15-.89-3.63-2.77,0-.03,0-.07,0-.1-.31-.77-1.07-1.26-1.9-1.24-.83-.04-1.58.47-1.83,1.26-.44,1.73-2.03,2.93-3.82,2.87-1.05.09-1.83,1.02-1.74,2.07.04.45.24.87.56,1.19,1.53,1.48,2.44,2.96,1.53,4.79Zm2.5-6.73c.67-.02,1.26-.44,1.5-1.07.38-.84.82-1.64,1.33-2.66.5,1,.94,1.75,1.29,2.56.24.69.88,1.16,1.61,1.19.85.09,1.68.3,2.81.51-.73.78-1.26,1.43-1.88,2-.69.55-.97,1.47-.72,2.31.18.89.31,1.79.4,2.69-1-.49-1.76-.85-2.5-1.29-.6-.41-1.4-.41-2,0-.73.44-1.51.8-2.48,1.3.08-.91.2-1.81.37-2.7.26-.84-.03-1.76-.72-2.31-.6-.54-1.12-1.18-1.86-2,1.12-.21,1.99-.43,2.87-.53h-.02Z"/>
        </g>
      </g>
      <path class="cls-2" d="m.64.5c-.09,17.56-.14,35.12-.14,52.69-.01,5.21,1.69,9.68,6.38,12.52,18.06,10.99,36.17,21.93,54.33,32.8,3.82,2.45,8.7,2.45,12.52,0,17.8-10.62,35.56-21.31,53.4-31.85,5.12-3.02,7.43-7.23,7.37-13.13-.11-10.25.05-20.5.05-30.75.02-7.42-.1-14.85,0-22.28H.64Z"/>
    </g>
  </g>
</svg>