<svg id="Calque_2" data-name="Calque 2" xmlns="http://www.w3.org/2000/svg" viewBox="0 0 307.79 148.78">
  <g id="Calque_2-2" data-name="Calque 2">
    <g>
      <path class="cls-1" d="m26.86,121.54c-7.23-7.27-14.38-14.61-21.71-21.78-4.22-4.12-5.55-8.74-4.07-14.49,5.16-20.07,10.16-40.19,15.24-60.28,1.19-4.7,4.32-7.67,8.88-8.82C45.7,11,66.24,5.96,86.77.91c5.33-1.31,9.68.65,13.37,4.34,14.67,14.71,29.31,29.44,43.94,44.19,3.85,3.88,5.25,8.41,3.85,13.86-5.12,19.96-10.12,39.95-15.21,59.92-1.37,5.38-4.89,8.63-10.3,9.96-19.33,4.77-38.66,9.52-57.96,14.42-6.57,1.67-11.83.34-16.55-4.75-6.79-7.32-14.02-14.22-21.06-21.31h.01Z"/>
      <g>
        <path d="m28.67,53.22c.74-1.3,1.74-2.32,3.01-3.06,1.27-.74,2.68-1.1,4.24-1.1,1.82,0,3.42.44,4.78,1.32,1.36.88,2.35,2.13,2.98,3.74h-2.62c-.46-1.01-1.13-1.78-2-2.33s-1.92-.82-3.13-.82-2.22.27-3.14.82c-.93.54-1.66,1.32-2.18,2.32-.53,1-.79,2.17-.79,3.52s.26,2.49.79,3.49c.53,1,1.26,1.77,2.18,2.32.93.54,1.98.82,3.14.82s2.26-.27,3.13-.8c.87-.54,1.54-1.31,2-2.32h2.62c-.62,1.6-1.62,2.84-2.98,3.71-1.36.87-2.95,1.31-4.78,1.31-1.55,0-2.96-.36-4.24-1.09-1.27-.73-2.28-1.74-3.01-3.04s-1.1-2.76-1.1-4.39.37-3.1,1.1-4.4Z"/>
        <path d="m49.3,65.38c-1-.56-1.78-1.36-2.35-2.39-.57-1.03-.85-2.23-.85-3.59s.29-2.53.88-3.56c.58-1.03,1.38-1.82,2.39-2.38,1.01-.55,2.14-.83,3.38-.83s2.38.28,3.38.83c1.01.55,1.8,1.34,2.39,2.36s.88,2.22.88,3.58-.3,2.56-.9,3.59c-.6,1.03-1.41,1.83-2.44,2.39-1.02.56-2.16.84-3.41.84s-2.35-.28-3.35-.84Zm5.56-1.63c.69-.37,1.24-.92,1.67-1.66.42-.74.64-1.63.64-2.69s-.21-1.95-.62-2.69c-.42-.74-.96-1.28-1.63-1.64-.67-.36-1.4-.54-2.18-.54s-1.53.18-2.2.54c-.66.36-1.2.91-1.6,1.64-.4.74-.6,1.63-.6,2.69s.2,1.98.59,2.71c.39.74.92,1.28,1.57,1.64.66.36,1.38.54,2.16.54s1.52-.18,2.21-.55Z"/>
        <path d="m72.56,54.06c.99.97,1.49,2.36,1.49,4.19v7.75h-2.16v-7.44c0-1.31-.33-2.32-.98-3.01-.66-.7-1.55-1.04-2.69-1.04s-2.07.36-2.75,1.08-1.02,1.77-1.02,3.14v7.27h-2.18v-13.15h2.18v1.87c.43-.67,1.02-1.19,1.76-1.56s1.56-.55,2.46-.55c1.6,0,2.9.48,3.89,1.45Z"/>
        <path d="m79.57,65.7c-.8-.34-1.43-.82-1.9-1.44-.46-.62-.72-1.32-.77-2.12h2.26c.06.66.37,1.19.92,1.61.55.42,1.28.62,2.17.62.83,0,1.49-.18,1.97-.55.48-.37.72-.83.72-1.39s-.26-1-.77-1.28c-.51-.28-1.3-.56-2.38-.83-.98-.26-1.77-.52-2.39-.78-.62-.26-1.14-.66-1.58-1.18-.44-.52-.66-1.2-.66-2.05,0-.67.2-1.29.6-1.85.4-.56.97-1,1.7-1.33.74-.33,1.58-.49,2.52-.49,1.46,0,2.63.37,3.53,1.1.9.74,1.38,1.74,1.44,3.02h-2.18c-.05-.69-.32-1.24-.83-1.66s-1.18-.62-2.03-.62c-.78,0-1.41.17-1.87.5-.46.34-.7.78-.7,1.32,0,.43.14.79.42,1.07.28.28.63.5,1.06.67s1.01.36,1.76.56c.94.26,1.71.51,2.3.76.59.25,1.1.62,1.52,1.12.42.5.64,1.14.66,1.94,0,.72-.2,1.37-.6,1.94-.4.58-.96,1.03-1.69,1.36-.73.33-1.56.49-2.51.49-1.01,0-1.91-.17-2.71-.52Z"/>
        <path d="m92.82,54.65v7.75c0,.64.14,1.09.41,1.36.27.26.74.4,1.42.4h1.61v1.85h-1.97c-1.22,0-2.13-.28-2.74-.84-.61-.56-.91-1.48-.91-2.76v-7.75h-1.7v-1.8h1.7v-3.31h2.18v3.31h3.43v1.8h-3.43Z"/>
        <path d="m102.72,53.23c.71-.42,1.58-.62,2.6-.62v2.26h-.58c-2.45,0-3.67,1.33-3.67,3.98v7.15h-2.18v-13.15h2.18v2.14c.38-.75.93-1.34,1.64-1.75Z"/>
        <path d="m119.51,52.85v13.15h-2.18v-1.94c-.42.67-1,1.2-1.74,1.57-.74.38-1.56.56-2.46.56-1.02,0-1.94-.21-2.76-.64-.82-.42-1.46-1.06-1.93-1.91-.47-.85-.71-1.88-.71-3.1v-7.7h2.16v7.42c0,1.3.33,2.29.98,2.99.66.7,1.55,1.04,2.69,1.04s2.09-.36,2.76-1.08c.67-.72,1.01-1.77,1.01-3.14v-7.22h2.18Z"/>
        <path d="m123.28,50.28c-.29-.29-.43-.64-.43-1.06s.14-.77.43-1.06.64-.43,1.06-.43.74.14,1.02.43c.28.29.42.64.42,1.06s-.14.77-.42,1.06c-.28.29-.62.43-1.02.43s-.77-.14-1.06-.43Zm2.11,2.57v13.15h-2.18v-13.15h2.18Z"/>
        <path d="m131.05,65.7c-.8-.34-1.43-.82-1.9-1.44-.46-.62-.72-1.32-.77-2.12h2.26c.06.66.37,1.19.92,1.61.55.42,1.28.62,2.17.62.83,0,1.49-.18,1.97-.55.48-.37.72-.83.72-1.39s-.26-1-.77-1.28c-.51-.28-1.3-.56-2.38-.83-.98-.26-1.77-.52-2.39-.78-.62-.26-1.14-.66-1.58-1.18-.44-.52-.66-1.2-.66-2.05,0-.67.2-1.29.6-1.85.4-.56.97-1,1.7-1.33.74-.33,1.58-.49,2.52-.49,1.46,0,2.63.37,3.53,1.1.9.74,1.38,1.74,1.44,3.02h-2.18c-.05-.69-.32-1.24-.83-1.66s-1.18-.62-2.03-.62c-.78,0-1.41.17-1.87.5-.46.34-.7.78-.7,1.32,0,.43.14.79.42,1.07.28.28.63.5,1.06.67s1.01.36,1.76.56c.94.26,1.71.51,2.3.76.59.25,1.1.62,1.52,1.12.42.5.64,1.14.66,1.94,0,.72-.2,1.37-.6,1.94-.4.58-.96,1.03-1.69,1.36-.73.33-1.56.49-2.51.49-1.01,0-1.91-.17-2.71-.52Z"/>
        <path d="m144.02,65.38c-1-.56-1.78-1.36-2.35-2.39-.57-1.03-.85-2.23-.85-3.59s.29-2.53.88-3.56c.58-1.03,1.38-1.82,2.39-2.38,1.01-.55,2.14-.83,3.38-.83s2.38.28,3.38.83c1.01.55,1.8,1.34,2.39,2.36s.88,2.22.88,3.58-.3,2.56-.9,3.59c-.6,1.03-1.41,1.83-2.44,2.39-1.02.56-2.16.84-3.41.84s-2.35-.28-3.35-.84Zm5.56-1.63c.69-.37,1.24-.92,1.67-1.66.42-.74.64-1.63.64-2.69s-.21-1.95-.62-2.69c-.42-.74-.96-1.28-1.63-1.64-.67-.36-1.4-.54-2.18-.54s-1.53.18-2.2.54c-.66.36-1.2.91-1.6,1.64-.4.74-.6,1.63-.6,2.69s.2,1.98.59,2.71c.39.74.92,1.28,1.57,1.64.66.36,1.38.54,2.16.54s1.52-.18,2.21-.55Z"/>
        <path d="m167.29,54.06c.99.97,1.49,2.36,1.49,4.19v7.75h-2.16v-7.44c0-1.31-.33-2.32-.98-3.01-.66-.7-1.55-1.04-2.69-1.04s-2.07.36-2.75,1.08-1.02,1.77-1.02,3.14v7.27h-2.18v-13.15h2.18v1.87c.43-.67,1.02-1.19,1.76-1.56s1.56-.55,2.46-.55c1.6,0,2.9.48,3.89,1.45Z"/>
        <path d="m174.3,65.7c-.8-.34-1.43-.82-1.9-1.44-.46-.62-.72-1.32-.77-2.12h2.26c.06.66.37,1.19.92,1.61.55.42,1.28.62,2.17.62.83,0,1.49-.18,1.97-.55.48-.37.72-.83.72-1.39s-.26-1-.77-1.28c-.51-.28-1.3-.56-2.38-.83-.98-.26-1.77-.52-2.39-.78-.62-.26-1.14-.66-1.58-1.18-.44-.52-.66-1.2-.66-2.05,0-.67.2-1.29.6-1.85.4-.56.97-1,1.7-1.33.74-.33,1.58-.49,2.52-.49,1.46,0,2.63.37,3.53,1.1.9.74,1.38,1.74,1.44,3.02h-2.18c-.05-.69-.32-1.24-.83-1.66s-1.18-.62-2.03-.62c-.78,0-1.41.17-1.87.5-.46.34-.7.78-.7,1.32,0,.43.14.79.42,1.07.28.28.63.5,1.06.67s1.01.36,1.76.56c.94.26,1.71.51,2.3.76.59.25,1.1.62,1.52,1.12.42.5.64,1.14.66,1.94,0,.72-.2,1.37-.6,1.94-.4.58-.96,1.03-1.69,1.36-.73.33-1.56.49-2.51.49-1.01,0-1.91-.17-2.71-.52Z"/>
        <path d="m203.22,60.24h-10.51c.08,1.3.52,2.31,1.33,3.04.81.73,1.79,1.09,2.94,1.09.94,0,1.73-.22,2.36-.66.63-.44,1.08-1.03,1.33-1.76h2.35c-.35,1.26-1.06,2.29-2.11,3.08-1.06.79-2.37,1.19-3.94,1.19-1.25,0-2.36-.28-3.35-.84-.98-.56-1.76-1.36-2.32-2.39-.56-1.03-.84-2.23-.84-3.59s.27-2.55.82-3.58,1.31-1.81,2.29-2.36c.98-.55,2.12-.83,3.4-.83s2.35.27,3.31.82,1.7,1.29,2.22,2.24c.52.95.78,2.03.78,3.23,0,.42-.02.86-.07,1.32Zm-2.74-3.92c-.37-.6-.87-1.06-1.5-1.37-.63-.31-1.33-.47-2.1-.47-1.1,0-2.04.35-2.82,1.06-.78.7-1.22,1.68-1.33,2.93h8.3c0-.83-.18-1.55-.55-2.15Z"/>
        <path d="m216.47,54.06c.99.97,1.49,2.36,1.49,4.19v7.75h-2.16v-7.44c0-1.31-.33-2.32-.98-3.01-.66-.7-1.55-1.04-2.69-1.04s-2.07.36-2.75,1.08-1.02,1.77-1.02,3.14v7.27h-2.18v-13.15h2.18v1.87c.43-.67,1.02-1.19,1.76-1.56s1.56-.55,2.46-.55c1.6,0,2.9.48,3.89,1.45Z"/>
        <path d="m223.47,65.7c-.8-.34-1.43-.82-1.9-1.44-.46-.62-.72-1.32-.77-2.12h2.26c.06.66.37,1.19.92,1.61.55.42,1.28.62,2.17.62.83,0,1.49-.18,1.97-.55.48-.37.72-.83.72-1.39s-.26-1-.77-1.28c-.51-.28-1.3-.56-2.38-.83-.98-.26-1.77-.52-2.39-.78-.62-.26-1.14-.66-1.58-1.18-.44-.52-.66-1.2-.66-2.05,0-.67.2-1.29.6-1.85.4-.56.97-1,1.7-1.33.74-.33,1.58-.49,2.52-.49,1.46,0,2.63.37,3.53,1.1.9.74,1.38,1.74,1.44,3.02h-2.18c-.05-.69-.32-1.24-.83-1.66s-1.18-.62-2.03-.62c-.78,0-1.41.17-1.87.5-.46.34-.7.78-.7,1.32,0,.43.14.79.42,1.07.28.28.63.5,1.06.67s1.01.36,1.76.56c.94.26,1.71.51,2.3.76.59.25,1.1.62,1.52,1.12.42.5.64,1.14.66,1.94,0,.72-.2,1.37-.6,1.94-.4.58-.96,1.03-1.69,1.36-.73.33-1.56.49-2.51.49-1.01,0-1.91-.17-2.71-.52Z"/>
        <path d="m245.99,60.24h-10.51c.08,1.3.52,2.31,1.33,3.04.81.73,1.79,1.09,2.94,1.09.94,0,1.73-.22,2.36-.66.63-.44,1.08-1.03,1.33-1.76h2.35c-.35,1.26-1.06,2.29-2.11,3.08-1.06.79-2.37,1.19-3.94,1.19-1.25,0-2.36-.28-3.35-.84-.98-.56-1.76-1.36-2.32-2.39-.56-1.03-.84-2.23-.84-3.59s.27-2.55.82-3.58,1.31-1.81,2.29-2.36c.98-.55,2.12-.83,3.4-.83s2.35.27,3.31.82,1.7,1.29,2.22,2.24c.52.95.78,2.03.78,3.23,0,.42-.02.86-.07,1.32Zm-2.74-3.92c-.37-.6-.87-1.06-1.5-1.37-.63-.31-1.33-.47-2.1-.47-1.1,0-2.04.35-2.82,1.06-.78.7-1.22,1.68-1.33,2.93h8.3c0-.83-.18-1.55-.55-2.15Z"/>
        <path d="m267.49,53.25c.8.42,1.43,1.06,1.9,1.91.46.85.7,1.88.7,3.1v7.75h-2.16v-7.44c0-1.31-.32-2.32-.97-3.01-.65-.7-1.52-1.04-2.63-1.04s-2.04.36-2.71,1.09c-.67.73-1.01,1.78-1.01,3.16v7.25h-2.16v-7.44c0-1.31-.32-2.32-.97-3.01-.65-.7-1.52-1.04-2.63-1.04s-2.04.36-2.71,1.09-1.01,1.78-1.01,3.16v7.25h-2.18v-13.15h2.18v1.9c.43-.69,1.01-1.22,1.74-1.58.73-.37,1.53-.55,2.41-.55,1.1,0,2.08.25,2.93.74.85.5,1.48,1.22,1.9,2.18.37-.93.98-1.65,1.82-2.16.85-.51,1.79-.77,2.83-.77s1.94.21,2.74.64Z"/>
        <path d="m277.81,53.38c.86-.5,1.85-.74,2.95-.74,1.18,0,2.25.28,3.19.84.94.56,1.69,1.35,2.23,2.36.54,1.02.82,2.2.82,3.54s-.27,2.51-.82,3.55-1.29,1.85-2.24,2.42-2.01.86-3.18.86-2.13-.25-2.99-.74c-.86-.5-1.5-1.13-1.93-1.9v2.42h-2.18v-17.76h2.18v7.06c.45-.78,1.1-1.42,1.97-1.92Zm6.36,3.41c-.4-.74-.94-1.3-1.62-1.68-.68-.38-1.43-.58-2.24-.58s-1.54.2-2.22.59c-.68.39-1.22.96-1.63,1.7-.41.74-.61,1.6-.61,2.58s.2,1.86.61,2.6c.41.74.95,1.31,1.63,1.7.68.39,1.42.59,2.22.59s1.56-.2,2.24-.59c.68-.39,1.22-.96,1.62-1.7.4-.74.6-1.62.6-2.63s-.2-1.86-.6-2.59Z"/>
        <path d="m292.07,48.24v17.76h-2.18v-17.76h2.18Z"/>
        <path d="m307.71,60.24h-10.51c.08,1.3.52,2.31,1.33,3.04.81.73,1.79,1.09,2.94,1.09.94,0,1.73-.22,2.36-.66.63-.44,1.08-1.03,1.33-1.76h2.35c-.35,1.26-1.06,2.29-2.11,3.08-1.06.79-2.37,1.19-3.94,1.19-1.25,0-2.36-.28-3.35-.84-.98-.56-1.76-1.36-2.32-2.39-.56-1.03-.84-2.23-.84-3.59s.27-2.55.82-3.58,1.31-1.81,2.29-2.36c.98-.55,2.12-.83,3.4-.83s2.35.27,3.31.82,1.7,1.29,2.22,2.24c.52.95.78,2.03.78,3.23,0,.42-.02.86-.07,1.32Zm-2.74-3.92c-.37-.6-.87-1.06-1.5-1.37-.63-.31-1.33-.47-2.1-.47-1.1,0-2.04.35-2.82,1.06-.78.7-1.22,1.68-1.33,2.93h8.3c0-.83-.18-1.55-.55-2.15Z"/>
        <path d="m33.28,92.79l4.08-11.14h2.33l-5.16,13.15h-2.54l-5.16-13.15h2.35l4.1,11.14Z"/>
        <path d="m44.23,94.18c-1-.56-1.78-1.36-2.35-2.39-.57-1.03-.85-2.23-.85-3.59s.29-2.53.88-3.56c.58-1.03,1.38-1.82,2.39-2.38,1.01-.55,2.14-.83,3.38-.83s2.38.28,3.38.83c1.01.55,1.8,1.34,2.39,2.36s.88,2.22.88,3.58-.3,2.56-.9,3.59c-.6,1.03-1.41,1.83-2.44,2.39-1.02.56-2.16.84-3.41.84s-2.35-.28-3.35-.84Zm5.56-1.63c.69-.37,1.24-.92,1.67-1.66.42-.74.64-1.63.64-2.69s-.21-1.95-.62-2.69c-.42-.74-.96-1.28-1.63-1.64-.67-.36-1.4-.54-2.18-.54s-1.53.18-2.2.54c-.66.36-1.2.91-1.6,1.64-.4.74-.6,1.63-.6,2.69s.2,1.98.59,2.71c.39.74.92,1.28,1.57,1.64.66.36,1.38.54,2.16.54s1.52-.18,2.21-.55Z"/>
        <path d="m59.87,83.45v7.75c0,.64.14,1.09.41,1.36.27.26.74.4,1.42.4h1.61v1.85h-1.97c-1.22,0-2.13-.28-2.74-.84-.61-.56-.91-1.48-.91-2.76v-7.75h-1.7v-1.8h1.7v-3.31h2.18v3.31h3.43v1.8h-3.43Z"/>
        <path d="m69.77,82.03c.71-.42,1.58-.62,2.6-.62v2.26h-.58c-2.45,0-3.67,1.33-3.67,3.98v7.15h-2.18v-13.15h2.18v2.14c.38-.75.93-1.34,1.64-1.75Z"/>
        <path d="m86.82,89.04h-10.51c.08,1.3.52,2.31,1.33,3.04.81.73,1.79,1.09,2.94,1.09.94,0,1.73-.22,2.36-.66.63-.44,1.08-1.03,1.33-1.76h2.35c-.35,1.26-1.06,2.29-2.11,3.08-1.06.79-2.37,1.19-3.94,1.19-1.25,0-2.36-.28-3.35-.84-.98-.56-1.76-1.36-2.32-2.39-.56-1.03-.84-2.23-.84-3.59s.27-2.55.82-3.58,1.31-1.81,2.29-2.36c.98-.55,2.12-.83,3.4-.83s2.35.27,3.31.82,1.7,1.29,2.22,2.24c.52.95.78,2.03.78,3.23,0,.42-.02.86-.07,1.32Zm-2.74-3.92c-.37-.6-.87-1.06-1.5-1.37-.63-.31-1.33-.47-2.1-.47-1.1,0-2.04.35-2.82,1.06-.78.7-1.22,1.68-1.33,2.93h8.3c0-.83-.18-1.55-.55-2.15Z"/>
        <path d="m100.29,82.19c.86-.5,1.85-.76,2.99-.76s2.23.28,3.18.84,1.7,1.35,2.24,2.36c.54,1.02.82,2.2.82,3.54s-.27,2.51-.82,3.55-1.29,1.85-2.24,2.42-2.01.86-3.18.86-2.11-.25-2.96-.76c-.86-.5-1.51-1.13-1.96-1.88v8.66h-2.18v-19.39h2.18v2.42c.43-.75,1.08-1.38,1.93-1.88Zm6.4,3.4c-.4-.74-.94-1.3-1.62-1.68-.68-.38-1.43-.58-2.24-.58s-1.54.2-2.22.59c-.68.39-1.22.96-1.63,1.7-.41.74-.61,1.6-.61,2.58s.2,1.86.61,2.6c.41.74.95,1.31,1.63,1.7.68.39,1.42.59,2.22.59s1.56-.2,2.24-.59c.68-.39,1.22-.96,1.62-1.7.4-.74.6-1.62.6-2.63s-.2-1.86-.6-2.59Z"/>
        <path d="m116.23,82.03c.71-.42,1.58-.62,2.6-.62v2.26h-.58c-2.45,0-3.67,1.33-3.67,3.98v7.15h-2.18v-13.15h2.18v2.14c.38-.75.93-1.34,1.64-1.75Z"/>
        <path d="m123.74,94.18c-1-.56-1.78-1.36-2.35-2.39-.57-1.03-.85-2.23-.85-3.59s.29-2.53.88-3.56c.58-1.03,1.38-1.82,2.39-2.38,1.01-.55,2.14-.83,3.38-.83s2.38.28,3.38.83c1.01.55,1.8,1.34,2.39,2.36s.88,2.22.88,3.58-.3,2.56-.9,3.59c-.6,1.03-1.41,1.83-2.44,2.39-1.02.56-2.16.84-3.41.84s-2.35-.28-3.35-.84Zm5.56-1.63c.69-.37,1.24-.92,1.67-1.66.42-.74.64-1.63.64-2.69s-.21-1.95-.62-2.69c-.42-.74-.96-1.28-1.63-1.64-.67-.36-1.4-.54-2.18-.54s-1.53.18-2.2.54c-.66.36-1.2.91-1.6,1.64-.4.74-.6,1.63-.6,2.69s.2,1.98.59,2.71c.39.74.92,1.28,1.57,1.64.66.36,1.38.54,2.16.54s1.52-.18,2.21-.55Z"/>
        <path d="m138.97,97.66c0,1.17-.3,2.02-.89,2.57-.59.54-1.46.82-2.59.82h-1.27v-1.85h.91c.61,0,1.04-.12,1.28-.36.25-.24.37-.65.37-1.22v-15.96h2.18v16.01Zm-2.12-18.58c-.28-.29-.42-.64-.42-1.06s.14-.77.42-1.06c.28-.29.63-.43,1.04-.43s.76.14,1.04.43c.28.29.42.64.42,1.06s-.14.77-.42,1.06c-.28.29-.63.43-1.04.43s-.76-.14-1.04-.43Z"/>
        <path d="m154.59,89.04h-10.51c.08,1.3.52,2.31,1.33,3.04.81.73,1.79,1.09,2.94,1.09.94,0,1.73-.22,2.36-.66.63-.44,1.08-1.03,1.33-1.76h2.35c-.35,1.26-1.06,2.29-2.11,3.08-1.06.79-2.37,1.19-3.94,1.19-1.25,0-2.36-.28-3.35-.84-.98-.56-1.76-1.36-2.32-2.39-.56-1.03-.84-2.23-.84-3.59s.27-2.55.82-3.58,1.31-1.81,2.29-2.36c.98-.55,2.12-.83,3.4-.83s2.35.27,3.31.82,1.7,1.29,2.22,2.24c.52.95.78,2.03.78,3.23,0,.42-.02.86-.07,1.32Zm-2.74-3.92c-.37-.6-.87-1.06-1.5-1.37-.63-.31-1.33-.47-2.1-.47-1.1,0-2.04.35-2.82,1.06-.78.7-1.22,1.68-1.33,2.93h8.3c0-.83-.18-1.55-.55-2.15Z"/>
        <path d="m160.21,83.45v7.75c0,.64.14,1.09.41,1.36.27.26.74.4,1.42.4h1.61v1.85h-1.97c-1.22,0-2.13-.28-2.74-.84-.61-.56-.91-1.48-.91-2.76v-7.75h-1.7v-1.8h1.7v-3.31h2.18v3.31h3.43v1.8h-3.43Z"/>
      </g>
    </g>
  </g>
</svg>