<svg id="Calque_2" data-name="Calque 2" xmlns="http://www.w3.org/2000/svg" viewBox="0 0 272.36 92.74">
  <g id="Calque_1-2" data-name="Calque 1">
    <g>
      <g>
        <path class="cls-1" d="m108.47,92.74c-11.72,0-20.32-9.06-20.32-21s8.6-20.16,20.32-20.16h22.71v8.83h-22.71c-6.62,0-11.49,4.93-11.49,11.78s4.81,11.72,11.49,11.72h16.42v-8.61h-17.38v-6.96h26.21v24.4h-25.25Z"/>
        <path class="cls-1" d="m139.81,92.74v-8.83h31.09c3.16,0,4.98-1.64,4.98-4.25,0-2.78-1.82-4.36-4.98-4.36h-18.63c-8.1,0-13.07-4.87-13.07-11.83s4.64-11.89,13.19-11.89h29.78v8.83h-29.78c-2.5,0-4.02,1.42-4.02,3.96s1.59,3.96,4.02,3.96h18.51c8.66,0,13.31,3.85,13.31,12.06,0,7.08-4.36,12.34-13.31,12.34h-31.09Z"/>
      </g>
      <g>
        <path class="cls-1" d="m0,.5h11.26l13.85,23.76L38.91.5h10.56l-20.32,33.78c-1.1,1.79-2.44,2.94-4.39,2.94s-3.34-1.15-4.43-2.94L0,.5Z"/>
        <path class="cls-1" d="m52.74,36.72V.5h9.22v36.22h-9.22Z"/>
        <path class="cls-1" d="m98.64,36.72l-8.47-9.67h-8.97v-7.72h13c3.04,0,4.88-1.89,4.88-4.83s-1.85-4.84-4.88-4.84h-17.44v27.05h-9.17V.5h26.6c8.72,0,13.9,5.33,13.9,13.65,0,5.93-2.79,9.91-7.23,11.71l10.81,10.86h-13.05Z"/>
        <path class="cls-1" d="m123.92,36.72V9.66h-12.9V.5h34.97v9.16h-12.85v27.05h-9.22Z"/>
        <path class="cls-1" d="m180.14.5h8.97v20.23c0,11.21-5.73,16.49-20.23,16.49s-20.23-5.28-20.23-16.49V.5h9.52v20.23c0,5.53,2.34,7.42,11.01,7.42s10.96-1.89,10.96-7.42V.5Z"/>
        <path class="cls-1" d="m226.65,36.72l-4.73-8.02h-13.45l4.09-6.92h5.28l-5.18-8.77-13.95,23.72h-10.46L208.56,2.94c1.1-1.79,2.44-2.94,4.43-2.94s3.29,1.14,4.39,2.94l20.32,33.78h-11.06Z"/>
        <path class="cls-1" d="m240.63,36.72V.5h9.22v27h22.52v9.22h-31.74Z"/>
      </g>
    </g>
  </g>
</svg>