<svg id="Calque_2" data-name="Calque 2" xmlns="http://www.w3.org/2000/svg" viewBox="0 0 116.84 11.56">
  <g id="Calque_1-2" data-name="Calque 1">
    <g>
      <g>
        <path class="cls-2" d="m96,11.35c-3.22,0-5.61-2.49-5.61-5.78S92.76.02,96,.02h6.25v2.44h-6.25c-1.82,0-3.17,1.37-3.17,3.24s1.33,3.22,3.17,3.22h4.52v-2.37h-4.78v-1.91h7.22v6.73h-6.95v-.02Z"/>
        <path class="cls-2" d="m104.63,11.35v-2.44h8.57c.88,0,1.37-.46,1.37-1.17,0-.77-.51-1.21-1.37-1.21h-5.13c-2.22,0-3.61-1.35-3.61-3.26s1.28-3.28,3.63-3.28h8.2v2.44h-8.2c-.68,0-1.1.39-1.1,1.09s.44,1.09,1.1,1.09h5.1c2.38,0,3.66,1.07,3.66,3.33,0,1.94-1.21,3.4-3.66,3.4h-8.57l.02.02Z"/>
      </g>
      <g>
        <path class="cls-1" d="m0,.17h3.49l4.29,7.37L12.05.17h3.28l-6.29,10.46c-.35.56-.76.91-1.36.91s-1.03-.35-1.38-.91L0,.17Z"/>
        <path class="cls-1" d="m16.32,11.37V.14h2.85v11.23h-2.85Z"/>
        <path class="cls-1" d="m30.54,11.37l-2.62-2.99h-2.79v-2.39h4.02c.95,0,1.51-.58,1.51-1.51s-.58-1.51-1.51-1.51h-5.41v8.38h-2.85V.12h8.23c2.7,0,4.31,1.65,4.31,4.23,0,1.84-.87,3.07-2.23,3.63l3.34,3.36h-4.04l.02.02Z"/>
        <path class="cls-1" d="m38.38,11.37V2.99h-4V.14h10.83v2.85h-3.98v8.38h-2.85Z"/>
        <path class="cls-1" d="m55.8.17h2.79v6.27c0,3.47-1.77,5.12-6.27,5.12s-6.27-1.63-6.27-5.12V.17h2.95v6.27c0,1.71.72,2.29,3.4,2.29s3.4-.58,3.4-2.29V.17Z"/>
        <path class="cls-1" d="m70.2,11.37l-1.47-2.48h-4.17l1.26-2.15h1.63l-1.61-2.72-4.31,7.35h-3.24l6.29-10.46c.33-.56.76-.91,1.38-.91s1.01.35,1.36.91l6.29,10.46h-3.43Z"/>
        <path class="cls-1" d="m74.53,11.37V.14h2.85v8.36h6.97v2.85h-9.82v.02Z"/>
      </g>
    </g>
  </g>
</svg>