<?xml version="1.0" encoding="UTF-8"?>
<svg id="Calque_2" data-name="Calque 2" xmlns="http://www.w3.org/2000/svg" viewBox="0 0 82.45 111.75">
  <defs>
    <style>
      .cls-1 {
        fill: #fff;
      }

      .cls-2 {
        fill: #50b792;
      }

      .cls-3 {
        fill: #2a292a;
      }
    </style>
  </defs>
  <g id="Calque_1-2" data-name="Calque 1">
    <g>
      <path class="cls-1" d="m61.8,20.5c-6.77-3.82-13.54-7.64-20.3-11.46h0c-.05-.03-.1-.06-.15-.09,0,0,0,0,0,0,0,0,0,0,0,0-.04-.02-.08-.05-.12-.07-.04.02-.08.05-.12.07,0,0,0,0,0,0,0,0,0,0,0,0-.05.03-.1.06-.15.09h0c-6.77,3.82-13.54,7.64-20.3,11.46C13.76,13.66,6.88,6.83,0,0v82.62c9.46,5.23,18.93,10.46,28.39,15.69l12.55,13.14h0s.15.16.15.16h0s0,0,0,0c.04.04.08.08.12.13.04-.04.08-.08.12-.13h0s0,0,0,0l.15-.16h0s12.55-13.15,12.55-13.15c9.46-5.23,18.93-10.46,28.39-15.69V0c-6.88,6.83-13.76,13.66-20.64,20.5Z"/>
      <g>
        <polygon class="cls-2" points="7.01 17.75 7.01 66.9 41.22 100.89 75.43 66.9 75.43 17.75 41.22 51.74 7.01 17.75"/>
        <path class="cls-3" d="m77.47,12.87l-14.91,14.82-21.33-12.32-21.33,12.32L4.98,12.87v54.86h0v10.41l25.03,14.45,11.22,11.14,11.22-11.14,25.03-14.45v-10.41h0V12.87Zm-4.04,9.72v11.36l-7.25-4.19,7.25-7.2v.02Zm-32.2,71.75l-8.87-5.12-23.29-23.12v-27.43l10.19-5.88,21.94,21.8,21.94-21.8,10.19,5.88v27.43l-23.29,23.12-8.87,5.12h.05Zm0-74.25l18.32,10.58-18.32,18.2-18.32-18.2,18.32-10.58Zm-24.95,9.7l-7.25,4.19v-11.36l7.25,7.2v-.02Zm-7.2,45.99v-3.99l9.58,9.53s-9.58-5.53-9.58-5.53Zm64.31,0l-9.58,5.53,9.58-9.53v3.99Z"/>
      </g>
    </g>
  </g>
</svg>