<svg id="Calque_2" data-name="Calque 2" xmlns="http://www.w3.org/2000/svg" viewBox="0 0 1919.35 664">
  <defs>

  </defs>
  <g id="Calque_1-2" data-name="Calque 1">
    <g>
      <rect class="cls-1" x=".5" y=".5" width="1918.35" height="663"/>
      <path d="m1918.35,1v662H1V1h1917.35m1-1H0v664h1919.35V0h0Z"/>
    </g>
    <g>
      <path d="m387.72,297.1c12.97,0,25.68,4.57,38.86,13.99,58.78,41.97,118.75,84.27,176.74,125.17,28.75,20.28,58.48,41.24,87.69,61.91,13.74,9.72,22.56,22.89,26.23,39.15l-12.56,125.69H24.4c1.57-38.6,4.14-77.84,7.66-116.66,1.39-15.33,3.29-36.32,17.87-55.85,7.48-10.03,17.28-18.17,29.96-24.91,31.89-16.94,63.68-35.71,94.41-53.85,13.12-7.74,26.68-15.75,40.07-23.51,13.57-7.86,27.39-15.81,40.76-23.5,31.88-18.34,64.85-37.31,97-56.57,12.4-7.43,24.04-11.04,35.59-11.04m0-1c-11.79,0-23.71,3.76-36.11,11.18-45.62,27.34-91.8,53.44-137.75,80.07-44.75,25.93-88.97,53.18-134.45,77.34-12.79,6.79-22.78,15.13-30.29,25.19-14.4,19.29-16.59,40.07-18.06,56.36-3.67,40.55-6.18,79.75-7.7,117.75h682.23l12.67-126.75c-3.62-16.24-12.47-29.87-26.66-39.91-88.15-62.35-176.52-124.29-264.43-187.07-13.28-9.49-26.27-14.17-39.44-14.17h0Z"/>
      <path d="m1443.92,1c-26.07,71.4-47.24,127.91-58.65,158.35-2.73,7.29-4.93,13.16-6.54,17.47-1.5,4.04-5.5,14.77-15.6,22.97-6.16,5-13.84,8.4-22.82,10.09-41.21,7.76-83.08,15.8-123.57,23.58-30.81,5.92-62.67,12.04-94.02,17.99-3.48.66-6.9,1-10.17,1-14.27,0-26.66-6.44-36.81-19.13l-14.36-17.95c-39.28-49.1-79.9-99.87-120.2-149.51-8.05-9.92-12.65-19.67-14.06-29.8-.49-3.55-1.62-16.23,4.58-30.49.67-1.55,1.42-3.09,2.23-4.57h509.98M1445.35,0h-512c-.69,1.24-1.61,3-2.56,5.17-5.49,12.63-5.53,24.71-4.65,31.02,1.46,10.52,6.28,20.45,14.27,30.3,45.13,55.59,89.82,111.54,134.56,167.46,10.23,12.78,22.7,19.5,37.59,19.5,3.33,0,6.78-.34,10.35-1.01,72.54-13.77,145.02-27.91,217.59-41.57,9.3-1.75,17.01-5.21,23.27-10.3,10.32-8.39,14.35-19.23,15.91-23.41C1388.08,154.61,1412.86,89.01,1445.35,0h0Z"/>
    </g>
  </g>
</svg>