<?xml version="1.0" encoding="UTF-8"?>
<svg id="Calque_2" data-name="Calque 2" xmlns="http://www.w3.org/2000/svg" viewBox="0 0 1365.68 515.05">
  <defs>
  </defs>
  <g id="Calque_1-2" data-name="Calque 1">
    <rect class="cls-1" x=".5" y=".5" width="1364.68" height="514.05"/>
    <path class="cls-1" d="m81.68,154.48c6.17,14.52,15.75,24.72,30.94,26.48,58.6,6.78,117.19,13.62,175.82,20.05,13.03,1.43,24.06-3.9,31.62-16.24,32.3-52.79,64.39-105.73,96.89-158.37,5.32-8.62,7.87-17.14,7.74-25.9H16.5c21.68,51.35,43.38,102.69,65.18,153.98Z"/>
    <path class="cls-1" d="m298.55,389.2c-.02,6.96-.11,13.93-.03,20.89.04,4.01-1.53,6.86-5,8.92-12.12,7.16-24.18,14.42-36.27,21.63-2.83,1.69-5.76,1.61-8.5-.03-12.33-7.37-24.61-14.81-36.9-22.25-3.19-1.93-4.34-4.96-4.34-8.51.02-14.11.06-28.22.12-42.32.01-3.71,1.52-6.56,4.81-8.51,12.05-7.13,24.05-14.33,36.08-21.47,3.25-1.93,6.5-1.79,9.73.16,11.57,6.99,23.14,14,34.76,20.91,3.96,2.35,5.84,5.52,5.67,10.23-.25,6.77-.1,13.56-.12,20.35Z"/>
  </g>
</svg>