<svg xmlns="http://www.w3.org/2000/svg" viewBox="0 0 284.95 44.86"><defs><style>.cls-1{fill:#3a3a3a;}.cls-2{fill:#6551ff;}</style></defs><g id="Calque_2" data-name="Calque 2"><g id="Calque_1-2" data-name="Calque 1"><path class="cls-1" d="M27.75,0a1.81,1.81,0,0,1,1.11.63,1.11,1.11,0,0,1,.24,1.06L16.35,43.79a1.6,1.6,0,0,1-1.76,1.07c-1,0-1.58-.36-1.79-1.07L.05,1.73A1.11,1.11,0,0,1,.29.67,2,2,0,0,1,1.44,0,2.15,2.15,0,0,1,2.78.22a1.43,1.43,0,0,1,.82.89l11,36.17,11-36.17a1.41,1.41,0,0,1,.81-.89A2.28,2.28,0,0,1,27.75,0Z"/><path class="cls-1" d="M44.51,2.8V42.06h3.63a2,2,0,0,1,1.27.41,1.2,1.2,0,0,1,.53,1,1.24,1.24,0,0,1-.53,1,2,2,0,0,1-1.27.41H37.23a2.11,2.11,0,0,1-1.31-.41,1.24,1.24,0,0,1-.53-1,1.2,1.2,0,0,1,.53-1,2.05,2.05,0,0,1,1.31-.41h3.64V2.8H37.23a2.05,2.05,0,0,1-1.31-.41,1.2,1.2,0,0,1-.53-1,1.25,1.25,0,0,1,.53-1A2.11,2.11,0,0,1,37.23,0H48.14a2,2,0,0,1,1.27.41,1.25,1.25,0,0,1,.53,1,1.2,1.2,0,0,1-.53,1,2,2,0,0,1-1.27.41Z"/><path class="cls-1" d="M68.82,0a12.25,12.25,0,0,1,7.72,2.49,7.28,7.28,0,0,1,3.19,5.94v7c0,3-1.63,5.35-4.9,7q4.9,2.52,4.9,7v14a1.24,1.24,0,0,1-.53,1,2,2,0,0,1-1.27.41,2.08,2.08,0,0,1-1.3-.41,1.22,1.22,0,0,1-.54-1v-14a4.87,4.87,0,0,0-2.12-4,8.19,8.19,0,0,0-5.15-1.63H65.18a2.08,2.08,0,0,1-1.3-.41,1.22,1.22,0,0,1-.54-1,1.18,1.18,0,0,1,.54-1,2,2,0,0,1,1.3-.41h3.64A8.1,8.1,0,0,0,74,19.38a4.87,4.87,0,0,0,2.12-4v-7a4.87,4.87,0,0,0-2.12-4A8.1,8.1,0,0,0,68.82,2.8H59.71V43.44a1.24,1.24,0,0,1-.53,1,2.05,2.05,0,0,1-1.27.41,2.11,2.11,0,0,1-1.31-.41,1.24,1.24,0,0,1-.53-1v-42a1.25,1.25,0,0,1,.53-1A2.11,2.11,0,0,1,57.91,0Z"/><path class="cls-1" d="M107.72,0A2,2,0,0,1,109,.41a1.25,1.25,0,0,1,.53,1,1.2,1.2,0,0,1-.53,1,2,2,0,0,1-1.27.41H99.51V43.44a1.24,1.24,0,0,1-.53,1,2.05,2.05,0,0,1-1.27.41,2.11,2.11,0,0,1-1.31-.41,1.24,1.24,0,0,1-.53-1V2.8H87.7a2.05,2.05,0,0,1-1.31-.41,1.2,1.2,0,0,1-.53-1,1.25,1.25,0,0,1,.53-1A2.11,2.11,0,0,1,87.7,0Z"/><path class="cls-1" d="M137.51,0a2,2,0,0,1,1.27.41,1.25,1.25,0,0,1,.53,1v35a7.32,7.32,0,0,1-3.19,5.94,12.35,12.35,0,0,1-7.72,2.46h-1.84a12.35,12.35,0,0,1-7.72-2.46,7.32,7.32,0,0,1-3.19-5.94v-35a1.25,1.25,0,0,1,.53-1A2.11,2.11,0,0,1,117.49,0a2.05,2.05,0,0,1,1.27.41,1.25,1.25,0,0,1,.53,1v35a4.93,4.93,0,0,0,2.12,4,8.32,8.32,0,0,0,5.15,1.64h1.84a8.2,8.2,0,0,0,5.15-1.64,4.93,4.93,0,0,0,2.12-4v-35a1.24,1.24,0,0,1,.54-1A2.08,2.08,0,0,1,137.51,0Z"/><path class="cls-2" d="M174.66,43.13a1.11,1.11,0,0,1-.25,1.07,1.67,1.67,0,0,1-1.1.63,3.19,3.19,0,0,1-.45,0,1.61,1.61,0,0,1-1.76-1.1L160.15,7.58l-11,36.18a1.44,1.44,0,0,1-.82.88,2.17,2.17,0,0,1-1.35.19,1.84,1.84,0,0,1-1.14-.63,1.16,1.16,0,0,1-.25-1.07l12.75-42A1.63,1.63,0,0,1,160.15,0a1.6,1.6,0,0,1,1.76,1.11Z"/><path class="cls-1" d="M202.81,42.06a2,2,0,0,1,1.27.41,1.2,1.2,0,0,1,.53,1,1.24,1.24,0,0,1-.53,1,2,2,0,0,1-1.27.41h-20a2.11,2.11,0,0,1-1.31-.41,1.24,1.24,0,0,1-.53-1v-42a1.25,1.25,0,0,1,.53-1A2.11,2.11,0,0,1,182.79,0a2.05,2.05,0,0,1,1.27.41,1.25,1.25,0,0,1,.53,1V42.06Z"/><path class="cls-1" d="M244.25,0A12.25,12.25,0,0,1,252,2.49a7.28,7.28,0,0,1,3.19,5.94V9.82a1.22,1.22,0,0,1-.53,1,2,2,0,0,1-1.27.41,2.05,2.05,0,0,1-1.31-.41,1.22,1.22,0,0,1-.53-1V8.43a4.87,4.87,0,0,0-2.12-4,8.1,8.1,0,0,0-5.15-1.67h-1.84a8.22,8.22,0,0,0-5.15,1.67,4.87,4.87,0,0,0-2.12,4v28a4.93,4.93,0,0,0,2.12,4,8.32,8.32,0,0,0,5.15,1.64h3.64a6.16,6.16,0,0,0,3.88-1.23,3.72,3.72,0,0,0,1.59-3v-14H240.61a2.06,2.06,0,0,1-1.3-.41,1.22,1.22,0,0,1-.54-1,1.18,1.18,0,0,1,.54-1,2,2,0,0,1,1.3-.41h12.75a2,2,0,0,1,1.27.41,1.2,1.2,0,0,1,.53,1V37.84a6.12,6.12,0,0,1-2.66,5,10.22,10.22,0,0,1-6.45,2h-3.64a12.35,12.35,0,0,1-7.72-2.46,7.32,7.32,0,0,1-3.19-5.94v-28a7.28,7.28,0,0,1,3.19-5.94A12.25,12.25,0,0,1,242.41,0Z"/><path class="cls-1" d="M274,0a12.25,12.25,0,0,1,7.72,2.49A7.28,7.28,0,0,1,285,8.43V9.82a1.22,1.22,0,0,1-.53,1,2,2,0,0,1-1.27.41,2.05,2.05,0,0,1-1.31-.41,1.22,1.22,0,0,1-.53-1V8.43a4.87,4.87,0,0,0-2.12-4A8.1,8.1,0,0,0,274,2.8H272.2a8.22,8.22,0,0,0-5.15,1.67,4.87,4.87,0,0,0-2.12,4q0,5,4.45,8.78l10.18,8.56q5.38,4.52,5.39,10.69a7.32,7.32,0,0,1-3.19,5.94A12.35,12.35,0,0,1,274,44.86H272.2a12.35,12.35,0,0,1-7.72-2.46,7.32,7.32,0,0,1-3.19-5.94V35a1.21,1.21,0,0,1,.53-1,2.11,2.11,0,0,1,1.31-.41,2.05,2.05,0,0,1,1.27.41,1.21,1.21,0,0,1,.53,1v1.42a4.93,4.93,0,0,0,2.12,4,8.32,8.32,0,0,0,5.15,1.64H274a8.2,8.2,0,0,0,5.15-1.64,4.93,4.93,0,0,0,2.12-4,11.21,11.21,0,0,0-4.45-8.81L266.68,19.1q-5.39-4.53-5.39-10.67a7.28,7.28,0,0,1,3.19-5.94A12.25,12.25,0,0,1,272.2,0Z"/></g></g></svg>