<svg xmlns="http://www.w3.org/2000/svg" viewBox="0 0 383.26 287.21">
<g id="Calque_2" data-name="Calque 2">
<g id="Calque_1-2" data-name="Calque 1">
<path d="M383.26,256.65a79,79,0,0,1-3,9.16c-6.12,13.35-16.71,20.33-31.3,21.34-1.12.07-2.25.05-3.37.05H37.6c-17.2,0-30.6-8.87-35.54-23.89a39.37,39.37,0,0,1-2-12.08Q-.08,143.62,0,36C.06,15.78,15.09.58,35.36.07,41.22-.07,47.08,0,53,0H345.61c17.38,0,30.71,9,35.79,24.16.7,2.11,1.25,4.26,1.86,6.39ZM22.47,68.52V249.16c0,10.81,4.73,15.59,15.44,15.59H345.54c10.44,0,15.27-4.88,15.27-15.39V68.53c-2,1.28-3.42,2.17-4.83,3.11q-71.73,47.82-143.47,95.61c-14,9.28-28,9.13-41.94-.14L26.18,70.86C25.17,70.18,24.12,69.56,22.47,68.52Zm169.38-46H38.06c-8.3,0-13,2.88-15,9.14-1.88,6,.19,10.27,7.3,15l151.51,101c7.85,5.23,11.65,5.25,19.44.07l96.45-64.31q28.47-19,56.94-38c5.63-3.76,7.44-9.14,5.17-14.83-2.13-5.36-6.81-8.13-13.86-8.13Q268.95,22.49,191.85,22.5Z"/>
<path class="cls-1" d="M22.47,68.52c1.65,1,2.7,1.66,3.71,2.34l144.39,96.25c13.9,9.27,28,9.42,41.94.14Q284.29,119.5,356,71.64c1.41-.94,2.85-1.83,4.83-3.11V249.36c0,10.51-4.83,15.39-15.27,15.39H37.91c-10.71,0-15.44-4.78-15.44-15.59V68.52Z"/>
<path class="cls-1" d="M191.85,22.5q77.1,0,154.18,0c7.05,0,11.73,2.77,13.86,8.13,2.27,5.69.46,11.07-5.17,14.83q-28.46,19-56.94,38l-96.45,64.31c-7.79,5.18-11.59,5.16-19.44-.07L30.38,46.65c-7.11-4.74-9.18-9-7.3-15,2-6.26,6.68-9.14,15-9.14Z"/>
</g></g></svg>