<svg id="Calque_2" data-name="Calque 2" xmlns="http://www.w3.org/2000/svg" viewBox="0 0 111.82 178.35">
  <defs>
  </defs>
  <g id="Calque_1-2" data-name="Calque 1">
    <g>
      <circle class="cls-1" cx="4.02" cy="4.02" r="4.02"/>
      <circle class="cls-1" cx="24.78" cy="4.02" r="4.02"/>
      <circle class="cls-1" cx="45.53" cy="4.02" r="4.02"/>
      <circle class="cls-1" cx="66.29" cy="4.02" r="4.02"/>
      <circle class="cls-1" cx="87.05" cy="4.02" r="4.02"/>
      <circle class="cls-1" cx="107.8" cy="4.02" r="4.02"/>
      <circle class="cls-1" cx="4.02" cy="25.31" r="4.02"/>
      <circle class="cls-1" cx="24.78" cy="25.31" r="4.02"/>
      <circle class="cls-1" cx="45.53" cy="25.31" r="4.02"/>
      <circle class="cls-1" cx="66.29" cy="25.31" r="4.02"/>
      <circle class="cls-1" cx="87.05" cy="25.31" r="4.02"/>
      <circle class="cls-1" cx="107.8" cy="25.31" r="4.02"/>
      <circle class="cls-1" cx="4.02" cy="46.6" r="4.02"/>
      <circle class="cls-1" cx="24.78" cy="46.6" r="4.02"/>
      <circle class="cls-1" cx="45.53" cy="46.6" r="4.02"/>
      <circle class="cls-1" cx="66.29" cy="46.6" r="4.02"/>
      <circle class="cls-1" cx="87.05" cy="46.6" r="4.02"/>
      <circle class="cls-1" cx="107.8" cy="46.6" r="4.02"/>
      <circle class="cls-1" cx="4.02" cy="67.89" r="4.02"/>
      <circle class="cls-1" cx="24.78" cy="67.89" r="4.02"/>
      <circle class="cls-1" cx="45.53" cy="67.89" r="4.02"/>
      <circle class="cls-1" cx="66.29" cy="67.89" r="4.02"/>
      <circle class="cls-1" cx="87.05" cy="67.89" r="4.02"/>
      <circle class="cls-1" cx="107.8" cy="67.89" r="4.02"/>
      <circle class="cls-1" cx="4.02" cy="89.17" r="4.02"/>
      <circle class="cls-1" cx="24.78" cy="89.17" r="4.02"/>
      <circle class="cls-1" cx="45.53" cy="89.17" r="4.02"/>
      <circle class="cls-1" cx="66.29" cy="89.17" r="4.02"/>
      <circle class="cls-1" cx="87.05" cy="89.17" r="4.02"/>
      <circle class="cls-1" cx="107.8" cy="89.17" r="4.02"/>
      <circle class="cls-1" cx="4.02" cy="110.46" r="4.02"/>
      <circle class="cls-1" cx="24.78" cy="110.46" r="4.02"/>
      <circle class="cls-1" cx="45.53" cy="110.46" r="4.02"/>
      <circle class="cls-1" cx="66.29" cy="110.46" r="4.02"/>
      <circle class="cls-1" cx="87.05" cy="110.46" r="4.02"/>
      <circle class="cls-1" cx="107.8" cy="110.46" r="4.02"/>
      <circle class="cls-1" cx="4.02" cy="131.75" r="4.02"/>
      <circle class="cls-1" cx="24.78" cy="131.75" r="4.02"/>
      <circle class="cls-1" cx="45.53" cy="131.75" r="4.02"/>
      <circle class="cls-1" cx="66.29" cy="131.75" r="4.02"/>
      <circle class="cls-1" cx="87.05" cy="131.75" r="4.02"/>
      <circle class="cls-1" cx="107.8" cy="131.75" r="4.02"/>
      <circle class="cls-1" cx="4.02" cy="153.04" r="4.02"/>
      <circle class="cls-1" cx="24.78" cy="153.04" r="4.02"/>
      <circle class="cls-1" cx="45.53" cy="153.04" r="4.02"/>
      <circle class="cls-1" cx="66.29" cy="153.04" r="4.02"/>
      <circle class="cls-1" cx="87.05" cy="153.04" r="4.02"/>
      <circle class="cls-1" cx="107.8" cy="153.04" r="4.02"/>
      <circle class="cls-1" cx="4.02" cy="174.33" r="4.02"/>
      <circle class="cls-1" cx="24.78" cy="174.33" r="4.02"/>
      <circle class="cls-1" cx="45.53" cy="174.33" r="4.02"/>
      <circle class="cls-1" cx="66.29" cy="174.33" r="4.02"/>
      <circle class="cls-1" cx="87.05" cy="174.33" r="4.02"/>
      <circle class="cls-1" cx="107.8" cy="174.33" r="4.02"/>
    </g>
  </g>
</svg>