<?xml version="1.0" encoding="UTF-8"?>
<svg id="Calque_2" data-name="Calque 2" xmlns="http://www.w3.org/2000/svg" viewBox="0 0 191.95 216.56">
  <defs>
  </defs>
  <g id="Calque_1-2" data-name="Calque 1">
    <g class="cls-1">
      <circle class="cls-2" cx="186.67" cy="5.28" r="5.28"/>
      <circle class="cls-2" cx="160.22" cy="5.28" r="5.28"/>
      <circle class="cls-2" cx="135.02" cy="5.28" r="5.28"/>
      <circle class="cls-2" cx="108.58" cy="5.28" r="5.28"/>
      <circle class="cls-2" cx="83.37" cy="5.28" r="5.28"/>
      <circle class="cls-2" cx="56.93" cy="5.28" r="5.28"/>
      <circle class="cls-2" cx="31.72" cy="5.28" r="5.28"/>
      <circle class="cls-2" cx="5.28" cy="5.28" r="5.28"/>
      <circle class="cls-2" cx="186.67" cy="31.03" r="5.28"/>
      <circle class="cls-2" cx="160.22" cy="31.03" r="5.28"/>
      <circle class="cls-2" cx="135.02" cy="31.03" r="5.28"/>
      <circle class="cls-2" cx="108.58" cy="31.03" r="5.28"/>
      <circle class="cls-2" cx="83.37" cy="31.03" r="5.28"/>
      <circle class="cls-2" cx="56.93" cy="31.03" r="5.28"/>
      <circle class="cls-2" cx="31.72" cy="31.03" r="5.28"/>
      <circle class="cls-2" cx="5.28" cy="31.03" r="5.28"/>
      <circle class="cls-2" cx="186.67" cy="56.78" r="5.28"/>
      <circle class="cls-2" cx="160.22" cy="56.78" r="5.28"/>
      <circle class="cls-2" cx="135.02" cy="56.78" r="5.28"/>
      <circle class="cls-2" cx="108.58" cy="56.78" r="5.28"/>
      <circle class="cls-2" cx="83.37" cy="56.78" r="5.28"/>
      <circle class="cls-2" cx="56.93" cy="56.78" r="5.28"/>
      <circle class="cls-2" cx="31.72" cy="56.78" r="5.28"/>
      <circle class="cls-2" cx="5.28" cy="56.78" r="5.28"/>
      <circle class="cls-2" cx="186.67" cy="82.53" r="5.28"/>
      <circle class="cls-2" cx="160.22" cy="82.53" r="5.28"/>
      <circle class="cls-2" cx="135.02" cy="82.53" r="5.28"/>
      <circle class="cls-2" cx="108.58" cy="82.53" r="5.28"/>
      <circle class="cls-2" cx="83.37" cy="82.53" r="5.28"/>
      <circle class="cls-2" cx="56.93" cy="82.53" r="5.28"/>
      <circle class="cls-2" cx="31.72" cy="82.53" r="5.28"/>
      <circle class="cls-2" cx="5.28" cy="82.53" r="5.28"/>
      <circle class="cls-2" cx="186.67" cy="108.28" r="5.28"/>
      <circle class="cls-2" cx="160.22" cy="108.28" r="5.28"/>
      <circle class="cls-2" cx="135.02" cy="108.28" r="5.28"/>
      <circle class="cls-2" cx="108.58" cy="108.28" r="5.28"/>
      <circle class="cls-2" cx="83.37" cy="108.28" r="5.28"/>
      <circle class="cls-2" cx="56.93" cy="108.28" r="5.28"/>
      <circle class="cls-2" cx="31.72" cy="108.28" r="5.28"/>
      <circle class="cls-2" cx="5.28" cy="108.28" r="5.28"/>
      <circle class="cls-2" cx="186.67" cy="134.03" r="5.28"/>
      <circle class="cls-2" cx="160.22" cy="134.03" r="5.28"/>
      <circle class="cls-2" cx="135.02" cy="134.03" r="5.28"/>
      <circle class="cls-2" cx="108.58" cy="134.03" r="5.28"/>
      <circle class="cls-2" cx="83.37" cy="134.03" r="5.28"/>
      <circle class="cls-2" cx="56.93" cy="134.03" r="5.28"/>
      <circle class="cls-2" cx="31.72" cy="134.03" r="5.28"/>
      <circle class="cls-2" cx="5.28" cy="134.03" r="5.28"/>
      <circle class="cls-2" cx="186.67" cy="159.78" r="5.28"/>
      <circle class="cls-2" cx="160.22" cy="159.78" r="5.28"/>
      <circle class="cls-2" cx="135.02" cy="159.78" r="5.28"/>
      <circle class="cls-2" cx="108.58" cy="159.78" r="5.28"/>
      <circle class="cls-2" cx="83.37" cy="159.78" r="5.28"/>
      <circle class="cls-2" cx="56.93" cy="159.78" r="5.28"/>
      <circle class="cls-2" cx="31.72" cy="159.78" r="5.28"/>
      <circle class="cls-2" cx="5.28" cy="159.78" r="5.28"/>
      <circle class="cls-2" cx="186.67" cy="185.53" r="5.28"/>
      <circle class="cls-2" cx="160.22" cy="185.53" r="5.28"/>
      <circle class="cls-2" cx="135.02" cy="185.53" r="5.28"/>
      <circle class="cls-2" cx="108.58" cy="185.53" r="5.28"/>
      <circle class="cls-2" cx="83.37" cy="185.53" r="5.28"/>
      <circle class="cls-2" cx="56.93" cy="185.53" r="5.28"/>
      <circle class="cls-2" cx="31.72" cy="185.53" r="5.28"/>
      <circle class="cls-2" cx="5.28" cy="185.53" r="5.28"/>
      <circle class="cls-2" cx="186.67" cy="211.28" r="5.28"/>
      <circle class="cls-2" cx="160.22" cy="211.28" r="5.28"/>
      <circle class="cls-2" cx="135.02" cy="211.28" r="5.28"/>
      <circle class="cls-2" cx="108.58" cy="211.28" r="5.28"/>
      <circle class="cls-2" cx="83.37" cy="211.28" r="5.28"/>
      <circle class="cls-2" cx="56.93" cy="211.28" r="5.28"/>
      <circle class="cls-2" cx="31.72" cy="211.28" r="5.28"/>
      <circle class="cls-2" cx="5.28" cy="211.28" r="5.28"/>
    </g>
  </g>
</svg>