<svg xmlns="http://www.w3.org/2000/svg" viewBox="0 0 1366.03 744.16">    {back ? null : <defs>
      <linearGradient id="logo-gradient" x1="50%" y1="0%" x2="50%" y2="100%" gradientTransform="rotate(-30)" gradientUnits='userSpaceOnUse'>
        <stop offset="0%" stopColor="#c3ff0e">
          <animate attributeName="stop-color" values="#c3ff0e; #CAF538; #c3ff0e" dur="4s" repeatCount="indefinite"></animate>
        </stop>
        <stop offset="100%" stopColor="#CAF538">
          <animate attributeName="stop-color" values="#CAF538; #c3ff0e; #CAF538" dur="4s" repeatCount="indefinite"></animate>
        </stop>
      </linearGradient>
    </defs>}<g id="Calque_2" data-name="Calque 2"><g id="Calque_1-2" data-name="Calque 1">
    <path class="cls-1" d="M1365.32,0H.18V220.13Q43,350.69,86,481.21c17.93,54.39,52.21,95,114.17,108.15,238.92,50.72,477.79,101.67,717,151.17,53.19,11,101.62-2.92,139.32-43.34q154.58-165.72,308.83-331.71Z"/>
    <path class="cls-2" d="M1366,.24H0V295.08a168.63,168.63,0,0,0,33.39,16.74c246.41,91.72,492.75,183.69,739.6,274,54.88,20.09,107,10.34,150.19-31.89Q1144.73,337.41,1366,120.55Z"/>
    <path class="cls-3" d="M1366,104.07c-6.34-4.91-15.52-11.84-26.89-19.79C1319.8,70.75,1315,68.71,1312.65,68c-13.28-3.85-27.9-2.5-44.5,3.46-83.44,30-167,59.25-250.62,88.63-23.38,8.22-38.76,23.78-45,47.54-23.21,88.12-46,176.3-69.35,264.4-3.52,13.3-3.34,25,.29,35.32,3.89,11.06,12.65,19.6,15.43,22.46a83.37,83.37,0,0,0,15.93,12.76L1366,120.72Z"/>
    <path class="cls-4" d="M0,138.24a48.13,48.13,0,0,0,22,26.13C88.8,202,155.76,239.25,222.45,277.15c19.1,10.86,36.24,9.66,53.71-3.28,30.36-22.48,61.22-44.14,91.87-66.14,29.85-21.43,59.23-43.75,89.73-64,21.21-14.08,29.63-33.56,28.47-60.82Q484.46,41.65,482.89.4L0,.44Z"/>
</g></g>
</svg>