<svg xmlns="http://www.w3.org/2000/svg"  viewBox="0 0 174 196"><defs></defs><g className="cls-1"><g id="Calque_2" data-name="Calque 2"><g id="Calque_1-2" data-name="Calque 1"><path className="cls-3" d="M149.58,91.46c0,10.25-.16,20.5-.05,30.75.06,5.9-2.25,10.11-7.37,13.13-17.84,10.54-35.6,21.23-53.4,31.85a11.6,11.6,0,0,1-12.52,0Q49,150.88,21.91,134.39c-4.69-2.84-6.39-7.31-6.38-12.52q0-31.17.18-62.32A13.61,13.61,0,0,1,22.78,47c17.74-10.49,35.41-21.1,53.13-31.61,4.77-2.84,9.56-2.65,14.32.23,17,10.3,34.07,20.62,51.18,30.79,5.83,3.46,8.61,8.12,8.35,15.06C149.38,71.48,149.61,81.47,149.58,91.46Z"/></g></g></g></svg>