<svg xmlns="http://www.w3.org/2000/svg" viewBox="0 0 320.5 322.03"><g id="Calque_2" data-name="Calque 2"><g id="Calque_1-2" data-name="Calque 1"><path d="M159.47,322q-49.48,0-99,0C23.62,321.88.12,298.43.07,261.63,0,221.8.2,182,0,142.13-.11,121,7.92,104.3,24.81,91.24c33.37-25.77,66.3-52.11,99.53-78,22.25-17.37,49-17.65,71.16-.46,34.29,26.63,68.32,53.58,102.44,80.41,14.91,11.73,22.32,27.22,22.39,46,.15,41.83.31,83.66,0,125.48-.27,33.52-24.24,57-58.09,57.28C228,322.15,193.71,322,159.47,322Zm.78-16.06c34,0,68,.06,102,0,25-.07,42-16.9,42-41.67.09-41.58,0-83.15,0-124.72,0-13.88-5.25-25.15-16.15-33.73-33.91-26.7-67.77-53.46-101.82-80-17.19-13.39-35.43-13.09-52.81.51C99.92,52.59,66.45,79,32.86,105.34c-11.18,8.76-16.72,20-16.7,34.2.08,41.32,0,82.65,0,124,0,25.74,16.82,42.33,42.83,42.37Q109.64,306,160.25,305.89Z"/><path class="cls-1" d="M160.25,305.89q-50.61,0-101.22,0c-26,0-42.79-16.63-42.83-42.37-.05-41.32,0-82.65,0-124,0-14.18,5.52-25.44,16.7-34.2C66.45,79,99.92,52.59,133.5,26.29c17.38-13.6,35.62-13.9,52.81-.51,34.05,26.51,67.91,53.27,101.82,80,10.9,8.58,16.17,19.85,16.15,33.73-.07,41.57,0,83.14,0,124.72-.05,24.77-17.05,41.6-42,41.67C228.22,306,194.23,305.89,160.25,305.89Zm-.32-40c12.72,0,25.44,0,38.16,0,5.39,0,9.78-1.62,9.93-7.59.16-6.43-4.38-8.15-10.09-8.14q-37.8.09-75.59,0c-5.38,0-9.78,1.59-9.92,7.57-.16,6.43,4.37,8.19,10.09,8.16C135,265.86,147.45,265.91,159.93,265.9Z"/><path d="M159.93,265.9c-12.48,0-25,0-37.42,0-5.72,0-10.25-1.73-10.09-8.16.14-6,4.54-7.58,9.92-7.57q37.78.08,75.59,0c5.71,0,10.25,1.71,10.09,8.14-.15,6-4.54,7.62-9.93,7.59C185.37,265.85,172.65,265.9,159.93,265.9Z"/></g></g></svg>