<svg xmlns="http://www.w3.org/2000/svg" viewBox="0 0 186.55 186.03">
<g id="Calque_2" data-name="Calque 2">
<g id="Calque_1-2" data-name="Calque 1">
<g id="Calque_2-2" data-name="Calque 2">
<g id="Calque_1-2-2" data-name="Calque 1-2">
<path class="cls-1" d="M68.16,165.93,98.6,101.45H94l-23.27,49Q47.24,98.31,23.68,46.1A88.64,88.64,0,0,1,52.34,19.49,86,86,0,0,1,93.28,7.85a89.07,89.07,0,0,1,43,11.64c1.29-2.35,2.58-4.7,3.85-7.06A91.46,91.46,0,0,0,92.83,0,93.17,93.17,0,0,0,18.89,37a99.85,99.85,0,0,0-6.34,9.45Z"/>
<path class="cls-1" d="M122.81,92.12,119,100.31h59.12a81.73,81.73,0,0,1-7.58,28,82.65,82.65,0,0,1-49.45,45,86.34,86.34,0,0,1-12.93,3.5A79.57,79.57,0,0,1,93,178.19a70,70,0,0,1-10-.86L79.3,185A89.08,89.08,0,0,0,93,186a93.77,93.77,0,0,0,37.74-7.94A92.62,92.62,0,0,0,162.11,156q23.67-25.56,24.44-63.84H126.91l27.53-59.36c1.2,1.08,2.49,2.31,3.8,3.7a54.36,54.36,0,0,1,4.22,5.12l3.93-5.92a76.18,76.18,0,0,0-8.92-9.82c-.9-.84-1.81-1.64-2.71-2.37Z"/>
<path class="cls-1" fill="purple" d="M2.6,70.67A92.31,92.31,0,0,0,0,92.57a95.47,95.47,0,0,0,6.14,33.18,91.41,91.41,0,0,0,46,50.6Z"/>
</g></g></g></g></svg>