<svg xmlns="http://www.w3.org/2000/svg" viewBox="0 0 318.77 396.72">
<g id="Calque_2" data-name="Calque 2">
<g id="Calque_1-2" data-name="Calque 1">
<path d="M140.2,121.85V153h24.58c5.48-17.65,14.24-25.57,27.76-24.9,12.69.63,21.1,9.12,24.81,25.41h38.76c-1.68,13.44-2.21,26.42-5.1,38.84-5.95,25.63-19.6,47-39.66,64-5.66,4.82-11,10.2-17.3,14.07-8.55,5.28-10.56,12.57-9.11,21.61a8,8,0,0,0,2.26,4.49c15.06,13.12,14.17,24.74-3.11,36.21,2.24,10.13-.78,18.07-9.9,23.76-1.84,1.15-2.87,4.21-3.52,6.59-5.55,20.11-22.88,33.7-43.24,33.67s-37.55-13.63-43.13-33.8c-.66-2.37-1.75-5.38-3.6-6.53-9.15-5.7-12-13.73-9.8-23.77C53.61,321.55,52.74,309.87,68,296.49c3.68-3.24,3.08-17.36-1.1-20.92-7.9-6.71-16-13.14-23.9-19.89A123.21,123.21,0,0,1,7.46,119.94c17.61-48.38,63-80.84,114-81.45,5.84-.07,11.68,0,18.17,0V95.74c-9.76,1.3-25-3.17-24.34,13.92C115.88,124.82,129.7,121,140.2,121.85ZM127.05,294V243.61c-15.88-3.32-24.56-12.18-25-25.1-.47-13.8,7.87-22.9,25-27.19V166.11H89.65C88.39,146.35,85.71,140.52,77,141c-16.54,1-12.42,14.63-13.55,25.49H12.77C14.91,197.75,26.59,223.45,49,244c6.26,5.74,12.6,11.6,19.67,16.21,11,7.17,17.06,16,14.26,29.62-.25,1.2.14,2.53.25,4.15Zm13-.16h32.1c0-3.73.45-7-.09-10.05-1.52-8.74,2.58-14,9.11-19.29,12-9.65,24.08-19.43,34.43-30.73,17-18.58,25.16-41.31,26.49-67.53H204.47c-1.6-20-4.11-24.91-12.64-25.33-8.73-.43-11.31,4.11-14.16,25.58H140v37.86c-19.93,1.57-24.78,4.09-25.19,12.67-.42,8.76,4.06,11.33,25.19,14.19ZM127.25,153.36V135.29c-17.15-4.7-25.19-13.2-25.21-26.43,0-13.45,8-21.91,25.46-26.5V51.83c-56.18-5-114,47-113.69,101.43,1.53.12,3.08.34,4.64.34,10.59,0,21.18,0,31.63,0,4.8-17.63,13.08-25.54,26.38-25.57s21.92,8.21,26.33,25.31Zm.54,153.81c-16.16,0-32.31.05-48.47,0-4.72,0-9,1-8.91,6.55s4.51,6.31,9.14,6.3q48.08-.08,96.14,0c4.71,0,9-.94,8.91-6.53s-4.47-6.35-9.13-6.32C159.57,307.23,143.68,307.17,127.79,307.17Zm29.76,51.51H97.47c1.35,14,14.9,25.24,30,25.25S156.08,372.77,157.55,358.68ZM127.5,332.77c-11.91,0-23.82,0-35.73,0-4.81,0-9.33,1.46-8.34,6.75.45,2.46,5.39,5.74,8.36,5.8q35.71.7,71.45,0c3-.06,7.89-3.36,8.34-5.81,1-5.3-3.54-6.77-8.35-6.74C151.32,332.82,139.41,332.77,127.5,332.77Z"/>
<path d="M241.9,114.89H191.5V84.19c-17.59-4.66-25.76-13.3-25.73-26.6s7.92-21.67,25.5-26.51c0-3.82-.16-7.8,0-11.76.51-10.93,7.83-19,18.55-19.09q45-.46,90,0c10.79.09,18.6,8,18.72,18.86q.44,38.76,0,77.54c-.12,9.81-7.26,17.71-16.73,18.29-11.05.68-22.17.16-33.79.16-1.15-10.48,3-24.16-13.47-25.2C245.73,89.3,243,95.27,241.9,114.89ZM204,44.63c-10.54.93-24.38-3-25,12.19-.68,17.07,14.57,12.66,25.16,14V102H229c3.24-15.68,11.43-24.7,24-24.88,5.27-.08,12,1,15.55,4.29,5.88,5.37,9.75,13,15.45,21,2.93,0,8.23-.08,13.52,0,6.15.12,8.47-3,8.44-8.93q-.14-36,0-72c0-6-2.65-8.72-8.68-8.71q-42.21.13-84.44,0c-6.51,0-9.08,3-8.91,9.32C204.13,29.31,204,36.49,204,44.63Z"/>
<path class="cls-1" d="M127.05,294H83.2c-.11-1.62-.5-3-.25-4.15,2.8-13.58-3.27-22.45-14.26-29.62C61.62,255.6,55.28,249.74,49,244c-22.43-20.55-34.11-46.25-36.25-77.47H63.45C64.58,155.67,60.46,142,77,141c8.71-.52,11.39,5.31,12.65,25.07H127v25.21c-17.08,4.29-25.42,13.39-25,27.19.44,12.92,9.12,21.78,25,25.1Z"/>
<path class="cls-1" d="M140,293.82V231.19c-21.13-2.86-25.61-5.43-25.19-14.19.41-8.58,5.26-11.1,25.19-12.67V166.47h37.65c2.85-21.47,5.43-26,14.16-25.58,8.53.42,11,5.29,12.64,25.33h37.59c-1.33,26.22-9.47,48.95-26.49,67.53-10.35,11.3-22.46,21.08-34.43,30.73-6.53,5.27-10.63,10.55-9.11,19.29.54,3.08.09,6.32.09,10.05Z"/>
<path class="cls-1" d="M127.25,153.36H102.79c-4.41-17.1-13.05-25.33-26.33-25.31S54.88,136,50.08,153.62c-10.45,0-21,0-31.63,0-1.56,0-3.11-.22-4.64-.34C13.45,98.8,71.32,46.84,127.5,51.83V82.36C110,87,102,95.41,102,108.86c0,13.23,8.06,21.73,25.21,26.43Z"/>
<path class="cls-1" d="M127.79,307.17c15.89,0,31.78.06,47.68,0,4.66,0,9,.77,9.13,6.32s-4.2,6.54-8.91,6.53q-48.08-.08-96.14,0c-4.63,0-9.06-.71-9.14-6.3s4.19-6.57,8.91-6.55C95.48,307.22,111.63,307.17,127.79,307.17Z"/>
<path class="cls-1" d="M157.55,358.68c-1.47,14.09-14.93,25.26-30.07,25.25s-28.66-11.29-30-25.25Z"/>
<path class="cls-1" d="M127.5,332.77c11.91,0,23.82.05,35.73,0,4.81,0,9.32,1.44,8.35,6.74-.45,2.45-5.38,5.75-8.34,5.81q-35.72.7-71.45,0c-3-.06-7.91-3.34-8.36-5.8-1-5.29,3.53-6.78,8.34-6.75C103.68,332.81,115.59,332.77,127.5,332.77Z"/>
<path class="cls-1" d="M204,44.63c0-8.14.15-15.32,0-22.49-.17-6.31,2.4-9.34,8.91-9.32q42.22.16,84.44,0c6,0,8.7,2.7,8.68,8.71q-.11,36,0,72c0,5.9-2.29,9-8.44,8.93-5.29-.1-10.59,0-13.52,0-5.7-8-9.57-15.61-15.45-21C265,78.17,258.29,77.08,253,77.16c-12.57.18-20.76,9.2-24,24.88H204.15V70.83c-10.59-1.35-25.84,3.06-25.16-14C179.6,41.64,193.44,45.56,204,44.63Z"/>
</g></g></svg>