<svg xmlns="http://www.w3.org/2000/svg" viewBox="0 0 381.99 313.52">
<g id="Calque_2" data-name="Calque 2">
<g id="Calque_1-2" data-name="Calque 1">
<path d="M379,.85a4.63,4.63,0,0,1,1.64,3.34c2,142,1.54,246,0,269.47-.49,7.42-2.2,20.38-11.22,29.23a37,37,0,0,1-18.22,9.6,42.11,42.11,0,0,1-11.15,1c-11.66-.54-48.86-.4-100.69,0H2.68a2.82,2.82,0,0,1-1.87-.76A3.09,3.09,0,0,1,.06,310V87.56a5.45,5.45,0,0,1,1.57-4.38A5.26,5.26,0,0,1,5,81.8H29.47V29.2a6.84,6.84,0,0,1,1.77-5.29,6.55,6.55,0,0,1,3.6-1.85l225,.08a11,11,0,0,0,5.32-.92,10.75,10.75,0,0,0,2.53-1.61,117,117,0,0,1,8.12-12.42c1.65-2.21,3.54-4.55,6.76-5.83a8.83,8.83,0,0,1,3.54-.84L376.92,0A4.25,4.25,0,0,1,379,.85ZM313.49,298.37C305.38,288.06,306,276.53,306,265q.11-70.37,0-140.72v-5.17h-5.21q-93.94,0-187.89.11c-4,0-6.32-1.21-8.32-4.57-3.11-5.25-6.81-10.14-10-15.33-1.3-2.08-2.79-2.69-5.17-2.68-23.58.09-47.16,0-70.74,0H15V298.25H85.81l149,.12ZM335.75,67.13H74.57V81.81c4.34,0,8.43,0,12.53,0,4.48,0,9.76-1.32,13.24.58s5.51,7.13,8.11,10.92a74.53,74.53,0,0,1,4.92,7.51c1.49,2.84,3.56,3.46,6.63,3.46q97.89-.14,195.79-.07H321v5.21q0,81.6,0,163.2a60.47,60.47,0,0,0,.24,6.73c.9,8.06,7.72,16.11,14.52,17.1Zm30-52.08-1.86-.34-74.11.06a5.32,5.32,0,0,0-1.89.61A5.18,5.18,0,0,0,286,17.09c-5.26,7.65-9.1,13.3-10.79,16.17a7.61,7.61,0,0,1-2.72,2.86,8.56,8.56,0,0,1-4.49,1Q158.75,37,49.45,37H44.8V81.52H59.39c0-8.64.17-17-.08-25.33-.05-1.69.18-2.76.82-3.42,1.17-1.2,3.22-.94,3.57-.91,3.61.3,119.78.26,283,.08A5.29,5.29,0,0,1,349,53.08a5.58,5.58,0,0,1,1.87,3.47V297.16a20.5,20.5,0,0,0,4.38-2.16c7.58-4.95,10.53-12.13,10.52-21-.06-85,.11-169.91,0-254.86Z"/>
<path class="cls-1" d="M313.45,298.45H234.72l-148.95-.13H14.94V96.8h3.69c23.59,0,47.17,0,70.75,0,2.38,0,3.86.6,5.16,2.69,3.23,5.18,6.93,10.07,10,15.32,2,3.36,4.28,4.58,8.32,4.57q93.95-.24,187.9-.11H306v5.17q0,70.36,0,140.72C306,276.6,305.34,288.13,313.45,298.45Z"/>
<path class="cls-1" d="M335.75,67.13V296.46c-6.8-1-13.62-9-14.52-17.1a36.85,36.85,0,0,1-.24-6.73c1.25-9.54,1.19-66.24,0-163.2a5.68,5.68,0,0,0-1.86-3.87,5.49,5.49,0,0,0-3.34-1.34c-111.64-.14-192.28-.17-195.79.07a7.23,7.23,0,0,1-4.57-1,6.37,6.37,0,0,1-2.06-2.43c-1.2-1.87-2.87-4.45-4.92-7.51-5.86-8.74-7-9.62-8.06-10.25-2.2-1.28-3.89-1.26-13.29-1.25H74.57V67.13Z"/>
<path class="cls-1" d="M365.74,14.7c0,.56,0,3.84,0,4.41.06,31.6,0,54,0,56.82q0,99,0,198c0,8.9-2.94,16.08-10.52,21a41.74,41.74,0,0,1-4.38,2.16L350.8,56.09a4.84,4.84,0,0,0-4.13-4.15c-163.19.18-279.36.22-283-.08-.35,0-2.4-.29-3.57.91-.64.66-.87,1.73-.82,3.42.25,8.34.08,16.69.08,25.33H44.8V37h4.65q109.29,0,218.59.08c3.38,0,5.44-.94,7.21-3.85,3.36-5.53,7-10.89,10.79-16.17a5.62,5.62,0,0,1,3.74-2.32c16.64-.08,42.17,0,74.11-.06Z"/>
</g></g></svg>