<svg xmlns="http://www.w3.org/2000/svg" viewBox="0 0 52 51.99"><defs><style>.cls-1{fill:none;}.cls-2{fill:#5660ff;}.cls-3{fill:#fbfbfb;}</style></defs><g id="Calque_2" data-name="Calque 2"><g id="Calque_1-2" data-name="Calque 1"><path class="cls-1" d="M46,5.14h1.58a5,5,0,0,0-5.07-5V1.69A3.69,3.69,0,0,1,46,5.14Z"/><path class="cls-1" d="M46.19,44.9l-1.33,1.18c1.31,1.3,2.53,2.58,3.83,3.76A1.35,1.35,0,0,0,50,50c.58-.39.31-.93-.12-1.36Z"/><path class="cls-2" d="M18.21,26.92v6h3.38v-12H18.21Z"/><path class="cls-2" d="M38.14,32.93a5.2,5.2,0,1,0,5.19,5.15A5.21,5.21,0,0,0,38.14,32.93Zm0,3c-.78.78-1.37,1.38-2.13,2.13H34.79c-.11-1.87,1.21-3.24,3.32-3.39Z"/><path class="cls-2" d="M9.61,32.85H13V26.92H9.61Z"/><path class="cls-2" d="M38.29,29.46a8.67,8.67,0,1,0,8.51,8.85A8.68,8.68,0,0,0,38.29,29.46Zm-.07,15.6a6.94,6.94,0,1,1,6.85-6.94A7,7,0,0,1,38.22,45.06Z"/><path class="cls-3" d="M1.74,16.38V13.6c0-2.28.93-3.2,3.23-3.2H33.85V26.8h1.6a1.53,1.53,0,0,0,.08-.35c0-6.68,0-13.36,0-20,0-.5-.55-1-.8-1.43l2.53-2.56L40,5.17c-.81,0-1,.55-1,1.35,0,6.25,0,12.5,0,18.74a4.63,4.63,0,0,0,.1.68h1.67V10.4h2.92c2.15,0,3.11,1,3.11,3.1V30.25h1.72c0-5.92,0-11.77,0-17.61a4.19,4.19,0,0,0-4.24-4c-1.14,0-2.29,0-3.48,0V6.93a8.09,8.09,0,0,0,1.49,0,1.41,1.41,0,0,0,.94-.54,1.22,1.22,0,0,0-.27-1c-1.63-1.69-3.31-3.33-5-5a.88.88,0,0,0-1.41,0c-1.66,1.66-3.34,3.3-5,5a1.15,1.15,0,0,0-.26,1c.12.27.59.46.94.53a8,8,0,0,0,1.47,0V8.66H4.6A4.24,4.24,0,0,0,.1,12.22a32.07,32.07,0,0,0,0,4.16Z"/><path class="cls-3" d="M32.07,28.55c0-4.92,0-9.75,0-14.58,0-.74-.46-1-1.14-1H26.69c-1.41,0-1.55.15-1.55,1.55q0,8.57,0,17.11v1.21H23.41V31.62c0-3.71,0-7.43,0-11.15,0-1-.34-1.46-1.39-1.42-1.4.05-2.81,0-4.22,0-1,0-1.37.36-1.35,1.34,0,2.49,0,5,0,7.48v5H14.74c0-2.19,0-4.31,0-6.44,0-.91-.34-1.33-1.28-1.3-1.41,0-2.81,0-4.22,0s-1.44.18-1.45,1.44v6.37H4.42v1.67H26.88V14.81h3.48V28.55ZM13,32.85H9.61V26.92H13Zm8.64,0H18.21v-12h3.38Z"/><path class="cls-3" d="M30.71,46.54l-1.6.53L30,50.2H18.53c.61-2,1.25-4,1.77-6,.2-.75.53-.94,1.27-.92,1.75,0,3.51,0,5.25,0V41.59H4.6c-2,0-3.15-1.41-2.68-3.51H26V36.37H1.7V18.24H.09a2.34,2.34,0,0,0-.08.35c0,6.86,0,13.72,0,20.58A4.22,4.22,0,0,0,4.2,43.31c1.41,0,2.82,0,4.23,0H18.76c-.71,2.37-1.39,4.63-2.08,7H14.81v1.62H33.75V50.26H31.87C31.48,49,31.1,47.79,30.71,46.54Z"/><path class="cls-3" d="M47.88,44.22a1.25,1.25,0,0,1-.33-1.74,10.39,10.39,0,1,0-4.88,5,1,1,0,0,1,1.39.26q1.65,1.73,3.36,3.37a2.6,2.6,0,1,0,3.68-3.66C50.05,46.33,49,45.24,47.88,44.22ZM38,46.79a8.67,8.67,0,1,1,8.76-8.48A8.69,8.69,0,0,1,38,46.79ZM50,50a1.35,1.35,0,0,1-1.27-.14c-1.3-1.18-2.52-2.46-3.83-3.76l1.33-1.18,3.65,3.72C50.27,49.05,50.54,49.59,50,50Z"/><path class="cls-3" d="M6,12.19H4.37v1.59H6Z"/><path class="cls-3" d="M9.46,12.21H7.82V13.8H9.46Z"/><path class="cls-3" d="M13,12.19H11.34v1.59H13Z"/><path class="cls-3" d="M38.1,31.19a6.94,6.94,0,1,0,7,6.93A7,7,0,0,0,38.1,31.19Zm0,12.13a5.2,5.2,0,1,1,5.2-5.24A5.22,5.22,0,0,1,38.13,43.32Z"/><path class="cls-3" d="M34.79,38.09H36c.76-.75,1.35-1.35,2.13-2.13V34.7C36,34.85,34.68,36.22,34.79,38.09Z"/></g></g></svg>