<?xml version="1.0" encoding="UTF-8"?>
<svg id="Calque_2" data-name="Calque 2" xmlns="http://www.w3.org/2000/svg" viewBox="0 0 297.16 231.51">
  <defs>
    <style>
      .cls-1 {
        fill: #cef53e;
      }
    </style>
  </defs>
  <g id="Calque_1-2" data-name="Calque 1">
    <g>
      <path class="cls-1" d="m14.14,154.84c40.09,24.25,80.15,48.53,120.36,72.56,8.94,5.34,18.51,5.6,27.73.1,39.43-23.52,78.77-47.21,118.3-70.56,11.32-6.69,16.46-16.01,16.31-29.08-.25-22.71.05-45.42.11-68.13.06-19.91-.33-39.83.19-59.72H.35C.19,42.36.05,84.73,0,127.09c-.01,11.56,3.75,21.46,14.14,27.75Z"/>
      <g>
        <path d="m122.4,140.81h-1.88c-11.47,0-22.94,0-34.41,0-6.24,0-9.94-3.71-9.94-9.96,0-20.99.11-41.98-.07-62.97-.05-5.66,3.58-10.47,10.5-10.42,24.14.17,48.27.06,72.41.06h2.04v-4.19c-1.68,0-3.31,0-4.94,0-.94,0-1.99-.14-2.12-1.2-.09-.71.22-1.69.72-2.21,3.9-4.13,7.88-8.19,11.85-12.26,1.3-1.33,2.1-1.34,3.4,0,3.93,4.03,7.88,8.06,11.74,12.16.53.56.92,1.59.82,2.32-.16,1.11-1.29,1.2-2.28,1.2-1.58,0-3.17,0-4.84,0v4.19c1.3,0,2.53,0,3.76,0,2.29,0,4.59-.01,6.88,0,6.06.05,9.78,3.76,9.78,9.82.01,12.36.04,24.73-.03,37.09-.01,1.93.42,3.42,1.67,4.99,6.57,8.27,7.19,19.81,1.74,28.88-.18.3-.35.6-.63,1.07,2.31,2.32,4.66,4.67,7.01,7.01.16.16.45.26.67.25,1.99-.08,3.32,1.05,4.62,2.37,3.35,3.42,6.77,6.77,10.14,10.17,3.05,3.06,3.2,7.29.38,10.13-2.8,2.83-7.09,2.72-10.14-.3-3.61-3.58-7.24-7.15-10.76-10.81-.79-.82-1.49-1.96-1.66-3.05-.19-1.21-.74-1.98-1.52-2.76-1.94-1.93-3.86-3.89-5.84-5.89-3.11,1.94-6.32,3.37-9.86,3.92-9.58,1.47-17.6-1.44-24.03-8.66-.63-.71-1.22-1.01-2.15-.97-1.93.06-3.86.02-5.93.02.23,4.71.65,9.19,3.01,13.23,1.61,2.77,4.02,4.19,7.28,4.12,1.55-.03,3.09-.04,4.64,0,3.47.11,6.15,2.86,6.36,6.32.3,5.08-.93,6.96-6.61,6.92-19.1-.14-38.2-.05-57.3-.05-4.36,0-5.56-1.33-5.68-5.73-.13-4.64,2.82-7,5.57-7.36,1.67-.22,3.39-.16,5.08-.09,3.92.16,6.52-1.71,8.21-5.1,1.47-2.95,2.47-7.94,2.39-12.26Zm-4.28-24.54c0-.78,0-1.38,0-1.97,0-8.52,0-17.05,0-25.57,0-3.39,1.53-4.9,4.95-4.93,1.3-.01,2.59,0,3.89,0,3.95,0,5.34,1.38,5.34,5.29,0,8.47,0,16.95,0,25.42,0,.58,0,1.15,0,1.77h7.33c0-.66,0-1.25,0-1.83,0-12.61,0-25.23,0-37.84,0-3.14,1.54-4.7,4.65-4.77,1.4-.03,2.79,0,4.19,0,3.94,0,5.31,1.36,5.31,5.3,0,11.62,0,23.23,0,34.85v1.25c2.12-2.47,4.22-5.03,6.46-7.46.63-.69.93-1.27.93-2.19-.03-11.72-.02-23.43-.02-35.15v-1.38h-75.5v57.77h65.62c.17-1.65.33-3.2.51-4.88h-1.91c-18.9,0-37.8,0-56.7,0-1.73,0-2.56-.63-2.52-1.84.04-1.13.89-1.73,2.49-1.75,1.12,0,2.25,0,3.46,0,0-.83,0-1.43,0-2.02,0-4.64-.02-9.27,0-13.91.02-3.07,1.55-4.59,4.61-4.66,1.54-.04,3.09-.02,4.64,0,3.41.03,4.92,1.54,4.93,4.96.01,4.64,0,9.27,0,13.91,0,.53,0,1.06,0,1.65h7.31Zm42.99-55.06c-.38-.04-.62-.09-.86-.09-24.93,0-49.86-.02-74.79.01-3.57,0-5.69,2.29-5.69,5.9,0,21.39,0,42.77,0,64.16,0,3.82,2.21,6.03,6.04,6.03,22.39,0,44.77,0,67.16,0,.41,0,.82-.06,1.1-.08-.93-2.92-1.83-5.74-2.75-8.63h-1.74c-21.04,0-42.08,0-63.12,0-3.42,0-4.5-1.06-4.5-4.44,0-18.79,0-37.59,0-56.38,0-3.31,1.06-4.35,4.4-4.35,24.33,0,48.66,0,73,0h1.76v-2.12Zm-1.06-11.87c.07.12.15.24.22.36.44.02.87.05,1.31.06,2.91.02,3.17.28,3.17,3.16,0,15.94,0,31.88,0,47.82,0,.52,0,1.04,0,1.6,1.94-.71,3.67-1.48,5.48-1.95,1.21-.32,1.5-.85,1.49-2.04-.05-12.11-.03-24.21-.03-36.32,0-3.19,0-6.38,0-9.56,0-2.21.5-2.68,2.75-2.7.61,0,1.23,0,1.84,0,.06-.14.11-.28.17-.42-2.85-2.61-5.7-5.22-8.21-7.51-2.56,2.35-5.38,4.93-8.2,7.52Zm-14.21,91.55h-19.72c-.37,6.13-1.09,12.11-5.03,17.15h29.83c-4.02-5.11-4.68-11.02-5.08-17.15Zm-9.81,26.88c4.19,0,8.37,0,12.56,0,5.68,0,11.37.02,17.05-.03.51,0,1.37-.37,1.46-.72.86-3.42-.65-5.26-4.17-5.26-17.99,0-35.99,0-53.98,0-3.28,0-4.09.9-4.2,4.16-.05,1.57.5,1.9,1.97,1.89,9.77-.06,19.54-.03,29.31-.03Zm39.38-100.78v32.03c3.73.56,7.29,1.09,10.87,1.62v-33.65h-10.87Zm1.53,80.25c12.12.16,22.13-9.64,22.3-21.85.17-12.24-9.55-22.21-21.87-22.44-12.11-.23-22.27,9.72-22.42,21.94-.15,12.17,9.71,22.19,22,22.35Zm-33.71-30.98h6.97v-1.84c0-7.73,0-15.45,0-23.18,0-4.74-.03-9.47.02-14.21.01-1.2-.29-1.74-1.58-1.64-1.24.09-2.5.09-3.74,0-1.3-.1-1.71.33-1.71,1.67.05,12.61.03,25.22.03,37.83v1.37Zm-21.43,0h6.93c0-1.36,0-2.69,0-4.02,0-7.71-.03-15.43.03-23.14.01-1.4-.43-1.86-1.79-1.75-1.19.1-2.39.1-3.58,0-1.31-.11-1.71.36-1.7,1.68.05,8.61.03,17.22.03,25.83,0,.44.05.87.08,1.39Zm94.19,51.53c1.86-.07,2.89-.69,3.47-1.92.65-1.36.43-2.67-.61-3.72-3.74-3.8-7.52-7.55-11.28-11.32-.74-.75-1.46-.73-2.19.02-.8.82-1.59,1.65-2.43,2.43-.89.83-.83,1.57.01,2.41,3.68,3.65,7.31,7.34,11.02,10.95.63.62,1.57.91,2.01,1.15Zm-40.62-104.46c3.52,0,6.95,0,10.38,0,3.18,0,4.21,1.03,4.21,4.21,0,11.16.05,22.33-.04,33.49-.01,1.74.75,2.44,2.19,2.98.05-.25.11-.39.11-.53,0-12.26.03-24.52-.01-36.78-.01-3.3-2.27-5.47-5.59-5.56-2.14-.06-4.29-.02-6.43-.02-1.58,0-3.15,0-4.81,0v2.22Zm-75.15,52.93h7c0-5.39.02-10.7-.05-16,0-.31-.65-.85-1.02-.88-1.64-.1-3.28-.1-4.92,0-.36.02-.97.59-.97.92-.06,5.26-.04,10.52-.04,15.95Zm94.28,27.93c2.08,2.09,4.1,4.12,5.95,5.98.65-.49,1.38-1.04,2.02-1.52-2.17-2.16-4.2-4.19-6.17-6.16-.58.55-1.22,1.16-1.8,1.71Z"/>
        <path d="m196.87,125.14c-.03,10.93-8.92,19.79-19.8,19.76-10.89-.04-19.78-8.96-19.76-19.83.02-10.86,9-19.8,19.83-19.76,10.91.04,19.76,8.94,19.73,19.83Zm-3.59,0c.03-8.9-7.17-16.16-16.1-16.23-8.82-.07-16.18,7.21-16.27,16.09-.09,8.89,7.27,16.29,16.21,16.3,8.89,0,16.14-7.24,16.16-16.16Z"/>
      </g>
    </g>
  </g>
</svg>