<svg id="Calque_2" data-name="Calque 2" xmlns="http://www.w3.org/2000/svg" viewBox="0 0 497.57 176.49">
  <g id="Calque_2-2" data-name="Calque 2">
    <path className="service-hexagone"  d="m145.24,31.94c8.63,8.68,17.17,17.45,25.93,26.01,5.04,4.92,6.63,10.44,4.86,17.31-6.16,23.97-12.13,48-18.2,71.99-1.42,5.61-5.16,9.16-10.61,10.53-24.5,6.17-49.03,12.18-73.55,18.23-6.37,1.56-11.56-.78-15.97-5.18-17.52-17.57-35.01-35.16-52.48-52.78-4.6-4.63-6.27-10.04-4.6-16.55,6.11-23.84,12.09-47.71,18.17-71.56,1.64-6.43,5.84-10.31,12.3-11.9C54.19,12.34,77.27,6.67,100.32.81c7.85-1.99,14.13-.41,19.77,5.67,8.11,8.74,16.74,16.98,25.15,25.45h0Z"/>
    <g>
      <pathlassName='service-hexagone-title' d="m38.94,56.83c1.08-1.96,2.59-3.48,4.52-4.57,1.93-1.09,4.12-1.64,6.57-1.64,3,0,5.57.79,7.7,2.38,2.14,1.58,3.56,3.74,4.28,6.48h-6.77c-.5-1.06-1.22-1.86-2.14-2.41-.92-.55-1.97-.83-3.15-.83-1.9,0-3.43.66-4.61,1.98s-1.76,3.08-1.76,5.29.59,3.97,1.76,5.29,2.71,1.98,4.61,1.98c1.18,0,2.23-.28,3.15-.83.92-.55,1.64-1.36,2.14-2.41h6.77c-.72,2.74-2.15,4.89-4.28,6.46-2.14,1.57-4.7,2.36-7.7,2.36-2.45,0-4.64-.55-6.57-1.64-1.93-1.09-3.44-2.61-4.52-4.55-1.08-1.94-1.62-4.16-1.62-6.66s.54-4.72,1.62-6.68Z"/>
      <path lassName='service-hexagone-title' d="m70.81,75.21c-1.57-.84-2.81-2.04-3.71-3.6-.9-1.56-1.35-3.38-1.35-5.47s.46-3.88,1.37-5.45c.91-1.57,2.16-2.78,3.74-3.62,1.58-.84,3.36-1.26,5.33-1.26s3.74.42,5.33,1.26c1.58.84,2.83,2.05,3.74,3.62.91,1.57,1.37,3.39,1.37,5.45s-.46,3.88-1.39,5.45c-.92,1.57-2.18,2.78-3.78,3.62-1.6.84-3.38,1.26-5.35,1.26s-3.74-.42-5.31-1.26Zm8.32-5.36c.83-.86,1.24-2.1,1.24-3.71s-.4-2.84-1.21-3.71c-.8-.86-1.79-1.3-2.97-1.3s-2.2.43-2.99,1.28c-.79.85-1.19,2.09-1.19,3.73s.39,2.84,1.17,3.71c.78.86,1.76,1.3,2.93,1.3s2.18-.43,3.01-1.3Z"/>
      <path lassName='service-hexagone-title' d="m108.98,58.17c1.4,1.52,2.11,3.62,2.11,6.28v11.74h-6.12v-10.91c0-1.34-.35-2.39-1.04-3.13-.7-.74-1.63-1.12-2.81-1.12s-2.11.37-2.81,1.12c-.7.74-1.04,1.79-1.04,3.13v10.91h-6.16v-20.09h6.16v2.66c.62-.89,1.46-1.59,2.52-2.11,1.06-.52,2.24-.77,3.56-.77,2.35,0,4.23.76,5.63,2.29Z"/>
      <path lassName='service-hexagone-title' d="m120.04,75.57c-1.37-.6-2.45-1.42-3.24-2.47s-1.24-2.21-1.33-3.51h6.08c.07.7.4,1.26.97,1.69.58.43,1.28.65,2.12.65.77,0,1.36-.15,1.78-.45.42-.3.63-.69.63-1.17,0-.58-.3-1-.9-1.28-.6-.28-1.57-.58-2.92-.92-1.44-.34-2.64-.69-3.6-1.06-.96-.37-1.79-.96-2.48-1.76-.7-.8-1.04-1.89-1.04-3.26,0-1.15.32-2.2.95-3.15.64-.95,1.57-1.7,2.81-2.25,1.24-.55,2.71-.83,4.41-.83,2.52,0,4.51.62,5.96,1.87,1.45,1.25,2.29,2.9,2.5,4.97h-5.69c-.1-.7-.4-1.25-.92-1.66-.52-.41-1.19-.61-2.03-.61-.72,0-1.27.14-1.66.41-.38.28-.58.65-.58,1.13,0,.58.31,1.01.92,1.3s1.57.58,2.86.86c1.49.38,2.7.76,3.64,1.13s1.76.97,2.47,1.8c.71.83,1.07,1.94,1.1,3.33,0,1.18-.33,2.23-.99,3.15-.66.92-1.61,1.65-2.84,2.18-1.24.53-2.67.79-4.3.79-1.75,0-3.31-.3-4.68-.9Z"/>
      <path lassName='service-hexagone-title' d="m149.02,70.96v5.22h-3.13c-2.23,0-3.97-.55-5.22-1.64-1.25-1.09-1.87-2.87-1.87-5.35v-7.99h-2.45v-5.11h2.45v-4.9h6.16v4.9h4.03v5.11h-4.03v8.06c0,.6.14,1.03.43,1.3.29.26.77.4,1.44.4h2.2Z"/>
      <path lassName='service-hexagone-title' d="m162.49,56.83c1.08-.64,2.28-.95,3.6-.95v6.52h-1.69c-1.54,0-2.69.33-3.46.99-.77.66-1.15,1.82-1.15,3.47v9.32h-6.16v-20.09h6.16v3.35c.72-1.1,1.62-1.97,2.7-2.61Z"/>
      <path lassName='service-hexagone-title' d="m190.06,56.1v20.09h-6.16v-2.74c-.62.89-1.47,1.6-2.54,2.14-1.07.54-2.25.81-3.55.81-1.54,0-2.89-.34-4.07-1.03-1.18-.68-2.09-1.67-2.74-2.97s-.97-2.82-.97-4.57v-11.74h6.12v10.91c0,1.34.35,2.39,1.04,3.13.7.74,1.63,1.12,2.81,1.12s2.15-.37,2.84-1.12c.7-.74,1.04-1.79,1.04-3.13v-10.91h6.16Z"/>
      <path lassName='service-hexagone-title' d="m196.13,53.05c-.68-.64-1.03-1.42-1.03-2.36s.34-1.76,1.03-2.39c.68-.64,1.57-.95,2.65-.95s1.93.32,2.61.95c.68.64,1.03,1.43,1.03,2.39s-.34,1.72-1.03,2.36c-.68.64-1.55.95-2.61.95s-1.96-.32-2.65-.95Zm5.71,3.04v20.09h-6.16v-20.09h6.16Z"/>
      <path lassName='service-hexagone-title' d="m210.98,75.57c-1.37-.6-2.45-1.42-3.24-2.47s-1.24-2.21-1.33-3.51h6.08c.07.7.4,1.26.97,1.69.58.43,1.28.65,2.12.65.77,0,1.36-.15,1.78-.45.42-.3.63-.69.63-1.17,0-.58-.3-1-.9-1.28-.6-.28-1.57-.58-2.92-.92-1.44-.34-2.64-.69-3.6-1.06-.96-.37-1.79-.96-2.48-1.76-.7-.8-1.04-1.89-1.04-3.26,0-1.15.32-2.2.95-3.15.64-.95,1.57-1.7,2.81-2.25,1.24-.55,2.71-.83,4.41-.83,2.52,0,4.51.62,5.96,1.87,1.45,1.25,2.29,2.9,2.5,4.97h-5.69c-.1-.7-.4-1.25-.92-1.66-.52-.41-1.19-.61-2.03-.61-.72,0-1.27.14-1.66.41-.38.28-.58.65-.58,1.13,0,.58.31,1.01.92,1.3s1.57.58,2.86.86c1.49.38,2.7.76,3.64,1.13s1.76.97,2.47,1.8c.71.83,1.07,1.94,1.1,3.33,0,1.18-.33,2.23-.99,3.15-.66.92-1.61,1.65-2.84,2.18-1.24.53-2.67.79-4.3.79-1.75,0-3.31-.3-4.68-.9Z"/>
      <path lassName='service-hexagone-title' d="m232.6,75.21c-1.57-.84-2.81-2.04-3.71-3.6-.9-1.56-1.35-3.38-1.35-5.47s.46-3.88,1.37-5.45c.91-1.57,2.16-2.78,3.74-3.62,1.58-.84,3.36-1.26,5.33-1.26s3.74.42,5.33,1.26c1.58.84,2.83,2.05,3.74,3.62.91,1.57,1.37,3.39,1.37,5.45s-.46,3.88-1.39,5.45c-.92,1.57-2.18,2.78-3.78,3.62-1.6.84-3.38,1.26-5.35,1.26s-3.74-.42-5.31-1.26Zm8.32-5.36c.83-.86,1.24-2.1,1.24-3.71s-.4-2.84-1.21-3.71c-.8-.86-1.79-1.3-2.97-1.3s-2.2.43-2.99,1.28c-.79.85-1.19,2.09-1.19,3.73s.39,2.84,1.17,3.71c.78.86,1.76,1.3,2.93,1.3s2.18-.43,3.01-1.3Z"/>
      <path lassName='service-hexagone-title' d="m270.76,58.17c1.4,1.52,2.11,3.62,2.11,6.28v11.74h-6.12v-10.91c0-1.34-.35-2.39-1.04-3.13-.7-.74-1.63-1.12-2.81-1.12s-2.11.37-2.81,1.12c-.7.74-1.04,1.79-1.04,3.13v10.91h-6.16v-20.09h6.16v2.66c.62-.89,1.46-1.59,2.52-2.11,1.06-.52,2.24-.77,3.56-.77,2.35,0,4.23.76,5.63,2.29Z"/>
      <path lassName='service-hexagone-title' d="m281.83,75.57c-1.37-.6-2.45-1.42-3.24-2.47s-1.24-2.21-1.33-3.51h6.08c.07.7.4,1.26.97,1.69.58.43,1.28.65,2.12.65.77,0,1.36-.15,1.78-.45.42-.3.63-.69.63-1.17,0-.58-.3-1-.9-1.28-.6-.28-1.57-.58-2.92-.92-1.44-.34-2.64-.69-3.6-1.06-.96-.37-1.79-.96-2.48-1.76-.7-.8-1.04-1.89-1.04-3.26,0-1.15.32-2.2.95-3.15.64-.95,1.57-1.7,2.81-2.25,1.24-.55,2.71-.83,4.41-.83,2.52,0,4.51.62,5.96,1.87,1.45,1.25,2.29,2.9,2.5,4.97h-5.69c-.1-.7-.4-1.25-.92-1.66-.52-.41-1.19-.61-2.03-.61-.72,0-1.27.14-1.66.41-.38.28-.58.65-.58,1.13,0,.58.31,1.01.92,1.3s1.57.58,2.86.86c1.49.38,2.7.76,3.64,1.13s1.76.97,2.47,1.8c.71.83,1.07,1.94,1.1,3.33,0,1.18-.33,2.23-.99,3.15-.66.92-1.61,1.65-2.84,2.18-1.24.53-2.67.79-4.3.79-1.75,0-3.31-.3-4.68-.9Z"/>
      <path lassName='service-hexagone-title' d="m327.26,67.62h-13.93c.1,1.25.5,2.2,1.21,2.86.71.66,1.58.99,2.61.99,1.54,0,2.6-.65,3.2-1.94h6.55c-.34,1.32-.94,2.51-1.82,3.56-.88,1.06-1.97,1.88-3.29,2.48-1.32.6-2.8.9-4.43.9-1.97,0-3.72-.42-5.26-1.26-1.54-.84-2.74-2.04-3.6-3.6-.86-1.56-1.3-3.38-1.3-5.47s.43-3.91,1.28-5.47c.85-1.56,2.05-2.76,3.58-3.6,1.54-.84,3.3-1.26,5.29-1.26s3.67.41,5.18,1.22c1.51.82,2.69,1.98,3.55,3.49.85,1.51,1.28,3.28,1.28,5.29,0,.58-.04,1.18-.11,1.8Zm-6.19-3.42c0-1.06-.36-1.9-1.08-2.52-.72-.62-1.62-.94-2.7-.94s-1.9.3-2.61.9c-.71.6-1.15,1.45-1.31,2.56h7.7Z"/>
      <path lassName='service-hexagone-title' d="m349.67,58.17c1.4,1.52,2.11,3.62,2.11,6.28v11.74h-6.12v-10.91c0-1.34-.35-2.39-1.04-3.13-.7-.74-1.63-1.12-2.81-1.12s-2.11.37-2.81,1.12c-.7.74-1.04,1.79-1.04,3.13v10.91h-6.16v-20.09h6.16v2.66c.62-.89,1.46-1.59,2.52-2.11,1.06-.52,2.24-.77,3.56-.77,2.35,0,4.23.76,5.63,2.29Z"/>
      <path lassName='service-hexagone-title' d="m360.74,75.57c-1.37-.6-2.45-1.42-3.24-2.47s-1.24-2.21-1.33-3.51h6.08c.07.7.4,1.26.97,1.69.58.43,1.28.65,2.12.65.77,0,1.36-.15,1.78-.45.42-.3.63-.69.63-1.17,0-.58-.3-1-.9-1.28-.6-.28-1.57-.58-2.92-.92-1.44-.34-2.64-.69-3.6-1.06-.96-.37-1.79-.96-2.48-1.76-.7-.8-1.04-1.89-1.04-3.26,0-1.15.32-2.2.95-3.15.64-.95,1.57-1.7,2.81-2.25,1.24-.55,2.71-.83,4.41-.83,2.52,0,4.51.62,5.96,1.87,1.45,1.25,2.29,2.9,2.5,4.97h-5.69c-.1-.7-.4-1.25-.92-1.66-.52-.41-1.19-.61-2.03-.61-.72,0-1.27.14-1.66.41-.38.28-.58.65-.58,1.13,0,.58.31,1.01.92,1.3s1.57.58,2.86.86c1.49.38,2.7.76,3.64,1.13s1.76.97,2.47,1.8c.71.83,1.07,1.94,1.1,3.33,0,1.18-.33,2.23-.99,3.15-.66.92-1.61,1.65-2.84,2.18-1.24.53-2.67.79-4.3.79-1.75,0-3.31-.3-4.68-.9Z"/>
      <path lassName='service-hexagone-title' d="m397.35,67.62h-13.93c.1,1.25.5,2.2,1.21,2.86.71.66,1.58.99,2.61.99,1.54,0,2.6-.65,3.2-1.94h6.55c-.34,1.32-.94,2.51-1.82,3.56-.88,1.06-1.97,1.88-3.29,2.48-1.32.6-2.8.9-4.43.9-1.97,0-3.72-.42-5.26-1.26-1.54-.84-2.74-2.04-3.6-3.6-.86-1.56-1.3-3.38-1.3-5.47s.43-3.91,1.28-5.47c.85-1.56,2.05-2.76,3.58-3.6,1.54-.84,3.3-1.26,5.29-1.26s3.67.41,5.18,1.22c1.51.82,2.69,1.98,3.55,3.49.85,1.51,1.28,3.28,1.28,5.29,0,.58-.04,1.18-.11,1.8Zm-6.19-3.42c0-1.06-.36-1.9-1.08-2.52-.72-.62-1.62-.94-2.7-.94s-1.9.3-2.61.9c-.71.6-1.15,1.45-1.31,2.56h7.7Z"/>
      <path lassName='service-hexagone-title' d="m433.48,58.15c1.48,1.51,2.21,3.61,2.21,6.3v11.74h-6.12v-10.91c0-1.3-.34-2.3-1.03-3.01s-1.63-1.06-2.83-1.06-2.14.35-2.83,1.06c-.68.71-1.03,1.71-1.03,3.01v10.91h-6.12v-10.91c0-1.3-.34-2.3-1.03-3.01s-1.63-1.06-2.83-1.06-2.14.35-2.83,1.06-1.03,1.71-1.03,3.01v10.91h-6.16v-20.09h6.16v2.52c.62-.84,1.44-1.51,2.45-2,1.01-.49,2.15-.74,3.42-.74,1.51,0,2.86.32,4.05.97s2.12,1.57,2.79,2.77c.7-1.1,1.64-2,2.84-2.7,1.2-.7,2.51-1.04,3.92-1.04,2.5,0,4.48.76,5.96,2.27Z"/>
      <path lassName='service-hexagone-title' d="m449.84,56.67c1.08-.58,2.32-.86,3.71-.86,1.66,0,3.16.42,4.5,1.26,1.34.84,2.41,2.04,3.19,3.6.78,1.56,1.17,3.37,1.17,5.44s-.39,3.88-1.17,5.45c-.78,1.57-1.84,2.78-3.19,3.64-1.34.85-2.84,1.28-4.5,1.28-1.42,0-2.65-.28-3.71-.85-1.06-.56-1.88-1.31-2.48-2.25v2.81h-6.16v-26.64h6.16v9.4c.58-.94,1.4-1.69,2.48-2.27Zm5.02,5.81c-.85-.88-1.9-1.31-3.15-1.31s-2.26.45-3.11,1.33c-.85.89-1.28,2.1-1.28,3.64s.43,2.75,1.28,3.64c.85.89,1.89,1.33,3.11,1.33s2.27-.45,3.13-1.35c.86-.9,1.3-2.12,1.3-3.65s-.43-2.74-1.28-3.62Z"/>
      <path lassName='service-hexagone-title' d="m472.99,49.54v26.64h-6.16v-26.64h6.16Z"/>
      <path lassName='service-hexagone-title' d="m497.47,67.62h-13.93c.1,1.25.5,2.2,1.21,2.86.71.66,1.58.99,2.61.99,1.54,0,2.6-.65,3.2-1.94h6.55c-.34,1.32-.94,2.51-1.82,3.56-.88,1.06-1.97,1.88-3.29,2.48-1.32.6-2.8.9-4.43.9-1.97,0-3.72-.42-5.26-1.26-1.54-.84-2.74-2.04-3.6-3.6-.86-1.56-1.3-3.38-1.3-5.47s.43-3.91,1.28-5.47c.85-1.56,2.05-2.76,3.58-3.6,1.54-.84,3.3-1.26,5.29-1.26s3.67.41,5.18,1.22,2.69,1.98,3.55,3.49c.85,1.51,1.28,3.28,1.28,5.29,0,.58-.04,1.18-.11,1.8Zm-6.19-3.42c0-1.06-.36-1.9-1.08-2.52-.72-.62-1.62-.94-2.7-.94s-1.9.3-2.61.9-1.15,1.45-1.31,2.56h7.7Z"/>
      <path lassName='service-hexagone-title' d="m50.1,103.42l4.36-14.33h6.55l-7.13,20.09h-7.6l-7.13-20.09h6.59l4.36,14.33Z"/>
      <path lassName='service-hexagone-title' d="m68.62,108.21c-1.57-.84-2.81-2.04-3.71-3.6-.9-1.56-1.35-3.38-1.35-5.47s.46-3.88,1.37-5.45c.91-1.57,2.16-2.78,3.74-3.62,1.58-.84,3.36-1.26,5.33-1.26s3.74.42,5.33,1.26c1.58.84,2.83,2.05,3.74,3.62.91,1.57,1.37,3.39,1.37,5.45s-.46,3.88-1.39,5.45c-.92,1.57-2.18,2.78-3.78,3.62-1.6.84-3.38,1.26-5.35,1.26s-3.74-.42-5.31-1.26Zm8.32-5.36c.83-.86,1.24-2.1,1.24-3.71s-.4-2.84-1.21-3.71c-.8-.86-1.79-1.3-2.97-1.3s-2.2.43-2.99,1.28c-.79.85-1.19,2.09-1.19,3.73s.39,2.84,1.17,3.71c.78.86,1.76,1.3,2.93,1.3s2.18-.43,3.01-1.3Z"/>
      <path lassName='service-hexagone-title' d="m100.1,103.96v5.22h-3.13c-2.23,0-3.97-.55-5.22-1.64-1.25-1.09-1.87-2.87-1.87-5.35v-7.99h-2.45v-5.11h2.45v-4.9h6.16v4.9h4.03v5.11h-4.03v8.06c0,.6.14,1.03.43,1.3.29.26.77.4,1.44.4h2.2Z"/>
      <path lassName='service-hexagone-title' d="m113.57,89.83c1.08-.64,2.28-.95,3.6-.95v6.52h-1.69c-1.54,0-2.69.33-3.46.99-.77.66-1.15,1.82-1.15,3.47v9.32h-6.16v-20.09h6.16v3.35c.72-1.1,1.62-1.97,2.7-2.61Z"/>
      <path lassName='service-hexagone-title' d="m140.13,100.62h-13.93c.1,1.25.5,2.2,1.21,2.86.71.66,1.58.99,2.61.99,1.54,0,2.6-.65,3.2-1.94h6.55c-.34,1.32-.94,2.51-1.82,3.56-.88,1.06-1.97,1.88-3.29,2.48-1.32.6-2.8.9-4.43.9-1.97,0-3.72-.42-5.26-1.26-1.54-.84-2.74-2.04-3.6-3.6-.86-1.56-1.3-3.38-1.3-5.47s.43-3.91,1.28-5.47c.85-1.56,2.05-2.76,3.58-3.6,1.54-.84,3.3-1.26,5.29-1.26s3.67.41,5.18,1.22c1.51.82,2.69,1.98,3.55,3.49.85,1.51,1.28,3.28,1.28,5.29,0,.58-.04,1.18-.11,1.8Zm-6.19-3.42c0-1.06-.36-1.9-1.08-2.52-.72-.62-1.62-.94-2.7-.94s-1.9.3-2.61.9c-.71.6-1.15,1.45-1.31,2.56h7.7Z"/>
      <path lassName='service-hexagone-title' d="m162.13,89.67c1.06-.58,2.29-.86,3.71-.86,1.66,0,3.16.42,4.5,1.26,1.34.84,2.41,2.04,3.19,3.6.78,1.56,1.17,3.37,1.17,5.44s-.39,3.88-1.17,5.45c-.78,1.57-1.84,2.78-3.19,3.64-1.34.85-2.84,1.28-4.5,1.28-1.39,0-2.62-.29-3.69-.86-1.07-.58-1.9-1.32-2.5-2.23v12.38h-6.16v-29.66h6.16v2.84c.6-.94,1.43-1.69,2.48-2.27Zm5.02,5.81c-.85-.88-1.9-1.31-3.15-1.31s-2.26.45-3.11,1.33c-.85.89-1.28,2.1-1.28,3.64s.43,2.75,1.28,3.64c.85.89,1.89,1.33,3.11,1.33s2.27-.45,3.13-1.35c.86-.9,1.3-2.12,1.3-3.65s-.43-2.74-1.28-3.62Z"/>
      <path lassName='service-hexagone-title' d="m187.98,89.83c1.08-.64,2.28-.95,3.6-.95v6.52h-1.69c-1.54,0-2.69.33-3.46.99-.77.66-1.15,1.82-1.15,3.47v9.32h-6.16v-20.09h6.16v3.35c.72-1.1,1.62-1.97,2.7-2.61Z"/>
      <path lassName='service-hexagone-title' d="m199.55,108.21c-1.57-.84-2.81-2.04-3.71-3.6-.9-1.56-1.35-3.38-1.35-5.47s.46-3.88,1.37-5.45c.91-1.57,2.16-2.78,3.74-3.62,1.58-.84,3.36-1.26,5.33-1.26s3.74.42,5.33,1.26c1.58.84,2.83,2.05,3.74,3.62.91,1.57,1.37,3.39,1.37,5.45s-.46,3.88-1.39,5.45c-.92,1.57-2.18,2.78-3.78,3.62-1.6.84-3.38,1.26-5.35,1.26s-3.74-.42-5.31-1.26Zm8.32-5.36c.83-.86,1.24-2.1,1.24-3.71s-.4-2.84-1.21-3.71c-.8-.86-1.79-1.3-2.97-1.3s-2.2.43-2.99,1.28c-.79.85-1.19,2.09-1.19,3.73s.39,2.84,1.17,3.71c.78.86,1.76,1.3,2.93,1.3s2.18-.43,3.01-1.3Z"/>
      <path lassName='service-hexagone-title' d="m225.99,111.78c0,2.47-.62,4.25-1.87,5.35-1.25,1.09-2.99,1.64-5.22,1.64h-2.41v-5.22h1.48c.67,0,1.15-.13,1.44-.4.29-.26.43-.7.43-1.3v-22.75h6.16v22.68Zm-5.74-25.72c-.68-.64-1.03-1.42-1.03-2.36s.34-1.76,1.03-2.39,1.57-.95,2.65-.95,1.93.32,2.61.95,1.03,1.43,1.03,2.39-.34,1.72-1.03,2.36-1.55.95-2.61.95-1.96-.32-2.65-.95Z"/>
      <path lassName='service-hexagone-title' d="m250.44,100.62h-13.93c.1,1.25.5,2.2,1.21,2.86.71.66,1.58.99,2.61.99,1.54,0,2.6-.65,3.2-1.94h6.55c-.34,1.32-.94,2.51-1.82,3.56-.88,1.06-1.97,1.88-3.29,2.48-1.32.6-2.8.9-4.43.9-1.97,0-3.72-.42-5.26-1.26-1.54-.84-2.74-2.04-3.6-3.6-.86-1.56-1.3-3.38-1.3-5.47s.43-3.91,1.28-5.47c.85-1.56,2.05-2.76,3.58-3.6,1.54-.84,3.3-1.26,5.29-1.26s3.67.41,5.18,1.22c1.51.82,2.69,1.98,3.55,3.49.85,1.51,1.28,3.28,1.28,5.29,0,.58-.04,1.18-.11,1.8Zm-6.19-3.42c0-1.06-.36-1.9-1.08-2.52-.72-.62-1.62-.94-2.7-.94s-1.9.3-2.61.9c-.71.6-1.15,1.45-1.31,2.56h7.7Z"/>
      <path lassName='service-hexagone-title' d="m266.17,103.96v5.22h-3.13c-2.23,0-3.97-.55-5.22-1.64-1.25-1.09-1.87-2.87-1.87-5.35v-7.99h-2.45v-5.11h2.45v-4.9h6.16v4.9h4.03v5.11h-4.03v8.06c0,.6.14,1.03.43,1.3.29.26.77.4,1.44.4h2.2Z"/>
    </g>
  </g>
</svg>