<svg xmlns="http://www.w3.org/2000/svg" viewBox="0 0 330.14 318.61">
<g id="Calque_2" data-name="Calque 2">
<g id="Calque_1-2" data-name="Calque 1">
<path d="M70.4,177c15.07,0,29.93-.66,44.71.17,17.26,1,32.52,6.49,41.84,22.89,1.26,2.22,5.57,3.62,8.56,3.79,8.74.49,17.54.17,26.31.18,15.68,0,20.93,3.45,26.92,18.06,3.52-1.16,7.1-2.28,10.64-3.52,24.16-8.46,48.27-17.07,72.49-25.37,9-3.09,17.83-.1,23.52,7.14,5.5,7,6.44,16.39,1.68,24a26.12,26.12,0,0,1-8,8q-61.53,39-123.27,77.62c-18.05,11.34-36.48,11.45-55,1.28-21.06-11.61-42-23.5-62.94-35.26-2.14-1.21-4.32-2.33-7-3.8-.5,2.48-.85,4.55-1.33,6.59-1.66,7.06-6.32,11.79-13.53,12-13.93.43-27.89.51-41.82,0C5.7,290.46.17,284.33.13,275.67q-.25-51,0-101.92c.05-9.58,6.19-15.42,15.81-15.58,10.58-.17,21.15,0,31.73,0C63.67,158.12,67,160.7,70.4,177Zm-.22,8.49c0,25.37-.11,48.3.21,71.23,0,1.91,2.63,4.41,4.65,5.56q35.14,20,70.5,39.67c14.8,8.26,29.77,8.33,44.17-.6q61.59-38.22,122.88-76.93c7.3-4.59,9.07-10,5.79-16.41-2.88-5.59-8.06-7.2-15.72-4.51q-41,14.38-81.92,29A13.23,13.23,0,0,0,215,236.6c-4.92,6.45-11.39,9.21-19.29,9.2q-27.67,0-55.34,0c-4,0-8.24.07-8-5.57.21-5.2,4.38-4.86,8-4.87q25.3,0,50.61,0c11.87,0,17.18-3.18,17.26-10.33s-5.28-10.67-16.9-10.68c-8.77,0-17.55,0-26.32,0-7.17-.08-13.37-2.25-16.86-9.08-4.67-9.15-12.39-14.81-22.14-15.86C107.78,187.4,89.44,186.74,70.18,185.48Zm-10.48,40c0-16.42-.1-32.83.07-49.25,0-5.36-2-8-7.46-7.95q-17.2.1-34.41,0c-5.26,0-7.82,2.2-7.81,7.69q.12,48.57,0,97.14c0,5.74,2.68,8,8.34,7.88q16.52-.3,33.05,0c5.93.11,8.46-2,8.32-8.29C59.47,256.94,59.71,241.19,59.7,225.45Z"/>
<path d="M195.14,175.67h-1.35c-15.75-.17-13.2,1.9-19.4-12.87-3.06-7.28-10.39-11-17.19-7.2-10,5.53-17.63,4.35-24-5.11a7.18,7.18,0,0,0-.95-1c-12-12.28-10.41-7.71-4.65-22.66,3.1-8,.35-15-7.59-18.25a22.19,22.19,0,0,0-3.76-1.47c-7-1.48-9.55-5.86-8.51-12.75a15.82,15.82,0,0,0,0-4.71C106,78.06,108.86,69.77,122,67.12c5.41-1.09,9.2-10.63,6.21-15.42-6.78-10.85-4.57-19.11,5.55-26.05a9.25,9.25,0,0,0,2.37-2.38c4.62-6.86,10.2-6.87,17.38-3.76,11.9,5.15,17.83,2.68,22.05-9.36C178.14,2.8,182-.79,189.82.58a10,10,0,0,0,3.36,0c12.55-2.26,20.56,2,23.6,15.1,1.18,5.13,10.41,9,14.88,6.14,11.43-7.2,19.94-4.23,27.12,6.11a7.83,7.83,0,0,0,1.9,1.91c6.5,4.5,7.15,9.78,3.56,16.79-1.83,3.59-2.19,8.34-2,12.49.37,6.86,6.19,8.75,11.63,10.29,6.58,1.87,10,5.56,8.65,12.71a11.91,11.91,0,0,0,0,4c2,12.5-1.33,21.23-15.3,23.79-4.6.85-8.64,10.49-5.91,14.49,8.38,12.31,2.76,20.17-6.72,28.31-8.94,7.69-8.48,8.22-19.68,3.57-10-4.14-16-1.66-20.16,8C209.15,177.37,212.44,175.52,195.14,175.67ZM134.21,40.1c1.83,4.22,3.76,8.27,5.32,12.45.66,1.77,1.27,4.11.66,5.73-3.33,8.91-5.76,18.61-17.55,20.58-7.1,1.19-4.26,7.2-4.67,11.45-.38,3.85-.45,7.25,4.68,8.88,4.3,1.37,9.88,3.44,11.74,6.9,4.56,8.49,9.08,17.79,1.7,27.53a6.38,6.38,0,0,0-.2,5.87c6.49,9.7,9.54,10.43,20.21,5.73,7.8-3.44,23.38,1.81,26.13,9.79,2.89,8.4,7.56,11.51,16.35,10.34,3.92-.52,5.87-1.53,7.25-5.2,1.47-3.9,2.94-9.29,6-10.83,8.31-4.14,17.12-9.88,27-2.67,1.62,1.19,5,2.35,6,1.54,3.76-2.77,7.7-5.95,9.88-9.91,1.13-2.05-.92-6.22-2.17-9.15a21.75,21.75,0,0,1,12-29.22c2.41-.94,5.63-1.87,6.7-3.79,3.43-6.11-.5-16-6.75-18.5C252,72.53,247,59.78,252.5,47.21c1.06-2.41,3.23-6,2.34-7.3A38.34,38.34,0,0,0,244.61,29.4c-1.63-1.1-5.43.49-8,1.44-13.54,4.92-25.55-.36-31-13.55-.81-1.95-2.6-4.54-4.34-4.9-10.93-2.29-13.86-.56-18.12,9.6-3.41,8.13-17.91,14.17-25.92,10.79-11.08-4.68-11.09-4.69-19.64,3.78C136.41,37.65,135.39,38.83,134.21,40.1Z"/>
<path class="cls-1" d="M70.18,185.48c19.26,1.26,37.6,1.92,55.8,3.87,9.75,1.05,17.47,6.71,22.14,15.86,3.49,6.83,9.69,9,16.86,9.08,8.77.09,17.55,0,26.32,0,11.62,0,17,3.4,16.9,10.68s-5.39,10.33-17.26,10.33q-25.31,0-50.61,0c-3.62,0-7.79-.33-8,4.87-.24,5.64,4,5.57,8,5.57q27.66,0,55.34,0c7.9,0,14.37-2.75,19.29-9.2a13.23,13.23,0,0,1,5.78-4.11q40.9-14.66,81.92-29c7.66-2.69,12.84-1.08,15.72,4.51,3.28,6.37,1.51,11.82-5.79,16.41Q251.21,263,189.71,301.34c-14.4,8.93-29.37,8.86-44.17.6Q110.22,282.23,75,262.27c-2-1.15-4.62-3.65-4.65-5.56C70.07,233.78,70.18,210.85,70.18,185.48Z"/>
<path class="cls-1" d="M59.71,225.45c0,15.74-.24,31.49.11,47.22.14,6.32-2.39,8.4-8.32,8.29q-16.51-.3-33,0c-5.66.11-8.35-2.14-8.34-7.88q.08-48.57,0-97.14c0-5.49,2.55-7.72,7.81-7.69q17.21.1,34.41,0c5.45,0,7.51,2.59,7.46,7.95C59.6,192.62,59.7,209,59.71,225.45Z"/>
<path class="cls-1" d="M134.21,40.1c1.18-1.27,2.2-2.45,3.31-3.54,8.55-8.47,8.56-8.46,19.64-3.78,8,3.38,22.51-2.66,25.92-10.79,4.26-10.16,7.19-11.89,18.12-9.6,1.74.36,3.53,2.95,4.34,4.9,5.49,13.19,17.5,18.47,31,13.55,2.6-.95,6.4-2.54,8-1.44a38.34,38.34,0,0,1,10.23,10.51c.89,1.34-1.28,4.89-2.34,7.3C247,59.78,252,72.53,264.55,77.62c6.25,2.53,10.18,12.39,6.75,18.5C270.23,98,267,99,264.6,99.91a21.75,21.75,0,0,0-12,29.22c1.25,2.93,3.3,7.1,2.17,9.15-2.18,4-6.12,7.14-9.88,9.91-1.09.81-4.43-.35-6-1.54-9.83-7.21-18.64-1.47-27,2.67-3.08,1.54-4.55,6.93-6,10.83-1.38,3.67-3.33,4.68-7.25,5.2-8.79,1.17-13.46-1.94-16.35-10.34-2.75-8-18.33-13.23-26.13-9.79-10.67,4.7-13.72,4-20.21-5.73a6.38,6.38,0,0,1,.2-5.87c7.38-9.74,2.86-19-1.7-27.53-1.86-3.46-7.44-5.53-11.74-6.9-5.13-1.63-5.06-5-4.68-8.88.41-4.25-2.43-10.26,4.67-11.45,11.79-2,14.22-11.67,17.55-20.58.61-1.62,0-4-.66-5.73C138,48.37,136,44.32,134.21,40.1Zm97.15,48.66a36.55,36.55,0,0,0-73.1-.05c-.09,20.15,16.88,37.1,36.93,36.87A36.72,36.72,0,0,0,231.36,88.76Z"/>
<path d="M231.36,88.76a36.72,36.72,0,0,1-36.17,36.82c-20.05.23-37-16.72-36.93-36.87a36.55,36.55,0,0,1,73.1.05Zm-62.61-.36a26.38,26.38,0,0,0,26,26.35c14.12.1,26.25-11.82,26.49-26a26.32,26.32,0,0,0-26.52-26.48A26,26,0,0,0,168.75,88.4Z"/>
<path class="cls-1" d="M168.75,88.4a26,26,0,0,1,26-26.18A26.32,26.32,0,0,1,221.23,88.7c-.24,14.23-12.37,26.15-26.49,26.05A26.38,26.38,0,0,1,168.75,88.4Z"/></g></g></svg>