<svg xmlns="http://www.w3.org/2000/svg"  viewBox="0 0 143 161">
<g class="cls-1">
<g id="Calque_2" data-name="Calque 2">
<g id="Calque_1-2" data-name="Calque 1">
<path class="cls-3" d="M122.64,75.2c0,8.4-.13,16.79,0,25.18a11.34,11.34,0,0,1-6,10.74c-14.6,8.63-29.14,17.38-43.71,26.07a9.49,9.49,0,0,1-10.24,0C47.76,128.28,33,119.3,18.15,110.35c-3.84-2.33-5.23-6-5.23-10.26q0-25.5.15-51a11.16,11.16,0,0,1,5.79-10.25c14.52-8.59,29-17.27,43.48-25.88,3.91-2.32,7.83-2.16,11.73.2C88,21.59,102,30,116,38.36c4.77,2.83,7,6.65,6.83,12.33C122.48,58.85,122.67,67,122.64,75.2Z"/>
<path class="cls-5" d="M69.79,91.55c-3.51,4.71-7,9.38-10.46,14a12.92,12.92,0,0,1-2,1.75,12,12,0,0,1-1.55-2.12Q51,94.09,46.37,83a3.3,3.3,0,0,0-2-1.93q-8.62-3.47-17.18-7.08c-.63-.26-1.08-1-1.62-1.44.55-.48,1-1.16,1.65-1.41Q62.63,57,98.06,42.93a2.78,2.78,0,0,1,2.13-.08c.35.21.34,1.31.24,2Q96.16,71.43,91.84,98c-.32,2-.79,2.24-2.65,1.48q-9-3.69-18-7.41C70.75,91.92,70.3,91.76,69.79,91.55Zm-6.91-5.43,26.7,11c2.61-16.09,5.18-32,7.76-47.9l-.23-.13ZM30,72.49c.79.37,1.25.6,1.72.8,4.46,1.84,8.95,3.63,13.38,5.54a2.57,2.57,0,0,0,2.79-.29q22.65-15.37,45.35-30.7c.27-.18.51-.39.77-.59l-.09-.16ZM90.35,52.85l-.15-.16-42,28.53,8.74,20.6c.19-.64.27-.86.31-1.09.79-4.47,1.53-9,2.37-13.41a4.92,4.92,0,0,1,1.13-2.27q14.34-15.6,28.74-31.13C89.76,53.58,90.05,53.21,90.35,52.85ZM61.77,88.23c-.76,4.37-1.48,8.49-2.19,12.61l.26.14,7.72-10.39Z"/>
</g>
</g>
</g>
</svg>