<svg xmlns="http://www.w3.org/2000/svg" viewBox="0 0 527.42 95.1"><defs></defs><g id="Calque_2" data-name="Calque 2"><g id="Calque_1-2" data-name="Calque 1"><path className="cls-1" d="M10.73,22.66l-4-7.2H5.65v7.2H1V3.59H8.8a8.66,8.66,0,0,1,3.85.78A5.43,5.43,0,0,1,15,6.53a6,6,0,0,1,.79,3.06A5.66,5.66,0,0,1,14.74,13a5.84,5.84,0,0,1-3.17,2.12L16,22.66ZM5.65,12.17H8.53a2.69,2.69,0,0,0,1.92-.62,2.39,2.39,0,0,0,.63-1.77,2.31,2.31,0,0,0-.63-1.71,2.64,2.64,0,0,0-1.92-.63H5.65Z"/><path className="cls-1" d="M32.93,16.19H22.42a3.09,3.09,0,0,0,.91,2.16,2.76,2.76,0,0,0,2,.75,2.44,2.44,0,0,0,2.42-1.47h4.95A6.83,6.83,0,0,1,28.8,22.2a8,8,0,0,1-3.34.68,8.18,8.18,0,0,1-4-.95,6.84,6.84,0,0,1-2.72-2.72,8.4,8.4,0,0,1-1-4.13,8.51,8.51,0,0,1,1-4.13,6.67,6.67,0,0,1,2.7-2.72,8.24,8.24,0,0,1,4-1,8.07,8.07,0,0,1,3.91.93,6.65,6.65,0,0,1,2.68,2.63,8,8,0,0,1,1,4A12.85,12.85,0,0,1,32.93,16.19Zm-4.67-2.58a2.41,2.41,0,0,0-.82-1.9,3,3,0,0,0-2-.71,3,3,0,0,0-2,.68,3.08,3.08,0,0,0-1,1.93Z"/><path className="cls-1" d="M49,9.06a6.73,6.73,0,0,1,1.59,4.74v8.86H45.92V14.43a3.33,3.33,0,0,0-.79-2.37,3.1,3.1,0,0,0-4.24,0,3.37,3.37,0,0,0-.79,2.37v8.23H35.46V7.5H40.1v2A5,5,0,0,1,42,7.92a6.08,6.08,0,0,1,2.7-.58A5.5,5.5,0,0,1,49,9.06Z"/><path className="cls-1" d="M61.38,11.36h-2.5v11.3H54.23V11.36H52.55V7.5h1.68V7.06a5.48,5.48,0,0,1,1.6-4.25,6.79,6.79,0,0,1,4.71-1.45,7,7,0,0,1,.76,0V5.33a2.64,2.64,0,0,0-1.88.38,2.08,2.08,0,0,0-.54,1.65V7.5h2.5Z"/><path className="cls-1" d="M66.44,21.93a7,7,0,0,1-2.8-2.72,8.21,8.21,0,0,1-1-4.13,8.05,8.05,0,0,1,1-4.12,7.12,7.12,0,0,1,2.82-2.73,9,9,0,0,1,8,0A7.12,7.12,0,0,1,77.35,11a8.05,8.05,0,0,1,1,4.12,8,8,0,0,1-1,4.12,7.19,7.19,0,0,1-2.85,2.73,8.6,8.6,0,0,1-4,.95A8.45,8.45,0,0,1,66.44,21.93Zm6.28-4.05a3.91,3.91,0,0,0,.94-2.8,4,4,0,0,0-.91-2.8,3.08,3.08,0,0,0-4.5,0,4,4,0,0,0-.9,2.81,4,4,0,0,0,.89,2.8,2.86,2.86,0,0,0,2.21,1A3,3,0,0,0,72.72,17.88Z"/><path className="cls-1" d="M87.54,8.06a5.27,5.27,0,0,1,2.72-.72v4.91H89a3.91,3.91,0,0,0-2.61.75,3.32,3.32,0,0,0-.87,2.62v7H80.86V7.5H85.5V10A6.18,6.18,0,0,1,87.54,8.06Z"/><path className="cls-1" d="M92.53,11a6.71,6.71,0,0,1,2.69-2.72,8.07,8.07,0,0,1,4-1,7.51,7.51,0,0,1,4.77,1.5A7,7,0,0,1,106.45,13h-4.94a2.39,2.39,0,0,0-2.42-1.74,2.45,2.45,0,0,0-2,1,4.57,4.57,0,0,0-.76,2.84,4.57,4.57,0,0,0,.76,2.84,2.45,2.45,0,0,0,2,1,2.39,2.39,0,0,0,2.42-1.74h4.94a7.13,7.13,0,0,1-2.53,4.19,7.45,7.45,0,0,1-4.75,1.52,8.07,8.07,0,0,1-4-.95,6.71,6.71,0,0,1-2.69-2.72,8.4,8.4,0,0,1-1-4.13A8.4,8.4,0,0,1,92.53,11Z"/><path className="cls-1" d="M123.13,16.19H112.62a3.13,3.13,0,0,0,.91,2.16,2.77,2.77,0,0,0,2,.75,2.45,2.45,0,0,0,2.42-1.47h4.94a6.68,6.68,0,0,1-1.37,2.69A6.79,6.79,0,0,1,119,22.2a8,8,0,0,1-3.34.68,8.17,8.17,0,0,1-4-.95A6.78,6.78,0,0,1,109,19.21a8.41,8.41,0,0,1-1-4.13A8.4,8.4,0,0,1,109,11a6.67,6.67,0,0,1,2.7-2.72,8.23,8.23,0,0,1,4-1,8.11,8.11,0,0,1,3.92.93,6.56,6.56,0,0,1,2.67,2.63,8,8,0,0,1,1,4A10.7,10.7,0,0,1,123.13,16.19Zm-4.67-2.58a2.4,2.4,0,0,0-.81-1.9,3,3,0,0,0-2-.71,3,3,0,0,0-2,.68,3,3,0,0,0-1,1.93Z"/><path className="cls-1" d="M130,18.83h6.57v3.83H124.82V19l6.3-7.63h-6.25V7.5h11.58v3.69Z"/><path className="cls-1" d="M151.72,18.31,155,7.5H160l-5.38,15.16h-5.73L143.46,7.5h5Z"/><path className="cls-1" d="M164.8,21.93a7,7,0,0,1-2.8-2.72,8.11,8.11,0,0,1-1-4.13A8.15,8.15,0,0,1,162,11a7.08,7.08,0,0,1,2.83-2.73,9,9,0,0,1,8,0A7.08,7.08,0,0,1,175.71,11a8.05,8.05,0,0,1,1,4.12,8,8,0,0,1-1.05,4.12,7.07,7.07,0,0,1-2.85,2.73,8.56,8.56,0,0,1-4,.95A8.42,8.42,0,0,1,164.8,21.93Zm6.28-4.05a3.91,3.91,0,0,0,.93-2.8,4,4,0,0,0-.91-2.8,3.07,3.07,0,0,0-4.49,0,4,4,0,0,0-.9,2.81,4,4,0,0,0,.88,2.8,2.88,2.88,0,0,0,2.22,1A3.06,3.06,0,0,0,171.08,17.88Z"/><path className="cls-1" d="M187.66,18.72v3.94H185.3a5.75,5.75,0,0,1-3.94-1.24,5.11,5.11,0,0,1-1.41-4v-6H178.1V7.5H180V3.8h4.64V7.5h3v3.86h-3v6.08a1.26,1.26,0,0,0,.33,1,1.6,1.6,0,0,0,1.09.3Z"/><path className="cls-1" d="M196.93,8.06a5.24,5.24,0,0,1,2.72-.72v4.91h-1.28a3.91,3.91,0,0,0-2.61.75,3.32,3.32,0,0,0-.87,2.62v7h-4.65V7.5h4.65V10A6,6,0,0,1,196.93,8.06Z"/><path className="cls-1" d="M216.08,16.19H205.57a3.09,3.09,0,0,0,.91,2.16,2.77,2.77,0,0,0,2,.75,2.45,2.45,0,0,0,2.42-1.47h4.94a6.68,6.68,0,0,1-1.37,2.69A6.79,6.79,0,0,1,212,22.2a8,8,0,0,1-3.34.68,8.2,8.2,0,0,1-4-.95,6.82,6.82,0,0,1-2.71-2.72,8.41,8.41,0,0,1-1-4.13,8.51,8.51,0,0,1,1-4.13,6.76,6.76,0,0,1,2.71-2.72,8.23,8.23,0,0,1,4-1,8,8,0,0,1,3.91.93,6.53,6.53,0,0,1,2.68,2.63,8,8,0,0,1,1,4A10.7,10.7,0,0,1,216.08,16.19Zm-4.67-2.58a2.38,2.38,0,0,0-.82-1.9,3,3,0,0,0-2-.71,3,3,0,0,0-2,.68,3,3,0,0,0-1,1.93Z"/><path className="cls-1" d="M230.89,7.93a5.82,5.82,0,0,1,2.8-.65,6.28,6.28,0,0,1,3.39,1A6.6,6.6,0,0,1,239.49,11a9,9,0,0,1,.88,4.1,9.15,9.15,0,0,1-.88,4.12,6.59,6.59,0,0,1-2.41,2.74,6.13,6.13,0,0,1-3.39,1,5.86,5.86,0,0,1-2.79-.65A5.15,5.15,0,0,1,229,20.54v9.35h-4.65V7.5H229V9.65A5,5,0,0,1,230.89,7.93Zm3.79,4.39a3.19,3.19,0,0,0-2.38-1,3.16,3.16,0,0,0-2.35,1,3.8,3.8,0,0,0-1,2.74,3.8,3.8,0,0,0,1,2.74,3.25,3.25,0,0,0,4.72,0,3.83,3.83,0,0,0,1-2.76A3.76,3.76,0,0,0,234.68,12.32Z"/><path className="cls-1" d="M249.5,8.06a5.27,5.27,0,0,1,2.72-.72v4.91h-1.28a3.91,3.91,0,0,0-2.61.75,3.32,3.32,0,0,0-.87,2.62v7h-4.64V7.5h4.64V10A6.18,6.18,0,0,1,249.5,8.06Z"/><path className="cls-1" d="M268.66,16.19H258.14a3.13,3.13,0,0,0,.91,2.16,2.78,2.78,0,0,0,2,.75,2.44,2.44,0,0,0,2.42-1.47h4.94A6.68,6.68,0,0,1,267,20.32a6.84,6.84,0,0,1-2.48,1.88,8.05,8.05,0,0,1-3.35.68,8.17,8.17,0,0,1-4-.95,6.78,6.78,0,0,1-2.72-2.72,8.41,8.41,0,0,1-1-4.13,8.4,8.4,0,0,1,1-4.13,6.67,6.67,0,0,1,2.7-2.72,8.23,8.23,0,0,1,4-1,8.08,8.08,0,0,1,3.92.93,6.56,6.56,0,0,1,2.67,2.63,7.91,7.91,0,0,1,1,4A12.85,12.85,0,0,1,268.66,16.19ZM264.31,3.61l-6.55,2.75V3.15L264.31,0Zm-.33,10a2.4,2.4,0,0,0-.81-1.9,3,3,0,0,0-2-.71,3,3,0,0,0-2,.68,3,3,0,0,0-1,1.93Z"/><path className="cls-1" d="M273.82,22.2a6.12,6.12,0,0,1-2.45-1.86,4.93,4.93,0,0,1-1-2.65H275a1.75,1.75,0,0,0,.73,1.27,2.59,2.59,0,0,0,1.61.49,2.23,2.23,0,0,0,1.34-.34,1,1,0,0,0-.2-1.84,14.11,14.11,0,0,0-2.2-.7,20,20,0,0,1-2.72-.8,4.63,4.63,0,0,1-1.87-1.33,3.62,3.62,0,0,1-.79-2.46,4.19,4.19,0,0,1,.72-2.38,4.79,4.79,0,0,1,2.12-1.69A8,8,0,0,1,277,7.28a6.66,6.66,0,0,1,4.49,1.41,5.5,5.5,0,0,1,1.89,3.75h-4.29a1.9,1.9,0,0,0-.7-1.25,2.42,2.42,0,0,0-1.53-.46,2.2,2.2,0,0,0-1.25.31,1,1,0,0,0-.43.86,1,1,0,0,0,.69,1,11,11,0,0,0,2.16.65,23.41,23.41,0,0,1,2.74.86,4.62,4.62,0,0,1,1.86,1.36,3.81,3.81,0,0,1,.83,2.51,4,4,0,0,1-.75,2.38,5,5,0,0,1-2.14,1.64,8.19,8.19,0,0,1-3.25.6A8.75,8.75,0,0,1,273.82,22.2Z"/><path className="cls-1" d="M300.55,16.19H290a3.13,3.13,0,0,0,.91,2.16,2.77,2.77,0,0,0,2,.75,2.45,2.45,0,0,0,2.42-1.47h4.94a6.68,6.68,0,0,1-1.37,2.69,6.79,6.79,0,0,1-2.49,1.88,8,8,0,0,1-3.34.68,8.17,8.17,0,0,1-4-.95,6.78,6.78,0,0,1-2.72-2.72,8.41,8.41,0,0,1-1-4.13,8.4,8.4,0,0,1,1-4.13,6.67,6.67,0,0,1,2.7-2.72,8.23,8.23,0,0,1,4-1,8.11,8.11,0,0,1,3.92.93,6.56,6.56,0,0,1,2.67,2.63,8,8,0,0,1,1,4A10.7,10.7,0,0,1,300.55,16.19Zm-4.67-2.58a2.4,2.4,0,0,0-.81-1.9,3,3,0,0,0-2-.71,3,3,0,0,0-2,.68,3,3,0,0,0-1,1.93Z"/><path className="cls-1" d="M316.57,9.06a6.73,6.73,0,0,1,1.59,4.74v8.86h-4.62V14.43a3.33,3.33,0,0,0-.79-2.37,2.76,2.76,0,0,0-2.12-.84,2.79,2.79,0,0,0-2.12.84,3.37,3.37,0,0,0-.78,2.37v8.23h-4.65V7.5h4.65v2a4.87,4.87,0,0,1,1.9-1.59,6,6,0,0,1,2.69-.58A5.5,5.5,0,0,1,316.57,9.06Z"/><path className="cls-1" d="M321.43,11a6.77,6.77,0,0,1,2.69-2.72,8.11,8.11,0,0,1,4-1,7.51,7.51,0,0,1,4.77,1.5A7.07,7.07,0,0,1,335.36,13h-4.95A2.37,2.37,0,0,0,328,11.25a2.42,2.42,0,0,0-2,1,4.57,4.57,0,0,0-.76,2.84,4.57,4.57,0,0,0,.76,2.84,2.42,2.42,0,0,0,2,1,2.37,2.37,0,0,0,2.41-1.74h4.95a7.13,7.13,0,0,1-2.53,4.19,7.45,7.45,0,0,1-4.75,1.52,8.11,8.11,0,0,1-4-.95,6.77,6.77,0,0,1-2.69-2.72,8.51,8.51,0,0,1-1-4.13A8.51,8.51,0,0,1,321.43,11Z"/><path className="cls-1" d="M352,16.19H341.53a3.09,3.09,0,0,0,.91,2.16,2.77,2.77,0,0,0,2,.75,2.45,2.45,0,0,0,2.42-1.47h4.94a6.68,6.68,0,0,1-1.37,2.69,6.79,6.79,0,0,1-2.49,1.88,8,8,0,0,1-3.34.68,8.18,8.18,0,0,1-4-.95,6.76,6.76,0,0,1-2.71-2.72,8.3,8.3,0,0,1-1-4.13,8.51,8.51,0,0,1,1-4.13,6.76,6.76,0,0,1,2.71-2.72,8.23,8.23,0,0,1,4-1,8,8,0,0,1,3.91.93,6.59,6.59,0,0,1,2.68,2.63,8,8,0,0,1,1,4A10.65,10.65,0,0,1,352,16.19Zm-4.67-2.58a2.38,2.38,0,0,0-.82-1.9,3,3,0,0,0-2-.71,3,3,0,0,0-2,.68,3,3,0,0,0-1,1.93Z"/><path className="cls-1" d="M373.82,9.06a6.73,6.73,0,0,1,1.59,4.74v8.86h-4.62V14.43a3.33,3.33,0,0,0-.79-2.37,2.76,2.76,0,0,0-2.12-.84,2.79,2.79,0,0,0-2.12.84,3.37,3.37,0,0,0-.78,2.37v8.23h-4.65V7.5H365v2a4.87,4.87,0,0,1,1.9-1.59,6,6,0,0,1,2.69-.58A5.5,5.5,0,0,1,373.82,9.06Z"/><path className="cls-1" d="M393.61,7.5V22.66H389V20.6a5.09,5.09,0,0,1-1.92,1.61,5.79,5.79,0,0,1-2.67.61,6.07,6.07,0,0,1-3.08-.77,5.27,5.27,0,0,1-2.06-2.24,7.63,7.63,0,0,1-.73-3.45V7.5h4.61v8.23a3.37,3.37,0,0,0,.79,2.37,2.77,2.77,0,0,0,2.12.84,2.81,2.81,0,0,0,2.15-.84,3.37,3.37,0,0,0,.79-2.37V7.5Z"/><path className="cls-1" d="M420.8,9.05a6.52,6.52,0,0,1,1.67,4.75v8.86h-4.62V14.43a3.11,3.11,0,0,0-.78-2.27,3.24,3.24,0,0,0-4.26,0,3.11,3.11,0,0,0-.78,2.27v8.23h-4.61V14.43a3.11,3.11,0,0,0-.78-2.27,2.81,2.81,0,0,0-2.13-.8,2.78,2.78,0,0,0-2.13.8,3.11,3.11,0,0,0-.78,2.27v8.23H397V7.5h4.65V9.4a5,5,0,0,1,1.85-1.51A5.82,5.82,0,0,1,406,7.34a6.29,6.29,0,0,1,3.06.73,5.34,5.34,0,0,1,2.1,2.09,6.2,6.2,0,0,1,2.15-2,5.82,5.82,0,0,1,3-.78A6,6,0,0,1,420.8,9.05Z"/><path className="cls-1" d="M439.94,16.19H429.42a3.18,3.18,0,0,0,.91,2.16,2.78,2.78,0,0,0,2,.75,2.44,2.44,0,0,0,2.42-1.47h4.95a6.7,6.7,0,0,1-1.38,2.69,6.84,6.84,0,0,1-2.48,1.88,8,8,0,0,1-3.34.68,8.18,8.18,0,0,1-4-.95,6.78,6.78,0,0,1-2.72-2.72,8.41,8.41,0,0,1-1-4.13,8.4,8.4,0,0,1,1-4.13,6.67,6.67,0,0,1,2.7-2.72,8.24,8.24,0,0,1,4-1,8.07,8.07,0,0,1,3.91.93,6.56,6.56,0,0,1,2.67,2.63,7.91,7.91,0,0,1,1,4A12.85,12.85,0,0,1,439.94,16.19ZM435.59,3.61,429,6.36V3.15L435.59,0Zm-.33,10a2.4,2.4,0,0,0-.81-1.9,3,3,0,0,0-2-.71,3,3,0,0,0-2,.68,3.08,3.08,0,0,0-1,1.93Z"/><path className="cls-1" d="M449.15,8.06a5.24,5.24,0,0,1,2.72-.72v4.91h-1.28A3.91,3.91,0,0,0,448,13a3.32,3.32,0,0,0-.87,2.62v7h-4.65V7.5h4.65V10A6,6,0,0,1,449.15,8.06Z"/><path className="cls-1" d="M454.43,5.2a2.35,2.35,0,0,1-.77-1.78,2.37,2.37,0,0,1,.77-1.8,2.82,2.82,0,0,1,2-.72,2.78,2.78,0,0,1,2,.72,2.34,2.34,0,0,1,.77,1.8,2.31,2.31,0,0,1-.77,1.78,2.78,2.78,0,0,1-2,.72A2.82,2.82,0,0,1,454.43,5.2Zm4.31,2.3V22.66h-4.65V7.5Z"/><path className="cls-1" d="M462.12,11.09a7.11,7.11,0,0,1,2.53-2.76,6.41,6.41,0,0,1,3.46-1,6.25,6.25,0,0,1,2.58.5,4.6,4.6,0,0,1,1.85,1.4V7.5h4.65V29.89h-4.65V20.76a5.92,5.92,0,0,1-1.91,1.52,5.65,5.65,0,0,1-2.57.57,6.44,6.44,0,0,1-3.43-1,7,7,0,0,1-2.51-2.74,8.52,8.52,0,0,1-.94-4A8.46,8.46,0,0,1,462.12,11.09ZM472.07,13a3.23,3.23,0,0,0-4.42-1.25A3.29,3.29,0,0,0,466.4,13a4.12,4.12,0,0,0-.49,2.07,4,4,0,0,0,.49,2.05,3.33,3.33,0,0,0,1.25,1.25,3.22,3.22,0,0,0,1.58.42,3.32,3.32,0,0,0,1.59-.42,3.18,3.18,0,0,0,1.25-1.27,4.21,4.21,0,0,0,.47-2.06A4.12,4.12,0,0,0,472.07,13Z"/><path className="cls-1" d="M495.53,7.5V22.66h-4.65V20.6A5.13,5.13,0,0,1,489,22.21a5.84,5.84,0,0,1-2.68.61,6.06,6.06,0,0,1-3.07-.77,5.23,5.23,0,0,1-2.07-2.24,7.76,7.76,0,0,1-.73-3.45V7.5H485v8.23a3.33,3.33,0,0,0,.79,2.37,2.76,2.76,0,0,0,2.12.84,2.79,2.79,0,0,0,2.14-.84,3.33,3.33,0,0,0,.79-2.37V7.5Z"/><path className="cls-1" d="M513.08,16.19H502.56a3.18,3.18,0,0,0,.91,2.16,2.8,2.8,0,0,0,2,.75,2.44,2.44,0,0,0,2.42-1.47h4.95A6.83,6.83,0,0,1,509,22.2a8,8,0,0,1-3.34.68,8.18,8.18,0,0,1-4-.95,6.84,6.84,0,0,1-2.72-2.72,8.4,8.4,0,0,1-1-4.13,8.51,8.51,0,0,1,1-4.13,6.67,6.67,0,0,1,2.7-2.72,8.24,8.24,0,0,1,4-1,8.07,8.07,0,0,1,3.91.93,6.65,6.65,0,0,1,2.68,2.63,8,8,0,0,1,1,4A12.85,12.85,0,0,1,513.08,16.19Zm-4.67-2.58a2.41,2.41,0,0,0-.82-1.9,3,3,0,0,0-2-.71,3,3,0,0,0-2,.68,3.08,3.08,0,0,0-1,1.93Z"/><path className="cls-1" d="M1,43.55a6.57,6.57,0,0,1,2.41-2.71,6.22,6.22,0,0,1,3.39-1,5.81,5.81,0,0,1,2.82.65,4.81,4.81,0,0,1,1.86,1.71V40.1h4.64V55.26H11.44V53.12a5,5,0,0,1-1.89,1.71,5.89,5.89,0,0,1-2.81.65,6.18,6.18,0,0,1-3.37-1A6.68,6.68,0,0,1,1,51.77a10,10,0,0,1,0-8.22Zm9.51,1.39a3.12,3.12,0,0,0-2.35-1,3.18,3.18,0,0,0-2.35,1,3.76,3.76,0,0,0-1,2.73,3.82,3.82,0,0,0,1,2.75,3.13,3.13,0,0,0,2.35,1,3.11,3.11,0,0,0,2.35-1,4.37,4.37,0,0,0,0-5.49Z"/><path className="cls-1" d="M26.27,50.92,29.56,40.1h4.95L29.13,55.26H23.39L18,40.1h5Z"/><path className="cls-1" d="M50.67,48.8H40.16A3.13,3.13,0,0,0,41.07,51a2.77,2.77,0,0,0,2,.75,2.45,2.45,0,0,0,2.42-1.47H50.4a6.79,6.79,0,0,1-3.86,4.56,7.85,7.85,0,0,1-3.34.68,8.07,8.07,0,0,1-4-.95,6.7,6.7,0,0,1-2.71-2.72,8.27,8.27,0,0,1-1-4.13,8.54,8.54,0,0,1,1-4.13,6.73,6.73,0,0,1,2.71-2.71,8.81,8.81,0,0,1,7.9,0,6.61,6.61,0,0,1,2.68,2.64,8,8,0,0,1,1,4A10.76,10.76,0,0,1,50.67,48.8ZM46,46.22a2.4,2.4,0,0,0-.82-1.91,3,3,0,0,0-2-.7,3,3,0,0,0-2,.68,3,3,0,0,0-1,1.93Z"/><path className="cls-1" d="M53.24,43.55a6.69,6.69,0,0,1,2.69-2.71,8,8,0,0,1,4-1,7.51,7.51,0,0,1,4.77,1.49,7,7,0,0,1,2.51,4.21H62.22a2.38,2.38,0,0,0-2.42-1.74,2.45,2.45,0,0,0-2,1A4.66,4.66,0,0,0,57,47.68a4.62,4.62,0,0,0,.76,2.84,2.43,2.43,0,0,0,2,1,2.38,2.38,0,0,0,2.42-1.74h4.94A7.09,7.09,0,0,1,64.64,54a7.42,7.42,0,0,1-4.76,1.52,8,8,0,0,1-4-.95,6.65,6.65,0,0,1-2.69-2.72,9.28,9.28,0,0,1,0-8.26Z"/><path className="cls-1" d="M88.89,41.67a6.73,6.73,0,0,1,1.59,4.74v8.85H85.86V47a3.35,3.35,0,0,0-.79-2.36,3.1,3.1,0,0,0-4.24,0A3.3,3.3,0,0,0,80,47v8.23H75.4V40.1H80v2a5,5,0,0,1,1.9-1.59,6.21,6.21,0,0,1,2.69-.58A5.52,5.52,0,0,1,88.89,41.67Z"/><path className="cls-1" d="M96.6,54.53a7,7,0,0,1-2.8-2.72,8.83,8.83,0,0,1,0-8.24,7,7,0,0,1,2.82-2.73,9,9,0,0,1,8,0,7,7,0,0,1,2.82,2.73,8.7,8.7,0,0,1,0,8.23,7.06,7.06,0,0,1-2.85,2.73,8.48,8.48,0,0,1-4,.95A8.31,8.31,0,0,1,96.6,54.53Zm6.28-4.05a3.9,3.9,0,0,0,.94-2.8,4,4,0,0,0-.91-2.79,2.93,2.93,0,0,0-2.24-1,3,3,0,0,0-2.26,1,4,4,0,0,0-.9,2.81,4,4,0,0,0,.89,2.8,2.84,2.84,0,0,0,2.21,1A3,3,0,0,0,102.88,50.48Z"/><path className="cls-1" d="M113.65,54.8a5.94,5.94,0,0,1-2.44-1.86,4.87,4.87,0,0,1-1-2.65h4.59a1.78,1.78,0,0,0,.74,1.28,2.56,2.56,0,0,0,1.6.49,2.23,2.23,0,0,0,1.34-.34,1,1,0,0,0,.48-.88,1,1,0,0,0-.68-1,13.29,13.29,0,0,0-2.2-.69,22,22,0,0,1-2.72-.8,4.73,4.73,0,0,1-1.87-1.33,3.62,3.62,0,0,1-.79-2.46,4.19,4.19,0,0,1,.72-2.38,4.86,4.86,0,0,1,2.12-1.7,8,8,0,0,1,3.33-.62,6.66,6.66,0,0,1,4.49,1.41,5.46,5.46,0,0,1,1.89,3.75H119a1.83,1.83,0,0,0-.69-1.25,2.39,2.39,0,0,0-1.54-.46,2.12,2.12,0,0,0-1.25.31,1,1,0,0,0-.43.86,1,1,0,0,0,.69,1,10.92,10.92,0,0,0,2.16.66,23.63,23.63,0,0,1,2.74.85,4.82,4.82,0,0,1,1.87,1.36,3.86,3.86,0,0,1,.83,2.51,4,4,0,0,1-.75,2.38,4.89,4.89,0,0,1-2.15,1.64,8.16,8.16,0,0,1-3.25.6A8.58,8.58,0,0,1,113.65,54.8Z"/><path className="cls-1" d="M134.57,54.8a6,6,0,0,1-2.44-1.86,4.87,4.87,0,0,1-1-2.65h4.59a1.78,1.78,0,0,0,.74,1.28,2.56,2.56,0,0,0,1.6.49,2.28,2.28,0,0,0,1.35-.34,1.05,1.05,0,0,0,.47-.88,1,1,0,0,0-.68-1,13,13,0,0,0-2.2-.69,22,22,0,0,1-2.72-.8,4.73,4.73,0,0,1-1.87-1.33,3.62,3.62,0,0,1-.79-2.46,4.19,4.19,0,0,1,.72-2.38,4.86,4.86,0,0,1,2.12-1.7,8,8,0,0,1,3.33-.62,6.7,6.7,0,0,1,4.5,1.41,5.49,5.49,0,0,1,1.88,3.75h-4.29a1.83,1.83,0,0,0-.69-1.25,2.39,2.39,0,0,0-1.54-.46,2.12,2.12,0,0,0-1.25.31,1,1,0,0,0-.43.86,1,1,0,0,0,.69,1,10.92,10.92,0,0,0,2.16.66,24.52,24.52,0,0,1,2.75.85,4.86,4.86,0,0,1,1.86,1.36,3.86,3.86,0,0,1,.83,2.51,4,4,0,0,1-.75,2.38,4.84,4.84,0,0,1-2.15,1.64,8.14,8.14,0,0,1-3.24.6A8.63,8.63,0,0,1,134.57,54.8Z"/><path className="cls-1" d="M150,54.53a7,7,0,0,1-2.8-2.72,8.75,8.75,0,0,1,0-8.24A7,7,0,0,1,150,40.84a9,9,0,0,1,8.05,0,7,7,0,0,1,2.82,2.73,8.7,8.7,0,0,1,0,8.23A7.06,7.06,0,0,1,158,54.53a8.48,8.48,0,0,1-4,.95A8.31,8.31,0,0,1,150,54.53Zm6.28-4.05a3.9,3.9,0,0,0,.94-2.8,4,4,0,0,0-.91-2.79,3.09,3.09,0,0,0-4.5,0,4,4,0,0,0-.9,2.81,4,4,0,0,0,.89,2.8,2.84,2.84,0,0,0,2.21,1A3,3,0,0,0,156.27,50.48Z"/><path className="cls-1" d="M169.05,35.16v20.1h-4.64V35.16Z"/><path className="cls-1" d="M187.39,40.1V55.26h-4.64V53.2a5.19,5.19,0,0,1-1.92,1.62,6.32,6.32,0,0,1-5.75-.17A5.21,5.21,0,0,1,173,52.41a7.63,7.63,0,0,1-.73-3.45V40.1h4.61v8.24a3.35,3.35,0,0,0,.79,2.36,2.77,2.77,0,0,0,2.12.84A2.81,2.81,0,0,0,182,50.7a3.35,3.35,0,0,0,.79-2.36V40.1Z"/><path className="cls-1" d="M199.18,51.32v3.94h-2.36A5.79,5.79,0,0,1,192.88,54a5.13,5.13,0,0,1-1.41-4V44h-1.85V40.1h1.85V36.41h4.64V40.1h3V44h-3v6.09a1.27,1.27,0,0,0,.33,1,1.6,1.6,0,0,0,1.09.29Z"/><path className="cls-1" d="M202.1,37.81a2.48,2.48,0,0,1,0-3.59,2.84,2.84,0,0,1,2-.72,2.78,2.78,0,0,1,2,.72,2.46,2.46,0,0,1,0,3.59,2.78,2.78,0,0,1-2,.72A2.84,2.84,0,0,1,202.1,37.81Zm4.31,2.29V55.26h-4.65V40.1Z"/><path className="cls-1" d="M212.67,54.53a7,7,0,0,1-2.8-2.72,8.18,8.18,0,0,1-1-4.13,8,8,0,0,1,1-4.11,7,7,0,0,1,2.82-2.73,9,9,0,0,1,8,0,7,7,0,0,1,2.82,2.73,8.7,8.7,0,0,1,0,8.23,7.06,7.06,0,0,1-2.85,2.73,8.48,8.48,0,0,1-4,.95A8.33,8.33,0,0,1,212.67,54.53ZM219,50.48a3.9,3.9,0,0,0,.94-2.8,4,4,0,0,0-.91-2.79,2.93,2.93,0,0,0-2.24-1,3,3,0,0,0-2.26,1,4,4,0,0,0-.9,2.81,4,4,0,0,0,.89,2.8,2.84,2.84,0,0,0,2.21,1A3,3,0,0,0,219,50.48Z"/><path className="cls-1" d="M240.58,41.67a6.73,6.73,0,0,1,1.59,4.74v8.85h-4.62V47a3.3,3.3,0,0,0-.79-2.36,3.1,3.1,0,0,0-4.24,0,3.35,3.35,0,0,0-.79,2.36v8.23h-4.64V40.1h4.64v2a5,5,0,0,1,1.9-1.59,6.22,6.22,0,0,1,2.7-.58A5.51,5.51,0,0,1,240.58,41.67Z"/><path className="cls-1" d="M248,54.8a6,6,0,0,1-2.45-1.86,5,5,0,0,1-1-2.65h4.6a1.73,1.73,0,0,0,.73,1.28,2.56,2.56,0,0,0,1.6.49,2.28,2.28,0,0,0,1.35-.34,1.05,1.05,0,0,0,.47-.88,1,1,0,0,0-.68-1,13,13,0,0,0-2.2-.69,21.82,21.82,0,0,1-2.71-.8,4.76,4.76,0,0,1-1.88-1.33,3.67,3.67,0,0,1-.79-2.46,4.19,4.19,0,0,1,.72-2.38,4.86,4.86,0,0,1,2.12-1.7,8.11,8.11,0,0,1,3.33-.62,6.7,6.7,0,0,1,4.5,1.41,5.54,5.54,0,0,1,1.89,3.75h-4.3a1.83,1.83,0,0,0-.69-1.25,2.38,2.38,0,0,0-1.53-.46,2.08,2.08,0,0,0-1.25.31,1,1,0,0,0-.44.86,1,1,0,0,0,.69,1,11.14,11.14,0,0,0,2.16.66A23.88,23.88,0,0,1,255,47a4.86,4.86,0,0,1,1.86,1.36,3.86,3.86,0,0,1,.83,2.51,4,4,0,0,1-.75,2.38,4.84,4.84,0,0,1-2.15,1.64,8.14,8.14,0,0,1-3.24.6A8.58,8.58,0,0,1,248,54.8Z"/><path className="cls-1" d="M266.28,43.55a6.62,6.62,0,0,1,2.4-2.71,6.25,6.25,0,0,1,3.4-1,5.89,5.89,0,0,1,2.73.62,5,5,0,0,1,1.94,1.69v-7h4.65v20.1h-4.65V53.09a4.61,4.61,0,0,1-1.86,1.74,5.86,5.86,0,0,1-2.81.65,6.26,6.26,0,0,1-3.4-1,6.73,6.73,0,0,1-2.4-2.75,10,10,0,0,1,0-8.22Zm9.51,1.39a3.25,3.25,0,0,0-4.7,0,3.76,3.76,0,0,0-1,2.73,3.83,3.83,0,0,0,1,2.75,3.24,3.24,0,0,0,4.7,0,4.4,4.4,0,0,0,0-5.49Z"/><path className="cls-1" d="M299,48.8H288.46a3.22,3.22,0,0,0,.91,2.16,2.78,2.78,0,0,0,2,.75,2.44,2.44,0,0,0,2.42-1.47h4.95a6.86,6.86,0,0,1-3.86,4.56,7.88,7.88,0,0,1-3.34.68,8.07,8.07,0,0,1-4-.95,6.72,6.72,0,0,1-2.72-2.72,8.38,8.38,0,0,1-1-4.13,8.54,8.54,0,0,1,1-4.13,6.65,6.65,0,0,1,2.7-2.71,8.83,8.83,0,0,1,7.91,0,6.67,6.67,0,0,1,2.68,2.64,8,8,0,0,1,1,4A13,13,0,0,1,299,48.8Zm-4.67-2.58a2.43,2.43,0,0,0-.82-1.91,3.26,3.26,0,0,0-4,0,3,3,0,0,0-1,1.93Z"/><path className="cls-1" d="M307.22,43.55a6.64,6.64,0,0,1,2.41-2.71,6.23,6.23,0,0,1,3.4-1,6,6,0,0,1,2.73.62,5,5,0,0,1,1.94,1.69v-7h4.64v20.1H317.7V53.09a4.74,4.74,0,0,1-1.86,1.74,5.92,5.92,0,0,1-2.81.65,6.24,6.24,0,0,1-3.4-1,6.76,6.76,0,0,1-2.41-2.75,10,10,0,0,1,0-8.22Zm9.51,1.39a3.12,3.12,0,0,0-2.35-1,3.18,3.18,0,0,0-2.35,1,3.76,3.76,0,0,0-1,2.73,3.82,3.82,0,0,0,1,2.75,3.24,3.24,0,0,0,4.7,0,4.37,4.37,0,0,0,0-5.49Z"/><path className="cls-1" d="M339.92,48.8H329.41a3.18,3.18,0,0,0,.91,2.16,2.77,2.77,0,0,0,2,.75,2.45,2.45,0,0,0,2.42-1.47h4.94a6.79,6.79,0,0,1-3.86,4.56,7.85,7.85,0,0,1-3.34.68,8,8,0,0,1-4-.95,6.72,6.72,0,0,1-2.72-2.72,8.38,8.38,0,0,1-1-4.13,8.54,8.54,0,0,1,1-4.13,6.73,6.73,0,0,1,2.71-2.71,8.81,8.81,0,0,1,7.9,0A6.55,6.55,0,0,1,339,43.45a8,8,0,0,1,1,4A10.82,10.82,0,0,1,339.92,48.8Zm-4.34-12.58L329,39v-3.2l6.55-3.16Zm-.33,10a2.42,2.42,0,0,0-.81-1.91,3,3,0,0,0-2-.7,2.85,2.85,0,0,0-3,2.61Z"/><path className="cls-1" d="M349.27,50.92l3.29-10.82h4.94l-5.38,15.16h-5.73L341,40.1h5Z"/><path className="cls-1" d="M373.67,48.8H363.15a3.22,3.22,0,0,0,.91,2.16,2.78,2.78,0,0,0,2,.75,2.44,2.44,0,0,0,2.42-1.47h4.95A7,7,0,0,1,372,52.93a6.85,6.85,0,0,1-2.49,1.87,7.88,7.88,0,0,1-3.34.68,8.07,8.07,0,0,1-4-.95,6.78,6.78,0,0,1-2.72-2.72,8.38,8.38,0,0,1-1-4.13,8.54,8.54,0,0,1,1-4.13,6.65,6.65,0,0,1,2.7-2.71,8.83,8.83,0,0,1,7.91,0,6.67,6.67,0,0,1,2.68,2.64,8,8,0,0,1,1,4A13,13,0,0,1,373.67,48.8ZM369,46.22a2.43,2.43,0,0,0-.82-1.91,3.26,3.26,0,0,0-4,0,3,3,0,0,0-1,1.93Z"/><path className="cls-1" d="M380.84,35.16v20.1H376.2V35.16Z"/><path className="cls-1" d="M387.1,54.53a7,7,0,0,1-2.79-2.72,8.79,8.79,0,0,1,0-8.24,7,7,0,0,1,2.83-2.73,9,9,0,0,1,8,0A6.92,6.92,0,0,1,398,43.57a8.62,8.62,0,0,1,0,8.23,7.06,7.06,0,0,1-2.85,2.73,8.48,8.48,0,0,1-4,.95A8.33,8.33,0,0,1,387.1,54.53Zm6.28-4.05a3.85,3.85,0,0,0,.94-2.8,4,4,0,0,0-.91-2.79,2.93,2.93,0,0,0-2.24-1,3,3,0,0,0-2.26,1,4,4,0,0,0-.9,2.81,4,4,0,0,0,.89,2.8,2.86,2.86,0,0,0,2.21,1A3,3,0,0,0,393.38,50.48Z"/><path className="cls-1" d="M408,40.54a5.71,5.71,0,0,1,2.8-.65,6.19,6.19,0,0,1,3.39,1,6.57,6.57,0,0,1,2.41,2.71,10,10,0,0,1,0,8.22,6.68,6.68,0,0,1-2.41,2.75,6.2,6.2,0,0,1-3.39,1,5.86,5.86,0,0,1-2.79-.65,5.12,5.12,0,0,1-1.88-1.68v9.34h-4.65V40.1h4.65v2.15A4.91,4.91,0,0,1,408,40.54Zm3.79,4.39a3.2,3.2,0,0,0-2.38-1,3.16,3.16,0,0,0-2.35,1,4.4,4.4,0,0,0,0,5.49,3.26,3.26,0,0,0,4.72,0,4.37,4.37,0,0,0,0-5.48Z"/><path className="cls-1" d="M426.49,40.54a5.68,5.68,0,0,1,2.8-.65,6.19,6.19,0,0,1,3.39,1,6.57,6.57,0,0,1,2.41,2.71,10,10,0,0,1,0,8.22,6.68,6.68,0,0,1-2.41,2.75,6.2,6.2,0,0,1-3.39,1,5.86,5.86,0,0,1-2.79-.65,5.24,5.24,0,0,1-1.89-1.68v9.34H420V40.1h4.64v2.15A5,5,0,0,1,426.49,40.54Zm3.79,4.39a3.22,3.22,0,0,0-2.38-1,3.14,3.14,0,0,0-2.35,1,4.4,4.4,0,0,0,0,5.49,3.25,3.25,0,0,0,4.71,0,4.36,4.36,0,0,0,0-5.48Z"/><path className="cls-1" d="M452.62,48.8H442.11A3.18,3.18,0,0,0,443,51a2.77,2.77,0,0,0,2,.75,2.44,2.44,0,0,0,2.42-1.47h4.94a6.81,6.81,0,0,1-3.85,4.56,7.93,7.93,0,0,1-3.35.68,8.06,8.06,0,0,1-4-.95,6.72,6.72,0,0,1-2.72-2.72,9.23,9.23,0,0,1,0-8.26,6.65,6.65,0,0,1,2.7-2.71,8.83,8.83,0,0,1,7.91,0,6.59,6.59,0,0,1,2.67,2.64,8,8,0,0,1,1,4A10.82,10.82,0,0,1,452.62,48.8ZM448,46.22a2.42,2.42,0,0,0-.81-1.91,3,3,0,0,0-2-.7,2.85,2.85,0,0,0-3,2.61Z"/><path className="cls-1" d="M479,41.65a6.51,6.51,0,0,1,1.68,4.76v8.85h-4.62V47a3.13,3.13,0,0,0-.78-2.27,3.24,3.24,0,0,0-4.26,0,3.13,3.13,0,0,0-.78,2.27v8.23h-4.62V47a3.17,3.17,0,0,0-.77-2.27,3.25,3.25,0,0,0-4.27,0A3.17,3.17,0,0,0,459.8,47v8.23h-4.65V40.1h4.65V42a4.91,4.91,0,0,1,1.85-1.51,5.82,5.82,0,0,1,2.58-.56,6.34,6.34,0,0,1,3,.73,5.26,5.26,0,0,1,2.11,2.1,6,6,0,0,1,2.15-2,5.73,5.73,0,0,1,3-.79A6,6,0,0,1,479,41.65Z"/><path className="cls-1" d="M498.13,48.8H487.62a3.18,3.18,0,0,0,.91,2.16,2.77,2.77,0,0,0,2,.75,2.45,2.45,0,0,0,2.42-1.47h4.94A6.79,6.79,0,0,1,494,54.8a7.85,7.85,0,0,1-3.34.68,8.06,8.06,0,0,1-4-.95A6.72,6.72,0,0,1,484,51.81a9.23,9.23,0,0,1,0-8.26,6.65,6.65,0,0,1,2.7-2.71,8.83,8.83,0,0,1,7.91,0,6.59,6.59,0,0,1,2.67,2.64,8,8,0,0,1,1,4A10.82,10.82,0,0,1,498.13,48.8Zm-4.67-2.58a2.42,2.42,0,0,0-.81-1.91,3,3,0,0,0-2-.7,2.85,2.85,0,0,0-3,2.61Z"/><path className="cls-1" d="M514.15,41.67a6.73,6.73,0,0,1,1.59,4.74v8.85h-4.62V47a3.3,3.3,0,0,0-.79-2.36,3.08,3.08,0,0,0-4.23,0,3.3,3.3,0,0,0-.79,2.36v8.23h-4.65V40.1h4.65v2a4.87,4.87,0,0,1,1.9-1.59,6.17,6.17,0,0,1,2.69-.58A5.51,5.51,0,0,1,514.15,41.67Z"/><path className="cls-1" d="M527.42,51.32v3.94h-2.36A5.81,5.81,0,0,1,521.12,54a5.13,5.13,0,0,1-1.41-4V44h-1.85V40.1h1.85V36.41h4.64V40.1h3V44h-3v6.09a1.27,1.27,0,0,0,.33,1,1.6,1.6,0,0,0,1.09.29Z"/><path className="cls-1" d="M27.25,68.8l-5,19.07H16.66L13.61,75.32,10.46,87.87H4.84L0,68.8H5L7.72,82.68,11.11,68.8h5.11l3.26,13.88L22.25,68.8Z"/><path className="cls-1" d="M43.8,81.4H33.28a3.22,3.22,0,0,0,.91,2.16,2.78,2.78,0,0,0,2,.75,2.44,2.44,0,0,0,2.42-1.47h5a6.7,6.7,0,0,1-1.38,2.69,7,7,0,0,1-2.48,1.88,8,8,0,0,1-3.34.68,8.18,8.18,0,0,1-4-1,6.78,6.78,0,0,1-2.72-2.72,9.23,9.23,0,0,1,0-8.26,6.67,6.67,0,0,1,2.7-2.72,8.83,8.83,0,0,1,7.91,0,6.74,6.74,0,0,1,2.68,2.64,8,8,0,0,1,1,4A12.85,12.85,0,0,1,43.8,81.4Zm-4.68-2.58a2.39,2.39,0,0,0-.81-1.9,3,3,0,0,0-2-.71,3,3,0,0,0-2,.68,3.08,3.08,0,0,0-1,1.93Z"/><path className="cls-1" d="M52.84,73.14a5.93,5.93,0,0,1,2.8-.65,6.31,6.31,0,0,1,3.4,1,6.58,6.58,0,0,1,2.4,2.72,9,9,0,0,1,.89,4.1,9.15,9.15,0,0,1-.89,4.12A6.63,6.63,0,0,1,59,87.12a6.16,6.16,0,0,1-3.4,1,5.93,5.93,0,0,1-2.8-.64A5,5,0,0,1,51,85.75v2.12H46.32V67.76H51v7.09A4.93,4.93,0,0,1,52.84,73.14Zm3.8,4.39a3.21,3.21,0,0,0-2.38-1,3.11,3.11,0,0,0-2.35,1,4.37,4.37,0,0,0,0,5.49,3.24,3.24,0,0,0,4.71,0,3.83,3.83,0,0,0,1-2.76A3.76,3.76,0,0,0,56.64,77.53Z"/><path className="cls-1" d="M77.05,73.14a5.82,5.82,0,0,1,2.8-.65,6.34,6.34,0,0,1,3.4,1,6.65,6.65,0,0,1,2.4,2.72,9,9,0,0,1,.89,4.1,9.15,9.15,0,0,1-.89,4.12,6.71,6.71,0,0,1-2.4,2.74,6.18,6.18,0,0,1-3.4,1,5.68,5.68,0,0,1-2.78-.66,5,5,0,0,1-1.89-1.68V95.1H70.53V72.71h4.65v2.14A5.16,5.16,0,0,1,77.05,73.14Zm3.79,4.39a3.17,3.17,0,0,0-2.37-1,3.11,3.11,0,0,0-2.35,1,4.37,4.37,0,0,0,0,5.49,3.24,3.24,0,0,0,4.71,0,3.83,3.83,0,0,0,1-2.76A3.72,3.72,0,0,0,80.84,77.53Z"/><path className="cls-1" d="M103.19,81.4H92.68a3.13,3.13,0,0,0,.91,2.16,2.77,2.77,0,0,0,2,.75A2.43,2.43,0,0,0,98,82.84h5a6.68,6.68,0,0,1-1.37,2.69,6.9,6.9,0,0,1-2.49,1.88,8,8,0,0,1-3.34.68,8.18,8.18,0,0,1-4-1A6.76,6.76,0,0,1,89,84.42a8.33,8.33,0,0,1-1-4.13,8.51,8.51,0,0,1,1-4.13,6.76,6.76,0,0,1,2.71-2.72,8.81,8.81,0,0,1,7.9,0,6.67,6.67,0,0,1,2.68,2.64,8,8,0,0,1,1,4A10.65,10.65,0,0,1,103.19,81.4Zm-4.67-2.58a2.36,2.36,0,0,0-.82-1.9,3,3,0,0,0-2-.71,3,3,0,0,0-2,.68,3,3,0,0,0-1,1.93Z"/><path className="cls-1" d="M112.4,73.27a5.28,5.28,0,0,1,2.72-.73v4.92h-1.28a3.91,3.91,0,0,0-2.61.75,3.32,3.32,0,0,0-.87,2.62v7h-4.64V72.71h4.64v2.52A6.25,6.25,0,0,1,112.4,73.27Z"/><path className="cls-1" d="M120,87.41a6.11,6.11,0,0,1-2.44-1.86,4.87,4.87,0,0,1-1-2.65h4.59a1.76,1.76,0,0,0,.74,1.27,2.56,2.56,0,0,0,1.6.49,2.23,2.23,0,0,0,1.34-.34,1,1,0,0,0,.48-.88,1,1,0,0,0-.68-1,13.75,13.75,0,0,0-2.2-.7,20.42,20.42,0,0,1-2.72-.8,4.63,4.63,0,0,1-1.87-1.33,3.62,3.62,0,0,1-.79-2.46,4.19,4.19,0,0,1,.72-2.38,4.84,4.84,0,0,1,2.12-1.69,8,8,0,0,1,3.33-.63,6.66,6.66,0,0,1,4.49,1.41,5.5,5.5,0,0,1,1.89,3.75h-4.29a1.85,1.85,0,0,0-.69-1.25,2.45,2.45,0,0,0-1.54-.46,2.2,2.2,0,0,0-1.25.31,1,1,0,0,0-.43.86,1.05,1.05,0,0,0,.69,1,11,11,0,0,0,2.16.65,21.64,21.64,0,0,1,2.74.86A4.79,4.79,0,0,1,128.83,81a4.18,4.18,0,0,1,.08,4.89,5,5,0,0,1-2.15,1.65,8.16,8.16,0,0,1-3.25.6A8.75,8.75,0,0,1,120,87.41Z"/><path className="cls-1" d="M135.4,87.14a7,7,0,0,1-2.8-2.72,8.77,8.77,0,0,1,0-8.25,7.05,7.05,0,0,1,2.82-2.73,9,9,0,0,1,8,0,7.08,7.08,0,0,1,2.83,2.73,8.7,8.7,0,0,1,0,8.23,7.11,7.11,0,0,1-2.86,2.74,8.56,8.56,0,0,1-4,1A8.42,8.42,0,0,1,135.4,87.14Zm6.28-4a3.91,3.91,0,0,0,.94-2.8,4,4,0,0,0-.91-2.8,3,3,0,0,0-2.25-1,2.93,2.93,0,0,0-2.25,1,4,4,0,0,0-.9,2.81,4.09,4.09,0,0,0,.88,2.8,2.88,2.88,0,0,0,2.22,1A3,3,0,0,0,141.68,83.09Z"/><path className="cls-1" d="M163.31,74.27A6.72,6.72,0,0,1,164.89,79v8.86h-4.61V79.64a3.36,3.36,0,0,0-.79-2.37,3.1,3.1,0,0,0-4.24,0,3.31,3.31,0,0,0-.79,2.37v8.23h-4.64V72.71h4.64v2a5,5,0,0,1,1.9-1.59,6.07,6.07,0,0,1,2.69-.59A5.52,5.52,0,0,1,163.31,74.27Z"/><path className="cls-1" d="M181.62,74.27A6.73,6.73,0,0,1,183.21,79v8.86h-4.62V79.64a3.31,3.31,0,0,0-.79-2.37,3.1,3.1,0,0,0-4.24,0,3.36,3.36,0,0,0-.79,2.37v8.23h-4.64V72.71h4.64v2a5,5,0,0,1,1.91-1.59,6,6,0,0,1,2.69-.59A5.51,5.51,0,0,1,181.62,74.27Z"/><path className="cls-1" d="M186.4,76.16a6.65,6.65,0,0,1,2.4-2.72,6.34,6.34,0,0,1,3.4-1,5.86,5.86,0,0,1,2.81.65,4.82,4.82,0,0,1,1.86,1.71V72.71h4.65V87.87h-4.65V85.72A4.94,4.94,0,0,1,195,87.43a5.82,5.82,0,0,1-2.82.66,6.13,6.13,0,0,1-3.37-1,6.71,6.71,0,0,1-2.4-2.74,9.15,9.15,0,0,1-.88-4.12A9,9,0,0,1,186.4,76.16Zm9.51,1.38a3.27,3.27,0,0,0-4.7,0,3.76,3.76,0,0,0-1,2.73,3.87,3.87,0,0,0,1,2.76,3.23,3.23,0,0,0,4.7,0,4.4,4.4,0,0,0,0-5.49Z"/><path className="cls-1" d="M209.54,67.76V87.87h-4.65V67.76Z"/><path className="cls-1" d="M213.24,70.41a2.35,2.35,0,0,1-.77-1.78,2.37,2.37,0,0,1,.77-1.8,2.84,2.84,0,0,1,2-.72,2.78,2.78,0,0,1,2,.72,2.35,2.35,0,0,1,.78,1.8,2.32,2.32,0,0,1-.78,1.78,2.78,2.78,0,0,1-2,.72A2.84,2.84,0,0,1,213.24,70.41Zm4.31,2.3V87.87H212.9V72.71Z"/><path className="cls-1" d="M223.55,87.41a6.18,6.18,0,0,1-2.44-1.86,5,5,0,0,1-1-2.65h4.6a1.72,1.72,0,0,0,.73,1.27,2.56,2.56,0,0,0,1.6.49,2.28,2.28,0,0,0,1.35-.34,1,1,0,0,0,.47-.88,1,1,0,0,0-.68-1,13.75,13.75,0,0,0-2.2-.7,20.23,20.23,0,0,1-2.71-.8,4.66,4.66,0,0,1-1.88-1.33,3.67,3.67,0,0,1-.79-2.46,4.19,4.19,0,0,1,.72-2.38,4.84,4.84,0,0,1,2.12-1.69,8.08,8.08,0,0,1,3.33-.63,6.7,6.7,0,0,1,4.5,1.41,5.59,5.59,0,0,1,1.89,3.75h-4.3a1.85,1.85,0,0,0-.69-1.25,2.45,2.45,0,0,0-1.54-.46,2.14,2.14,0,0,0-1.24.31,1,1,0,0,0-.44.86,1.05,1.05,0,0,0,.69,1,11,11,0,0,0,2.16.65,21.86,21.86,0,0,1,2.75.86A4.84,4.84,0,0,1,232.4,81a4.18,4.18,0,0,1,.08,4.89,4.92,4.92,0,0,1-2.15,1.65,8.14,8.14,0,0,1-3.24.6A8.8,8.8,0,0,1,223.55,87.41Z"/><path className="cls-1" d="M250.29,81.4H239.78a3.13,3.13,0,0,0,.91,2.16,2.77,2.77,0,0,0,2,.75,2.44,2.44,0,0,0,2.41-1.47h5a6.81,6.81,0,0,1-1.37,2.69,6.9,6.9,0,0,1-2.49,1.88,8,8,0,0,1-3.34.68,8.18,8.18,0,0,1-4-1,6.84,6.84,0,0,1-2.72-2.72,9.32,9.32,0,0,1,0-8.26,6.73,6.73,0,0,1,2.7-2.72,8.24,8.24,0,0,1,4-1,8.15,8.15,0,0,1,3.91.92,6.74,6.74,0,0,1,2.68,2.64,8,8,0,0,1,1,4A12.85,12.85,0,0,1,250.29,81.4Zm-4.35-12.58-6.55,2.75V68.36l6.55-3.15Zm-.32,10a2.39,2.39,0,0,0-.82-1.9,3.24,3.24,0,0,0-4,0,3.08,3.08,0,0,0-1,1.93Z"/><path className="cls-1" d="M267,81.4H256.51a3.18,3.18,0,0,0,.91,2.16,2.78,2.78,0,0,0,2,.75,2.44,2.44,0,0,0,2.42-1.47h4.95a6.83,6.83,0,0,1-1.38,2.69,7,7,0,0,1-2.48,1.88,8,8,0,0,1-3.34.68,8.18,8.18,0,0,1-4-1,6.78,6.78,0,0,1-2.72-2.72,9.23,9.23,0,0,1,0-8.26,6.67,6.67,0,0,1,2.7-2.72,8.83,8.83,0,0,1,7.91,0,6.65,6.65,0,0,1,2.67,2.64,7.91,7.91,0,0,1,1,4A12.85,12.85,0,0,1,267,81.4Zm-4.68-2.58a2.39,2.39,0,0,0-.81-1.9,3,3,0,0,0-2-.71,3,3,0,0,0-2,.68,3.08,3.08,0,0,0-1,1.93Z"/><path className="cls-1" d="M272.19,87.41a6.21,6.21,0,0,1-2.45-1.86,4.93,4.93,0,0,1-1-2.65h4.59a1.75,1.75,0,0,0,.73,1.27,2.59,2.59,0,0,0,1.61.49,2.23,2.23,0,0,0,1.34-.34,1,1,0,0,0,.48-.88,1,1,0,0,0-.68-1,14.11,14.11,0,0,0-2.2-.7,20,20,0,0,1-2.72-.8A4.63,4.63,0,0,1,270,79.65a3.62,3.62,0,0,1-.79-2.46,4.19,4.19,0,0,1,.72-2.38,4.79,4.79,0,0,1,2.12-1.69,8,8,0,0,1,3.33-.63,6.66,6.66,0,0,1,4.49,1.41,5.5,5.5,0,0,1,1.89,3.75h-4.29a1.86,1.86,0,0,0-.7-1.25,2.42,2.42,0,0,0-1.53-.46,2.2,2.2,0,0,0-1.25.31,1,1,0,0,0-.43.86,1.05,1.05,0,0,0,.69,1,11,11,0,0,0,2.16.65,21.64,21.64,0,0,1,2.74.86A4.69,4.69,0,0,1,281,81a3.85,3.85,0,0,1,.83,2.52,3.94,3.94,0,0,1-.75,2.37A4.89,4.89,0,0,1,279,87.49a8.19,8.19,0,0,1-3.25.6A8.75,8.75,0,0,1,272.19,87.41Z"/></g></g></svg>